<svg width="295" height="227" viewBox="0 0 295 227" fill="none" xmlns="http://www.w3.org/2000/svg">
<g clip-path="url(#clip0_1109_11726)">
<path d="M43.2046 203.676C100.809 234.77 194.198 234.777 251.802 203.676C309.406 172.575 309.406 122.157 251.802 91.0556C194.198 59.9545 100.802 59.9609 43.2046 91.0556C-14.3931 122.15 -14.3995 172.575 43.2046 203.676Z" fill="#F2F2F2"/>
<path d="M61.9575 2.44029L57.4956 5.00904C57.5208 4.81312 57.5336 4.61578 57.5338 4.41822V3.13385C57.5338 0.828402 55.9339 -0.077081 53.9515 1.04675C53.1017 1.57497 52.3736 2.27998 51.8161 3.11458C51.491 0.224746 49.2664 -0.854127 46.5 0.738496C43.5424 2.45956 41.1456 6.64661 41.1456 10.0887V12.0153C41.1241 12.7874 41.2789 13.5542 41.5982 14.2565L37.9139 16.4014C37.3367 16.7889 36.859 17.3087 36.52 17.9182C36.1809 18.5277 35.9901 19.2096 35.9634 19.9078C35.9634 21.1921 36.8494 21.6995 37.9458 21.0637L61.9575 7.06403C62.5364 6.68429 63.0181 6.17235 63.3637 5.5698C63.7092 4.96726 63.9088 4.29109 63.9463 3.59622C63.9463 2.31827 63.0603 1.7981 61.9575 2.44029Z" fill="#F2F2F2"/>
<path d="M80.953 15.4446L77.6129 17.3711C77.6129 17.2234 77.6129 17.0693 77.6129 16.928V15.9712C77.6129 14.2308 76.4018 13.5308 74.9102 14.3978C74.2697 14.7956 73.7218 15.3278 73.3039 15.9583C73.0617 13.7749 71.3916 12.9593 69.2945 14.1602C68.117 14.9351 67.137 15.9783 66.4338 17.2055C65.7307 18.4327 65.324 19.8094 65.2469 21.2242V22.6884C65.2335 23.2704 65.3512 23.8478 65.5911 24.3774L62.8119 25.9957C62.3757 26.2819 62.0127 26.6678 61.7525 27.1219C61.4922 27.5761 61.3419 28.0857 61.314 28.6094C61.314 29.5727 61.9514 29.9644 62.8119 29.4828L80.953 18.9381C81.3898 18.6504 81.7535 18.2635 82.0148 17.8084C82.276 17.3533 82.4276 16.8428 82.4573 16.3179C82.4255 15.3547 81.7498 14.9629 80.953 15.4446Z" fill="#F2F2F2"/>
<path d="M260.025 32.957L256.678 34.8835C256.698 34.7367 256.709 34.5887 256.71 34.4404V33.4836C256.71 31.7432 255.499 31.0433 254.001 31.9102C253.371 32.3121 252.832 32.844 252.42 33.4707C252.171 31.2873 250.508 30.4717 248.404 31.6726C247.228 32.4478 246.249 33.4913 245.547 34.7185C244.844 35.9457 244.439 37.3223 244.363 38.7367V40.2008C244.347 40.7831 244.464 41.3612 244.707 41.8898L241.928 43.5081C241.492 43.7943 241.129 44.1802 240.869 44.6343C240.608 45.0885 240.458 45.5981 240.43 46.1218C240.43 47.0851 241.099 47.4768 241.928 46.9952L260.05 36.4569C260.486 36.1693 260.849 35.7822 261.11 35.327C261.37 34.8718 261.52 34.3613 261.548 33.8368C261.522 32.8671 260.853 32.4753 260.025 32.957Z" fill="#F2F2F2"/>
<path d="M60.2557 95.4867L10.543 124.404V126.812L56.1124 153.322L105.832 124.404V121.996L60.2557 95.4867Z" fill="#5E86EA"/>
<path opacity="0.15" d="M10.543 124.404L56.1124 150.914V153.322L10.543 126.812V124.404Z" fill="black"/>
<path opacity="0.1" d="M56.1128 150.914L105.832 121.996V124.404L56.1128 153.322V150.914Z" fill="black"/>
<path d="M101.406 113.312L99.4414 117.212L99.7597 117.374L101.724 113.475L101.406 113.312Z" fill="#575770"/>
<path d="M97.7679 112.998L97.4644 113.187L99.3802 116.305L99.6837 116.116L97.7679 112.998Z" fill="#575770"/>
<path d="M99.8975 112.639V122.015C99.8955 122.041 99.8869 122.066 99.8723 122.088C99.8578 122.109 99.8379 122.126 99.8146 122.137C99.749 122.169 99.6771 122.186 99.6043 122.186C99.5314 122.186 99.4595 122.169 99.3939 122.137C99.3366 122.099 99.3047 122.06 99.3047 122.015V112.639H99.8975Z" fill="#575770"/>
<path d="M106.954 109.711C106.949 110.574 106.69 111.416 106.21 112.131C105.731 112.846 105.052 113.401 104.259 113.728C103.466 114.054 102.595 114.137 101.756 113.965C100.916 113.793 100.146 113.374 99.543 112.762C98.9396 112.15 98.5298 111.371 98.3653 110.524C98.2009 109.677 98.2891 108.8 98.6189 108.004C98.9486 107.208 99.5052 106.528 100.218 106.05C100.931 105.572 101.769 105.317 102.625 105.319C103.197 105.319 103.762 105.432 104.289 105.653C104.816 105.875 105.295 106.199 105.697 106.607C106.1 107.015 106.418 107.5 106.633 108.033C106.849 108.565 106.958 109.136 106.954 109.711Z" fill="#5E86EA"/>
<path opacity="0.2" d="M103.977 108.594C104.538 106.821 105.137 106.128 104.755 105.916C104.109 105.531 103.375 105.325 102.626 105.319C101.895 105.319 101.177 105.506 100.538 105.861C99.8986 106.216 99.3585 106.728 98.9679 107.349C98.5773 107.97 98.3489 108.681 98.3037 109.415C98.2586 110.149 98.3982 110.883 98.7097 111.548C99.0211 112.214 99.4943 112.789 100.085 113.221C100.676 113.652 101.366 113.927 102.09 114.018C102.815 114.11 103.55 114.016 104.229 113.744C104.908 113.473 105.507 113.033 105.972 112.466C104.678 112.871 103.263 110.893 103.977 108.594Z" fill="black"/>
<path d="M98.8394 110.951C98.8394 111.558 98.6607 112.151 98.3259 112.656C97.9911 113.161 97.5152 113.554 96.9585 113.786C96.4017 114.019 95.7891 114.08 95.1981 113.961C94.607 113.843 94.0641 113.55 93.638 113.121C93.2119 112.692 92.9217 112.145 92.8042 111.549C92.6866 110.954 92.7469 110.337 92.9775 109.776C93.2082 109.215 93.5987 108.735 94.0997 108.398C94.6008 108.061 95.1899 107.881 95.7925 107.881C96.6006 107.881 97.3756 108.204 97.947 108.78C98.5184 109.356 98.8394 110.136 98.8394 110.951Z" fill="#5E86EA"/>
<path opacity="0.2" d="M95.7922 107.887C95.1537 107.886 94.5311 108.088 94.0138 108.465C93.931 110.34 95.5118 112.164 95.0719 112.781C94.6321 113.397 93.5421 113.018 93.1597 112.498C93.4281 112.964 93.8135 113.35 94.2771 113.619C94.7407 113.887 95.2662 114.028 95.8008 114.027C96.3354 114.025 96.8604 113.883 97.3229 113.613C97.7854 113.342 98.1692 112.954 98.4358 112.487C98.7024 112.021 98.8423 111.491 98.8416 110.953C98.8408 110.414 98.6994 109.885 98.4315 109.419C98.1636 108.953 97.7787 108.566 97.3155 108.297C96.8522 108.028 96.3269 107.887 95.7922 107.887Z" fill="black"/>
<path d="M99.6039 113.269C102.691 113.269 105.194 110.747 105.194 107.637C105.194 104.526 102.691 102.005 99.6039 102.005C96.5165 102.005 94.0137 104.526 94.0137 107.637C94.0137 110.747 96.5165 113.269 99.6039 113.269Z" fill="#5E86EA"/>
<path opacity="0.1" d="M105.041 108.928C104.835 109.844 104.404 110.694 103.787 111.4C103.171 112.106 102.39 112.645 101.514 112.969C100.638 113.292 99.6951 113.39 98.7722 113.252C97.8492 113.115 96.9751 112.747 96.2295 112.182C95.4838 111.617 94.8904 110.872 94.5033 110.017C94.1163 109.162 93.9478 108.223 94.0133 107.285C94.0788 106.347 94.3763 105.441 94.8785 104.649C95.3807 103.857 96.0717 103.204 96.8885 102.75C96.4032 103.028 95.9609 103.376 95.5754 103.784C95.3031 104.986 95.4302 106.245 95.937 107.368C96.4439 108.491 97.3026 109.415 98.3812 109.998C99.4598 110.582 100.699 110.792 101.908 110.598C103.117 110.403 104.229 109.814 105.073 108.921L105.041 108.928Z" fill="black"/>
<path d="M18.575 115.709L16.6104 119.609L16.9287 119.771L18.8933 115.872L18.575 115.709Z" fill="#575770"/>
<path d="M14.9358 115.395L14.6323 115.584L16.5481 118.702L16.8516 118.513L14.9358 115.395Z" fill="#575770"/>
<path d="M17.064 115.028V124.43C17.0627 124.456 17.0543 124.481 17.0397 124.503C17.025 124.524 17.0048 124.541 16.9811 124.552C16.9164 124.587 16.8442 124.605 16.7708 124.605C16.6974 124.605 16.6251 124.587 16.5604 124.552C16.536 124.542 16.5148 124.525 16.4991 124.503C16.4834 124.482 16.4737 124.457 16.4712 124.43V115.028H17.064Z" fill="#575770"/>
<path d="M24.1201 112.106C24.1201 112.97 23.8659 113.814 23.3897 114.533C22.9134 115.251 22.2364 115.81 21.4444 116.141C20.6524 116.471 19.7809 116.558 18.94 116.389C18.0992 116.221 17.3269 115.805 16.7207 115.194C16.1145 114.584 15.7017 113.805 15.5345 112.958C15.3672 112.111 15.453 111.233 15.7811 110.435C16.1092 109.637 16.6647 108.955 17.3775 108.476C18.0904 107.996 18.9284 107.74 19.7857 107.74C20.3551 107.739 20.9191 107.851 21.4454 108.07C21.9717 108.289 22.4498 108.611 22.8525 109.017C23.2551 109.422 23.5744 109.904 23.7919 110.434C24.0094 110.965 24.121 111.533 24.1201 112.106Z" fill="#5E86EA"/>
<path opacity="0.2" d="M21.1436 110.989C21.7045 109.217 22.2973 108.523 21.9212 108.305C21.2035 107.894 20.3843 107.699 19.5601 107.741C18.7358 107.784 17.9408 108.063 17.2684 108.545C16.596 109.027 16.0742 109.692 15.7643 110.463C15.4545 111.234 15.3695 112.077 15.5193 112.895C15.6691 113.713 16.0475 114.47 16.61 115.079C17.1725 115.687 17.8957 116.121 18.6946 116.33C19.4936 116.538 20.335 116.513 21.12 116.256C21.905 115.999 22.6009 115.522 23.126 114.881C21.8447 115.26 20.3978 113.288 21.1436 110.989Z" fill="black"/>
<path d="M16.0059 113.339C16.0059 113.947 15.8272 114.54 15.4924 115.045C15.1576 115.55 14.6817 115.943 14.125 116.175C13.5682 116.408 12.9556 116.469 12.3646 116.35C11.7735 116.232 11.2306 115.939 10.8045 115.51C10.3784 115.081 10.0882 114.534 9.97066 113.938C9.85309 113.343 9.91343 112.726 10.144 112.165C10.3747 111.604 10.7652 111.124 11.2662 110.787C11.7673 110.45 12.3564 110.27 12.959 110.27C13.7671 110.27 14.5421 110.593 15.1135 111.169C15.6849 111.745 16.0059 112.525 16.0059 113.339Z" fill="#5E86EA"/>
<path opacity="0.2" d="M12.9588 110.27C12.3206 110.27 11.6986 110.473 11.1803 110.848C11.0975 112.723 12.6783 114.553 12.2321 115.17C11.7859 115.786 10.7087 115.401 10.3198 114.881C10.5883 115.346 10.9736 115.733 11.4372 116.001C11.9008 116.269 12.4263 116.41 12.9609 116.409C13.4956 116.408 14.0205 116.265 14.483 115.995C14.9456 115.725 15.3294 115.337 15.5959 114.87C15.8625 114.403 16.0024 113.874 16.0017 113.335C16.0009 112.796 15.8595 112.268 15.5917 111.801C15.3238 111.335 14.9389 110.948 14.4756 110.679C14.0123 110.411 13.487 110.269 12.9524 110.27H12.9588Z" fill="black"/>
<path d="M16.7709 115.664C19.8583 115.664 22.3611 113.143 22.3611 110.032C22.3611 106.922 19.8583 104.4 16.7709 104.4C13.6835 104.4 11.1807 106.922 11.1807 110.032C11.1807 113.143 13.6835 115.664 16.7709 115.664Z" fill="#5E86EA"/>
<path opacity="0.1" d="M22.2082 111.317C21.9977 112.229 21.5645 113.074 20.948 113.776C20.3314 114.477 19.5509 115.012 18.6772 115.333C17.8035 115.654 16.8641 115.75 15.9442 115.613C15.0243 115.476 14.1529 115.109 13.4089 114.547C12.665 113.985 12.072 113.245 11.6836 112.394C11.2953 111.542 11.1239 110.607 11.1849 109.672C11.2459 108.737 11.5375 107.832 12.0332 107.04C12.5289 106.247 13.213 105.591 14.0236 105.132C13.5499 105.411 13.1202 105.759 12.7488 106.166C12.4709 107.37 12.5943 108.633 13.0999 109.759C13.6055 110.885 14.4652 111.812 15.5461 112.397C16.627 112.981 17.869 113.191 19.08 112.994C20.2911 112.796 21.4039 112.202 22.2464 111.304L22.2082 111.317Z" fill="black"/>
<path d="M71.5444 134.711L78.486 130.678L84.7072 134.3L77.7721 138.327L71.5444 134.711Z" fill="#F5F5F5"/>
<path d="M22.9795 124.404L22.9731 102.718L56.1192 121.996V143.683L22.9795 124.404Z" fill="#F5F5F5"/>
<path d="M22.9731 111.323L56.1192 130.608V121.996L22.9731 102.718V111.323Z" fill="#EBEBEB"/>
<path d="M93.4021 121.996V100.913L80.9723 97.8949L80.9659 95.4867L56.1191 121.996V143.683L93.4021 121.996Z" fill="#FCFCFC"/>
<path d="M80.9722 95.4867V97.8949L95.4736 101.51V99.1022L80.9722 95.4867Z" fill="#343444"/>
<path d="M62.3339 79.8237L95.4736 99.1022L80.9722 95.4867L47.8325 76.2082L62.3339 79.8237Z" fill="#47475B"/>
<path d="M54.0409 125.624L80.972 95.4867V93.0785L51.9692 126.812L54.0409 125.624Z" fill="#47475B"/>
<path d="M47.8324 73.8L80.9721 93.0784L52.0203 126.845L18.8296 107.534L47.8324 73.8Z" fill="#575770"/>
<path d="M37.4424 105.042L41.6111 107.47V113.558L37.4424 111.15V105.042Z" fill="#343444"/>
<path d="M41.6113 107.47L45.7801 105.042V108.741L41.6113 113.558V107.47Z" fill="#47475B"/>
<path d="M41.611 100.913L37.0088 103.585V104.798L41.611 107.47L46.2132 104.798V103.585L41.611 100.913Z" fill="#F9F9F9"/>
<path d="M37.0088 104.798L41.611 107.47V106.256L37.0088 103.585V104.798Z" fill="#EBEBEB"/>
<path d="M46.2135 104.798L41.6113 107.47V106.256L46.2135 103.585V104.798Z" fill="#F2F2F2"/>
<path d="M38.5518 103.585L41.6114 101.806L44.671 103.585L41.6114 105.357L38.5518 103.585Z" fill="#5E86EA"/>
<path d="M41.6114 101.806V105.357L38.5518 103.585L41.6114 101.806Z" fill="#47475B"/>
<path d="M41.6113 101.806L44.671 103.585L41.6113 105.357V101.806Z" fill="#343444"/>
<path d="M58.8091 127.66L68.1282 122.24V129.471L58.8091 134.891V127.66Z" fill="#575770"/>
<path d="M67.7139 129.227V122.484L58.8091 127.66V134.41L67.7139 129.227Z" fill="#EBEBEB"/>
<path d="M68.1282 129.471L67.7139 129.227L58.8091 134.41V134.891L68.1282 129.471Z" fill="#47475B"/>
<path d="M58.8091 131.276L68.1282 125.856V125.368L58.8091 130.794V131.276Z" fill="#575770"/>
<path d="M81.5903 114.405L90.9159 108.985V116.21L81.5903 121.636V114.405Z" fill="#575770"/>
<path d="M90.4952 115.972V109.223L81.5903 114.405V121.148L90.4952 115.972Z" fill="#EBEBEB"/>
<path d="M90.9159 116.21L90.4952 115.972L81.5903 121.148V121.636L90.9159 116.21Z" fill="#47475B"/>
<path d="M81.5903 118.021L90.9159 112.594V112.113L81.5903 117.533V118.021Z" fill="#575770"/>
<path d="M71.5444 134.711V120.249L78.486 116.216V130.678L71.5444 134.711Z" fill="#47475B"/>
<path d="M78.2374 130.486V116.358L71.5444 120.249V134.377L78.2374 130.486Z" fill="#575770"/>
<path d="M78.4864 116.216L78.2378 116.358V130.486L78.4864 130.678V116.216Z" fill="#343444"/>
<path d="M48.553 124.828L43.6895 121.996V129.221L48.553 132.059V124.828Z" fill="#575770"/>
<path d="M44.1035 128.983V122.24L48.5527 124.828V131.571L44.1035 128.983Z" fill="#FCFCFC"/>
<path d="M43.6895 129.221L44.1038 128.983L48.553 131.571V132.059L43.6895 129.221Z" fill="#47475B"/>
<path d="M48.5525 128.418L43.6826 125.605V125.117L48.5525 127.93V128.418Z" fill="#575770"/>
<path d="M44.1035 122.24L48.5527 124.828V126.222L44.1035 123.646V122.24Z" fill="#F9F9F9"/>
<path d="M34.0515 116.39L29.188 113.564V120.789L34.0515 123.621V116.39Z" fill="#575770"/>
<path d="M29.6021 120.545V113.802L34.0513 116.39V123.139L29.6021 120.545Z" fill="#FCFCFC"/>
<path d="M29.188 120.789L29.6023 120.545L34.0515 123.139V123.621L29.188 120.789Z" fill="#47475B"/>
<path d="M34.0515 119.986L29.188 117.173V116.685L34.0515 119.498V119.986Z" fill="#575770"/>
<path d="M29.6021 113.802L34.0513 116.39V117.732L29.6021 115.157V113.802Z" fill="#F9F9F9"/>
<path d="M232.692 93.3803L182.973 122.298V124.706L232.692 153.624L282.405 124.713V122.304L232.692 93.3803Z" fill="#5E86EA"/>
<path opacity="0.15" d="M182.973 122.298L232.692 151.216V153.624L182.973 124.706V122.298Z" fill="black"/>
<path opacity="0.1" d="M232.692 151.216L282.405 122.304V124.713L232.692 153.624V151.216Z" fill="black"/>
<path d="M278.126 113.687L276.161 117.586L276.479 117.749L278.444 113.849L278.126 113.687Z" fill="#575770"/>
<path d="M274.824 112.335L274.521 112.526L276.45 115.643L276.753 115.452L274.824 112.335Z" fill="#575770"/>
<path d="M276.642 113.025V122.426C276.642 122.471 276.61 122.51 276.553 122.548C276.487 122.58 276.415 122.597 276.343 122.597C276.27 122.597 276.198 122.58 276.132 122.548C276.109 122.537 276.089 122.52 276.075 122.499C276.06 122.477 276.051 122.452 276.049 122.426V113.025H276.642Z" fill="#575770"/>
<path d="M283.654 110.096C283.654 110.96 283.399 111.805 282.923 112.523C282.446 113.241 281.769 113.801 280.977 114.131C280.184 114.462 279.312 114.548 278.471 114.379C277.63 114.21 276.858 113.793 276.252 113.182C275.646 112.571 275.234 111.792 275.067 110.944C274.901 110.097 274.988 109.219 275.317 108.421C275.646 107.623 276.202 106.941 276.916 106.462C277.63 105.983 278.468 105.728 279.326 105.73C279.895 105.73 280.458 105.843 280.983 106.062C281.509 106.282 281.986 106.603 282.388 107.009C282.79 107.415 283.109 107.896 283.326 108.426C283.543 108.956 283.655 109.523 283.654 110.096Z" fill="#5E86EA"/>
<path opacity="0.2" d="M280.709 108.979C281.263 107.207 281.863 106.513 281.487 106.301C280.837 105.925 280.1 105.728 279.351 105.73C278.621 105.729 277.902 105.915 277.262 106.269C276.622 106.623 276.081 107.135 275.69 107.756C275.298 108.377 275.069 109.088 275.023 109.822C274.977 110.557 275.116 111.291 275.428 111.956C275.739 112.622 276.212 113.198 276.803 113.63C277.394 114.062 278.084 114.337 278.808 114.429C279.533 114.521 280.269 114.427 280.948 114.156C281.626 113.884 282.226 113.444 282.691 112.877C281.41 113.256 279.982 111.278 280.709 108.979Z" fill="black"/>
<path d="M275.565 111.336C275.565 111.943 275.386 112.537 275.051 113.042C274.716 113.547 274.24 113.94 273.683 114.172C273.125 114.405 272.513 114.465 271.921 114.346C271.33 114.227 270.787 113.934 270.361 113.504C269.935 113.074 269.646 112.527 269.529 111.931C269.412 111.335 269.473 110.717 269.705 110.157C269.937 109.596 270.328 109.117 270.83 108.78C271.332 108.444 271.922 108.265 272.524 108.266C272.924 108.266 273.32 108.346 273.689 108.5C274.059 108.654 274.394 108.881 274.677 109.166C274.959 109.451 275.183 109.789 275.335 110.162C275.488 110.534 275.566 110.933 275.565 111.336Z" fill="#5E86EA"/>
<path opacity="0.2" d="M272.525 108.266C271.884 108.264 271.259 108.466 270.74 108.844C270.657 110.719 272.238 112.543 271.798 113.16C271.358 113.776 270.268 113.397 269.886 112.877C270.155 113.34 270.54 113.724 271.002 113.99C271.465 114.256 271.989 114.395 272.521 114.393C273.054 114.391 273.577 114.248 274.037 113.978C274.498 113.709 274.88 113.322 275.145 112.857C275.411 112.392 275.55 111.864 275.55 111.328C275.55 110.791 275.41 110.264 275.144 109.799C274.878 109.335 274.495 108.948 274.034 108.679C273.574 108.41 273.051 108.268 272.518 108.266H272.525Z" fill="black"/>
<path d="M276.33 113.654C279.417 113.654 281.92 111.133 281.92 108.022C281.92 104.912 279.417 102.39 276.33 102.39C273.243 102.39 270.74 104.912 270.74 108.022C270.74 111.133 273.243 113.654 276.33 113.654Z" fill="#5E86EA"/>
<path opacity="0.1" d="M281.742 109.313C281.528 110.222 281.094 111.063 280.477 111.761C279.86 112.458 279.08 112.99 278.208 113.308C277.336 113.626 276.4 113.72 275.482 113.582C274.565 113.444 273.697 113.078 272.955 112.517C272.214 111.956 271.623 111.218 271.235 110.369C270.848 109.52 270.676 108.588 270.736 107.656C270.795 106.723 271.085 105.821 271.577 105.029C272.07 104.238 272.75 103.582 273.557 103.122C273.074 103.401 272.634 103.749 272.251 104.156C271.975 105.359 272.1 106.619 272.605 107.743C273.111 108.867 273.969 109.793 275.049 110.377C276.128 110.961 277.368 111.171 278.577 110.976C279.787 110.78 280.899 110.189 281.742 109.294V109.313Z" fill="black"/>
<path d="M190.994 113.487L189.03 117.386L189.348 117.549L191.313 113.649L190.994 113.487Z" fill="#575770"/>
<path d="M187.723 112.453L187.419 112.644L189.348 115.761L189.652 115.57L187.723 112.453Z" fill="#575770"/>
<path d="M189.494 112.813V122.214C189.492 122.241 189.484 122.266 189.469 122.287C189.455 122.309 189.434 122.326 189.411 122.336C189.345 122.368 189.273 122.385 189.2 122.385C189.128 122.385 189.056 122.368 188.99 122.336C188.966 122.326 188.944 122.309 188.929 122.288C188.913 122.266 188.903 122.241 188.901 122.214V112.813H189.494Z" fill="#575770"/>
<path d="M196.55 109.884C196.551 110.748 196.298 111.593 195.822 112.312C195.347 113.031 194.67 113.592 193.878 113.924C193.087 114.255 192.215 114.342 191.374 114.175C190.532 114.007 189.759 113.591 189.153 112.981C188.546 112.371 188.132 111.592 187.965 110.745C187.797 109.898 187.882 109.02 188.21 108.221C188.538 107.423 189.094 106.741 189.807 106.26C190.52 105.78 191.358 105.524 192.215 105.524C192.784 105.523 193.348 105.635 193.874 105.854C194.399 106.073 194.877 106.394 195.28 106.799C195.682 107.204 196.002 107.685 196.22 108.214C196.438 108.744 196.55 109.311 196.55 109.884Z" fill="#5E86EA"/>
<path opacity="0.2" d="M193.573 108.773C194.134 106.995 194.727 106.301 194.351 106.089C193.634 105.682 192.816 105.489 191.994 105.533C191.172 105.578 190.379 105.858 189.709 106.34C189.039 106.822 188.52 107.487 188.212 108.256C187.904 109.026 187.82 109.868 187.97 110.683C188.12 111.499 188.498 112.254 189.06 112.861C189.621 113.468 190.343 113.901 191.14 114.109C191.937 114.317 192.776 114.291 193.56 114.036C194.343 113.78 195.038 113.305 195.562 112.665C194.274 113.025 192.853 111.098 193.573 108.773Z" fill="black"/>
<path d="M188.436 111.098C188.436 111.705 188.257 112.299 187.922 112.804C187.587 113.308 187.111 113.702 186.555 113.934C185.998 114.167 185.385 114.227 184.794 114.109C184.203 113.99 183.66 113.698 183.234 113.269C182.808 112.839 182.518 112.293 182.4 111.697C182.283 111.102 182.343 110.484 182.574 109.924C182.804 109.363 183.195 108.883 183.696 108.546C184.197 108.209 184.786 108.029 185.389 108.029C186.197 108.029 186.972 108.352 187.543 108.928C188.115 109.503 188.436 110.284 188.436 111.098Z" fill="#5E86EA"/>
<path opacity="0.2" d="M185.388 108.054C184.75 108.056 184.129 108.258 183.61 108.632C183.527 110.507 185.108 112.338 184.668 112.948C184.228 113.558 183.138 113.185 182.756 112.665C183.024 113.131 183.41 113.517 183.873 113.786C184.337 114.054 184.862 114.195 185.397 114.194C185.932 114.192 186.457 114.05 186.919 113.78C187.382 113.509 187.765 113.121 188.032 112.654C188.299 112.188 188.439 111.658 188.438 111.12C188.437 110.581 188.296 110.052 188.028 109.586C187.76 109.12 187.375 108.733 186.912 108.464C186.448 108.195 185.923 108.054 185.388 108.054Z" fill="black"/>
<path d="M189.201 113.449C192.288 113.449 194.791 110.927 194.791 107.817C194.791 104.706 192.288 102.185 189.201 102.185C186.113 102.185 183.61 104.706 183.61 107.817C183.61 110.927 186.113 113.449 189.201 113.449Z" fill="#5E86EA"/>
<path opacity="0.1" d="M194.638 109.101C194.427 110.014 193.994 110.859 193.378 111.56C192.761 112.262 191.981 112.797 191.107 113.118C190.233 113.438 189.294 113.535 188.374 113.397C187.454 113.26 186.583 112.894 185.839 112.332C185.095 111.77 184.502 111.029 184.113 110.178C183.725 109.327 183.554 108.391 183.615 107.456C183.676 106.522 183.967 105.617 184.463 104.824C184.959 104.031 185.643 103.376 186.453 102.917C185.967 103.191 185.524 103.537 185.14 103.944C185.043 104.365 184.994 104.796 184.994 105.229C184.995 106.354 185.332 107.454 185.961 108.384C186.589 109.315 187.48 110.034 188.519 110.449C189.558 110.864 190.696 110.956 191.787 110.712C192.878 110.468 193.871 109.9 194.638 109.082V109.101Z" fill="black"/>
<path d="M242.7 80.8063L246.875 83.2338V88.0887L242.7 85.6612V80.8063Z" fill="#EBEBEB"/>
<path d="M246.875 83.2338L251.043 80.8063V90.5162L246.875 88.0887V83.2338Z" fill="#F5F5F5"/>
<path d="M246.875 76.6835L242.266 79.355V80.5687L246.875 83.2338L251.477 80.5687V79.355L246.875 76.6835Z" fill="#575770"/>
<path d="M242.266 80.5687L246.875 83.2337V82.02L242.266 79.3549V80.5687Z" fill="#47475B"/>
<path d="M251.477 80.5687L246.875 83.2337V82.02L251.477 79.3549V80.5687Z" fill="#343444"/>
<path d="M243.809 79.3549L246.875 77.5761L249.934 79.3549L246.875 81.1274L243.809 79.3549Z" fill="#5E86EA"/>
<path d="M246.875 77.5761V81.1274L243.809 79.3549L246.875 77.5761Z" fill="#47475B"/>
<path d="M246.875 77.5761L249.934 79.3549L246.875 81.1274V77.5761Z" fill="#343444"/>
<path d="M232.692 129.529V107.842L245.096 115.073V136.76L232.692 129.529Z" fill="#F5F5F5"/>
<path d="M232.692 107.842L245.096 115.073V123.711L232.692 116.493V107.842Z" fill="#EBEBEB"/>
<path d="M269.975 122.298V100.611L257.526 93.3803L245.096 115.073V136.76L269.975 122.298Z" fill="#FCFCFC"/>
<path d="M243.05 118.682L257.526 93.3803V90.9721L240.979 119.89L243.05 118.682Z" fill="#47475B"/>
<path d="M232.692 76.5165L257.526 90.9721L240.978 119.89L232.692 115.073V76.5165Z" fill="#575770"/>
<path d="M257.526 93.3803L272.046 101.819L274.118 100.611L257.526 90.9721V93.3803Z" fill="#343444"/>
<path d="M262.715 112.511L267.585 109.698V116.929L262.715 119.742V112.511Z" fill="#575770"/>
<path d="M267.17 116.685V109.942L262.715 112.511V119.26L267.17 116.685Z" fill="#EBEBEB"/>
<path d="M267.585 116.929L267.17 116.685L262.715 119.26V119.742L267.585 116.929Z" fill="#47475B"/>
<path d="M262.715 116.127L267.585 113.314V112.832L262.715 115.645V116.127Z" fill="#575770"/>
<path d="M247.436 121.392L252.299 118.58V125.811L247.436 128.623V121.392Z" fill="#575770"/>
<path d="M251.885 125.567V118.824L247.436 121.392V128.135L251.885 125.567Z" fill="#EBEBEB"/>
<path d="M252.299 125.811L251.885 125.567L247.436 128.135V128.623L252.299 125.811Z" fill="#47475B"/>
<path d="M247.436 125.008L252.299 122.195V121.707L247.436 124.52V125.008Z" fill="#575770"/>
<path d="M254.416 104.227L260.63 100.611V106.038L254.416 109.647V104.227Z" fill="#575770"/>
<path d="M260.216 105.794V100.855L254.416 104.227V109.165L260.216 105.794Z" fill="#EBEBEB"/>
<path d="M260.63 106.038L260.216 105.794L254.416 109.165V109.647L260.63 106.038Z" fill="#47475B"/>
<path d="M272.047 101.819H269.975V100.611L272.047 101.819Z" fill="black"/>
<path d="M254.052 131.545V117.083L260.993 113.05V127.512L254.052 131.545Z" fill="#47475B"/>
<path d="M260.751 127.32V113.192L254.052 117.083V131.211L260.751 127.32Z" fill="#575770"/>
<path d="M260.994 113.05L260.751 113.192V127.32L260.994 127.512V113.05Z" fill="#343444"/>
<path d="M232.692 129.529V107.842L220.281 115.073V136.76L232.692 129.529Z" fill="#FCFCFC"/>
<path d="M232.692 107.842L220.281 115.073V123.711L232.692 116.493V107.842Z" fill="#F9F9F9"/>
<path d="M195.403 122.298V100.611L207.858 93.3803L220.281 115.073V136.76L195.403 122.298Z" fill="#F2F2F2"/>
<path d="M222.334 118.682L207.858 93.3803V90.9721L224.405 119.89L222.334 118.682Z" fill="#575770"/>
<path d="M232.692 76.5165L207.858 90.9721L224.405 119.89L232.692 115.073V76.5165Z" fill="#47475B"/>
<path d="M207.858 93.3803L193.331 101.819L191.259 100.611L207.858 90.9721V93.3803Z" fill="#343444"/>
<path d="M204.416 113.063L199.546 110.251V117.482L204.416 120.294V113.063Z" fill="#575770"/>
<path d="M199.96 117.238V110.495L204.416 113.063V119.806L199.96 117.238Z" fill="#FCFCFC"/>
<path d="M199.96 110.495L204.416 113.083V113.975L199.96 111.406V110.495Z" fill="#F9F9F9"/>
<path d="M211.663 117.302L216.119 119.89V120.782L211.663 118.214V117.302Z" fill="#F9F9F9"/>
<path d="M199.546 117.482L199.96 117.238L204.416 119.806V120.294L199.546 117.482Z" fill="#47475B"/>
<path d="M204.416 116.679L199.546 113.866V113.378L204.416 116.191V116.679Z" fill="#575770"/>
<path d="M210.962 104.227L204.747 100.611V106.038L210.962 109.647V104.227Z" fill="#575770"/>
<path d="M205.162 105.794V100.855L210.962 104.227V109.165L205.162 105.794Z" fill="#FCFCFC"/>
<path d="M205.162 100.855L210.962 104.227V105.119L205.162 101.767V100.855Z" fill="#F9F9F9"/>
<path d="M204.747 106.038L205.161 105.794L210.962 109.165V109.647L204.747 106.038Z" fill="#47475B"/>
<path d="M193.331 101.819H195.403V100.611L193.331 101.819Z" fill="black"/>
<path d="M216.119 119.89L211.249 117.058V124.289L216.119 127.121V119.89Z" fill="#575770"/>
<path d="M211.663 124.045V117.302L216.119 119.89V126.633L211.663 124.045Z" fill="#FCFCFC"/>
<path d="M211.249 124.289L211.663 124.045L216.119 126.633V127.121L211.249 124.289Z" fill="#47475B"/>
<path d="M216.119 123.48L211.249 120.667V120.185L216.119 122.998V123.48Z" fill="#575770"/>
<path d="M211.663 117.302L216.119 119.89V120.782L211.663 118.214V117.302Z" fill="#F9F9F9"/>
<path d="M240.979 119.89L234.751 116.268V122.934L240.979 126.556V119.89Z" fill="#343444"/>
<path d="M235.133 122.709V116.493L240.979 119.89V126.106L235.133 122.709Z" fill="#FCFCFC"/>
<path d="M235.133 116.493V117.944L240.979 121.341V119.89L235.133 116.493Z" fill="#F5F5F5"/>
<path d="M234.751 122.934L235.133 122.709L240.979 126.106V126.556L234.751 122.934Z" fill="#47475B"/>
<path d="M234.751 119.601L235.133 119.376L240.979 122.78V123.223L234.751 119.601Z" fill="#47475B"/>
<path d="M237.734 124.668L238.116 124.892V118.226L237.734 118.008V124.668Z" fill="#47475B"/>
<path d="M228.434 134.403L229.537 133.761C229.84 131.957 229.885 130.119 229.67 128.302C229.116 124.751 226.713 123.525 225.846 123.878C224.979 124.231 224.769 125.284 226.343 127.333C227.767 129.406 228.5 131.882 228.434 134.403Z" fill="#5E86EA"/>
<g opacity="0.2">
<path opacity="0.2" d="M228.434 134.403L229.537 133.761C229.84 131.957 229.885 130.119 229.67 128.302C229.116 124.751 226.713 123.525 225.846 123.878C224.979 124.231 224.769 125.284 226.343 127.333C227.767 129.406 228.5 131.882 228.434 134.403Z" fill="black"/>
</g>
<path d="M228.835 132.997C228.825 132.995 228.816 132.992 228.807 132.986C228.798 132.981 228.791 132.974 228.785 132.965C228.779 132.957 228.775 132.948 228.772 132.937C228.77 132.927 228.77 132.917 228.772 132.907C229.224 129.58 227.898 125.939 226.407 124.475C226.392 124.459 226.384 124.439 226.384 124.417C226.384 124.396 226.392 124.375 226.407 124.359C226.413 124.351 226.422 124.345 226.431 124.34C226.44 124.336 226.451 124.334 226.461 124.334C226.471 124.334 226.482 124.336 226.491 124.34C226.5 124.345 226.509 124.351 226.515 124.359C228.039 125.856 229.39 129.555 228.925 132.926C228.922 132.947 228.911 132.966 228.894 132.979C228.877 132.992 228.856 132.999 228.835 132.997Z" fill="white"/>
<path d="M225.374 136.188C225.202 136.285 224.839 136.066 224.705 135.97C224.467 135.809 224.275 135.588 224.15 135.328C224.009 135.035 223.96 134.706 224.01 134.384C224.038 134.214 224.078 134.047 224.131 133.883C224.176 133.722 224.22 133.555 224.271 133.395C224.326 133.276 224.355 133.147 224.357 133.016C224.36 132.885 224.335 132.755 224.284 132.634C224.234 132.513 224.159 132.404 224.065 132.314C223.97 132.224 223.858 132.155 223.736 132.111C223.572 132.015 223.433 131.882 223.329 131.723C223.225 131.563 223.159 131.382 223.137 131.192C223.156 130.882 223.28 130.588 223.487 130.357C223.679 130.113 223.902 129.895 224.074 129.645C224.215 129.461 224.287 129.234 224.278 129.002C224.259 128.864 224.214 128.731 224.144 128.611C223.978 128.363 223.835 128.101 223.717 127.827C223.66 127.69 223.642 127.54 223.665 127.394C223.689 127.247 223.753 127.11 223.851 126.999C223.949 126.927 224.06 126.875 224.178 126.846C224.296 126.818 224.419 126.813 224.539 126.832C224.765 126.859 224.983 126.936 225.176 127.057C225.814 127.41 226.164 128.161 226.834 128.437C227.101 128.52 227.374 128.587 227.65 128.636C227.787 128.661 227.918 128.715 228.034 128.795C228.149 128.875 228.246 128.978 228.319 129.099C228.561 129.593 228.109 130.203 228.281 130.723C228.453 131.244 228.88 131.366 229.135 131.789C229.237 131.975 229.277 132.189 229.25 132.4C229.226 132.755 229.14 133.103 228.995 133.427C228.832 133.75 228.645 134.059 228.434 134.352C228.434 134.352 225.4 136.143 225.374 136.188Z" fill="#5E86EA"/>
<g opacity="0.1">
<path opacity="0.1" d="M225.374 136.188C225.202 136.285 224.839 136.066 224.705 135.97C224.467 135.809 224.275 135.588 224.15 135.328C224.009 135.035 223.96 134.706 224.01 134.384C224.038 134.214 224.078 134.047 224.131 133.883C224.176 133.722 224.22 133.555 224.271 133.395C224.326 133.276 224.355 133.147 224.357 133.016C224.36 132.885 224.335 132.755 224.284 132.634C224.234 132.513 224.159 132.404 224.065 132.314C223.97 132.224 223.858 132.155 223.736 132.111C223.572 132.015 223.433 131.882 223.329 131.723C223.225 131.563 223.159 131.382 223.137 131.192C223.156 130.882 223.28 130.588 223.487 130.357C223.679 130.113 223.902 129.895 224.074 129.645C224.215 129.461 224.287 129.234 224.278 129.002C224.259 128.864 224.214 128.731 224.144 128.611C223.978 128.363 223.835 128.101 223.717 127.827C223.66 127.69 223.642 127.54 223.665 127.394C223.689 127.247 223.753 127.11 223.851 126.999C223.949 126.927 224.06 126.875 224.178 126.846C224.296 126.818 224.419 126.813 224.539 126.832C224.765 126.859 224.983 126.936 225.176 127.057C225.814 127.41 226.164 128.161 226.834 128.437C227.101 128.52 227.374 128.587 227.65 128.636C227.787 128.661 227.918 128.715 228.034 128.795C228.149 128.875 228.246 128.978 228.319 129.099C228.561 129.593 228.109 130.203 228.281 130.723C228.453 131.244 228.88 131.366 229.135 131.789C229.237 131.975 229.277 132.189 229.25 132.4C229.226 132.755 229.14 133.103 228.995 133.427C228.832 133.75 228.645 134.059 228.434 134.352C228.434 134.352 225.4 136.143 225.374 136.188Z" fill="black"/>
</g>
<path d="M227.165 135.225C227.155 135.225 227.144 135.223 227.135 135.219C227.125 135.214 227.116 135.208 227.109 135.2C227.102 135.192 227.096 135.183 227.093 135.173C227.089 135.163 227.088 135.152 227.089 135.142C227.216 131.995 225.744 128.521 224.673 127.512C224.665 127.506 224.659 127.498 224.654 127.488C224.65 127.479 224.647 127.468 224.647 127.458C224.647 127.447 224.65 127.437 224.654 127.428C224.659 127.418 224.665 127.41 224.673 127.403C224.68 127.396 224.689 127.39 224.698 127.387C224.707 127.383 224.717 127.381 224.727 127.381C224.737 127.381 224.747 127.383 224.757 127.387C224.766 127.39 224.774 127.396 224.781 127.403C225.871 128.437 227.376 131.963 227.242 135.155C227.24 135.174 227.232 135.192 227.217 135.205C227.203 135.218 227.185 135.225 227.165 135.225Z" fill="white"/>
<path d="M226.7 131.507C225.959 131.3 225.198 131.175 224.431 131.134C224.421 131.134 224.411 131.131 224.402 131.126C224.393 131.122 224.385 131.115 224.378 131.107C224.372 131.1 224.367 131.091 224.364 131.081C224.361 131.071 224.36 131.061 224.361 131.051C224.361 131.041 224.363 131.031 224.367 131.022C224.37 131.013 224.376 131.005 224.383 130.999C224.391 130.992 224.399 130.987 224.408 130.984C224.418 130.981 224.427 130.979 224.437 130.98C225.218 131.017 225.992 131.142 226.745 131.353C226.754 131.356 226.763 131.361 226.771 131.367C226.779 131.373 226.785 131.381 226.79 131.39C226.795 131.399 226.798 131.409 226.799 131.419C226.8 131.429 226.799 131.439 226.796 131.449C226.794 131.46 226.791 131.47 226.785 131.479C226.779 131.489 226.771 131.496 226.762 131.502C226.753 131.507 226.742 131.511 226.732 131.512C226.721 131.513 226.71 131.511 226.7 131.507Z" fill="white"/>
<path d="M254.052 131.545L260.993 127.512L267.221 131.128L260.279 135.161L254.052 131.545Z" fill="#F5F5F5"/>
<path d="M141.802 142.019L81.2144 177.269V179.979L144.135 216.577L204.722 181.334V178.624L141.802 142.019Z" fill="#5E86EA"/>
<path d="M169.765 190.819L176.713 194.91L188.384 188.122L181.417 184.044L169.765 190.819Z" fill="#F5F5F5"/>
<path opacity="0.15" d="M81.2144 177.269L144.135 213.861V216.577L81.2144 179.979V177.269Z" fill="black"/>
<path opacity="0.1" d="M144.134 213.861L204.721 178.624V181.334L144.134 216.577V213.861Z" fill="black"/>
<path d="M197.905 166.618L195.205 171.978L195.643 172.202L198.343 166.842L197.905 166.618Z" fill="#343444"/>
<path d="M192.887 166.164L192.475 166.421L195.108 170.707L195.52 170.45L192.887 166.164Z" fill="#343444"/>
<path d="M195.823 165.684V178.592C195.82 178.629 195.807 178.665 195.786 178.695C195.765 178.725 195.736 178.75 195.702 178.765C195.613 178.811 195.515 178.834 195.415 178.834C195.316 178.834 195.217 178.811 195.128 178.765C195.095 178.75 195.066 178.725 195.045 178.695C195.024 178.665 195.011 178.629 195.007 178.592V165.684H195.823Z" fill="#343444"/>
<path d="M199.559 167.649C202.847 167.649 205.512 164.964 205.512 161.651C205.512 158.338 202.847 155.653 199.559 155.653C196.27 155.653 193.605 158.338 193.605 161.651C193.605 164.964 196.27 167.649 199.559 167.649Z" fill="#575770"/>
<path d="M201.426 160.116C202.191 157.682 203.013 156.726 202.491 156.43C201.698 155.978 200.813 155.716 199.903 155.663C198.994 155.61 198.085 155.768 197.245 156.125C196.406 156.482 195.659 157.028 195.062 157.721C194.466 158.414 194.035 159.236 193.803 160.124C193.571 161.011 193.544 161.941 193.725 162.84C193.905 163.739 194.288 164.585 194.844 165.312C195.4 166.039 196.114 166.628 196.932 167.033C197.749 167.438 198.648 167.649 199.559 167.649C200.437 167.648 201.304 167.452 202.099 167.075C202.893 166.698 203.595 166.148 204.154 165.466C202.389 165.986 200.432 163.276 201.426 160.116Z" fill="#47475B"/>
<path d="M190.182 167.559C192.491 167.559 194.364 165.673 194.364 163.346C194.364 161.02 192.491 159.134 190.182 159.134C187.873 159.134 186 161.02 186 163.346C186 165.673 187.873 167.559 190.182 167.559Z" fill="#575770"/>
<path d="M190.182 159.134C189.305 159.133 188.451 159.411 187.741 159.93C187.626 162.499 189.793 165.01 189.188 165.857C188.582 166.705 187.091 166.185 186.568 165.466C186.937 166.104 187.466 166.634 188.102 167.001C188.738 167.369 189.459 167.561 190.193 167.559C190.926 167.557 191.646 167.361 192.28 166.99C192.915 166.619 193.441 166.087 193.807 165.447C194.172 164.806 194.364 164.08 194.363 163.341C194.362 162.602 194.169 161.877 193.801 161.237C193.434 160.598 192.906 160.067 192.271 159.697C191.636 159.328 190.915 159.134 190.182 159.134Z" fill="#47475B"/>
<path d="M202.878 160.57C203.852 156.414 201.297 152.25 197.171 151.269C193.046 150.288 188.913 152.862 187.939 157.018C186.966 161.174 189.52 165.338 193.646 166.319C197.771 167.3 201.904 164.726 202.878 160.57Z" fill="#575770"/>
<path d="M202.886 160.547C202.588 161.787 201.989 162.933 201.143 163.882C200.296 164.831 199.229 165.554 198.038 165.985C196.846 166.417 195.566 166.543 194.314 166.353C193.061 166.163 191.876 165.663 190.862 164.898C189.849 164.132 189.041 163.125 188.509 161.967C187.978 160.809 187.74 159.536 187.817 158.262C187.894 156.989 188.284 155.755 188.952 154.67C189.619 153.586 190.544 152.686 191.642 152.05C190.976 152.431 190.371 152.91 189.844 153.47C189.708 154.048 189.639 154.641 189.64 155.236C189.629 156.788 190.083 158.308 190.943 159.596C191.803 160.884 193.029 161.88 194.461 162.454C195.892 163.028 197.463 163.153 198.966 162.813C200.469 162.472 201.836 161.682 202.886 160.547Z" fill="#47475B"/>
<path d="M93.1085 165.081L90.4082 170.441L90.8459 170.664L93.5462 165.304L93.1085 165.081Z" fill="#343444"/>
<path d="M88.0994 164.661L87.6875 164.918L90.3213 169.205L90.7332 168.948L88.0994 164.661Z" fill="#343444"/>
<path d="M91.0371 164.162V177.076C91.034 177.113 91.0211 177.148 90.9998 177.177C90.9784 177.206 90.9494 177.229 90.916 177.243C90.8262 177.29 90.7268 177.314 90.626 177.314C90.5251 177.314 90.4257 177.29 90.3359 177.243C90.3041 177.228 90.2768 177.204 90.2567 177.175C90.2365 177.146 90.2243 177.112 90.2212 177.076V164.162H91.0371Z" fill="#343444"/>
<path d="M94.7724 166.14C98.0604 166.14 100.726 163.455 100.726 160.142C100.726 156.829 98.0604 154.144 94.7724 154.144C91.4843 154.144 88.8188 156.829 88.8188 160.142C88.8188 163.455 91.4843 166.14 94.7724 166.14Z" fill="#575770"/>
<path d="M96.6401 158.62C97.405 156.186 98.2273 155.236 97.7046 154.934C96.7181 154.372 95.5929 154.105 94.4612 154.165C93.3295 154.225 92.2383 154.609 91.3158 155.272C90.3933 155.935 89.6778 156.85 89.2535 157.909C88.8291 158.967 88.7135 160.126 88.9202 161.249C89.1269 162.371 89.6473 163.411 90.4203 164.246C91.1933 165.081 92.1868 165.676 93.284 165.962C94.3813 166.248 95.5366 166.212 96.6144 165.859C97.6921 165.506 98.6475 164.85 99.3683 163.969C97.6026 164.477 95.6457 161.767 96.6401 158.62Z" fill="#47475B"/>
<path d="M85.3959 166.05C87.7052 166.05 89.5774 164.164 89.5774 161.837C89.5774 159.511 87.7052 157.625 85.3959 157.625C83.0865 157.625 81.2144 159.511 81.2144 161.837C81.2144 164.164 83.0865 166.05 85.3959 166.05Z" fill="#575770"/>
<path d="M85.415 157.625C84.5362 157.623 83.6795 157.902 82.9673 158.421C82.8589 160.99 85.0261 163.507 84.4206 164.348C83.815 165.19 82.3171 164.676 81.8008 163.957C82.1697 164.595 82.6988 165.125 83.3351 165.492C83.9713 165.86 84.6923 166.052 85.4257 166.05C86.159 166.048 86.879 165.852 87.5133 165.481C88.1476 165.11 88.674 164.578 89.0396 163.937C89.4052 163.297 89.5971 162.571 89.5962 161.832C89.5952 161.093 89.4014 160.367 89.0342 159.728C88.667 159.088 88.1393 158.557 87.5041 158.188C86.8688 157.819 86.1483 157.625 85.415 157.625Z" fill="#47475B"/>
<path d="M96.0591 162.759C99.0562 159.74 99.0562 154.844 96.0591 151.825C93.062 148.805 88.2027 148.805 85.2056 151.825C82.2084 154.844 82.2085 159.74 85.2056 162.759C88.2027 165.779 93.062 165.779 96.0591 162.759Z" fill="#575770"/>
<path d="M98.0995 159.063C97.7997 160.302 97.1995 161.446 96.3528 162.394C95.5061 163.341 94.4393 164.062 93.2479 164.492C92.0566 164.922 90.778 165.048 89.5267 164.857C88.2753 164.667 87.0904 164.167 86.0781 163.402C85.0658 162.637 84.2577 161.631 83.7263 160.474C83.1948 159.317 82.9566 158.045 83.033 156.772C83.1094 155.5 83.498 154.266 84.164 153.182C84.8299 152.098 85.7525 151.197 86.8489 150.561C86.1856 150.945 85.5802 151.423 85.0514 151.98C84.9206 152.559 84.8544 153.152 84.8538 153.746C84.8409 155.299 85.294 156.819 86.1536 158.108C87.0132 159.397 88.2394 160.394 89.6713 160.969C91.1032 161.544 92.674 161.67 94.178 161.329C95.6819 160.989 97.0488 160.199 98.0995 159.063Z" fill="#47475B"/>
<path d="M109.178 169.133L158.113 197.601V154.221L109.178 125.759V169.133Z" fill="#F5F5F5"/>
<path d="M144.134 181.334V205.731L95.1929 177.269V152.866L144.134 181.334Z" fill="#F5F5F5"/>
<path d="M95.1929 161.003L144.128 189.464L144.134 181.334L95.1929 152.866V161.003Z" fill="#EBEBEB"/>
<path d="M109.178 133.889L158.113 162.358V154.221L109.178 125.759V133.889Z" fill="#EBEBEB"/>
<path d="M158.113 154.221L190.737 135.244V178.624L158.113 197.601V154.221Z" fill="#FCFCFC"/>
<path d="M144.134 181.334L158.113 167.778V197.601L144.134 205.731V181.334Z" fill="#FCFCFC"/>
<path d="M174.425 125.759L158.113 154.221L190.737 135.244L174.425 125.759Z" fill="#FCFCFC"/>
<path d="M155.78 158.292L174.425 125.759V123.724L155.78 156.257V158.292Z" fill="#5E86EA"/>
<path opacity="0.1" d="M155.78 158.292L174.425 125.759V123.724L155.78 156.257V158.292Z" fill="black"/>
<path d="M125.482 95.2659L106.84 127.795L155.777 156.26L174.419 123.731L125.482 95.2659Z" fill="#5E86EA"/>
<path d="M106.845 127.795L155.78 156.257V158.292L106.845 129.824V127.795Z" fill="#5E86EA"/>
<path opacity="0.15" d="M106.845 127.795L155.78 156.257V158.292L106.845 129.824V127.795Z" fill="black"/>
<path d="M174.425 123.724L194.816 135.585L193.069 136.606L174.425 125.759V123.724Z" fill="#5E86EA"/>
<path opacity="0.15" d="M174.425 123.724L194.816 135.585L193.069 136.606L174.425 125.759V123.724Z" fill="black"/>
<path d="M193.069 136.606H190.736V135.244L193.069 136.606Z" fill="#5E86EA"/>
<path opacity="0.3" d="M193.069 136.606H190.736V135.244L193.069 136.606Z" fill="black"/>
<path d="M116.681 127.403V117.642L122.265 114.399L127.823 124.102V133.889L116.681 127.403Z" fill="#F5F5F5"/>
<path opacity="0.2" d="M122.264 114.399L115.38 118.406L114.5 117.893L122.264 113.372V114.399Z" fill="black"/>
<path d="M127.823 133.889L133.381 124.167L136.224 119.196L127.823 124.096V133.889Z" fill="#FCFCFC"/>
<path opacity="0.4" d="M115.38 118.406H116.681V117.642L115.38 118.406Z" fill="black"/>
<path d="M129.148 126.408L122.264 114.399V113.372L130.009 126.915L129.148 126.408Z" fill="#5E86EA"/>
<path opacity="0.1" d="M129.148 126.408L122.264 114.399V113.372L130.009 126.915L129.148 126.408Z" fill="black"/>
<path d="M130.009 126.915L122.264 113.372L130.27 108.709L138.015 122.247L130.009 126.915Z" fill="#5E86EA"/>
<path opacity="0.3" d="M130.009 126.915L122.264 113.372L130.27 108.709L138.015 122.247L130.009 126.915Z" fill="white"/>
<path d="M125.037 122.529L119.466 119.286V125.759L125.037 129.002V122.529Z" fill="#575770"/>
<path d="M120.04 125.425V119.62L125.037 122.529V128.341L120.04 125.425Z" fill="#EBEBEB"/>
<path d="M119.466 125.759L120.04 125.425L125.037 128.341V129.002L119.466 125.759Z" fill="#47475B"/>
<path d="M139.985 140.96V131.199L145.562 127.956L151.121 137.653V147.446L139.985 140.96Z" fill="#F5F5F5"/>
<path opacity="0.2" d="M145.562 127.956L138.678 131.956L137.798 131.449L145.562 126.928V127.956Z" fill="black"/>
<path d="M151.121 147.446L156.679 137.723L159.522 132.753L151.121 137.653V147.446Z" fill="#FCFCFC"/>
<path opacity="0.4" d="M138.678 131.956H139.985V131.199L138.678 131.956Z" fill="black"/>
<path d="M152.446 139.964L145.562 127.956V126.928L153.307 140.465L152.446 139.964Z" fill="#5E86EA"/>
<path opacity="0.1" d="M152.446 139.964L145.562 127.956V126.928L153.307 140.465L152.446 139.964Z" fill="black"/>
<path d="M153.307 140.465L145.562 126.928L153.568 122.266L161.313 135.803L153.307 140.465Z" fill="#5E86EA"/>
<path opacity="0.3" d="M153.307 140.465L145.562 126.928L153.568 122.266L161.313 135.803L153.307 140.465Z" fill="white"/>
<path d="M148.335 136.086L142.764 132.843V139.316L148.335 142.559V136.086Z" fill="#575770"/>
<path d="M143.337 138.982V133.177L148.335 136.086V141.891L143.337 138.982Z" fill="#EBEBEB"/>
<path d="M142.764 139.316L143.338 138.982L148.335 141.891V142.559L142.764 139.316Z" fill="#47475B"/>
<path d="M109.178 137.479L158.113 165.947V167.778L141.801 185.399L92.8662 156.937V155.101L109.178 137.479Z" fill="#5E86EA"/>
<path d="M109.178 137.479L158.113 165.947L141.801 183.569L92.8662 155.101L109.178 137.479Z" fill="#5E86EA"/>
<path opacity="0.1" d="M141.801 183.569V185.399L158.113 167.778V165.947L141.801 183.569Z" fill="black"/>
<path opacity="0.15" d="M141.801 185.399L92.8662 156.937V155.101L141.801 183.569V185.399Z" fill="black"/>
<path d="M113.838 169.133L102.186 162.351V174.822L113.838 181.604V169.133Z" fill="#343444"/>
<path d="M102.899 174.405V162.768L113.838 169.133V180.769L102.899 174.405Z" fill="#FCFCFC"/>
<path d="M102.899 162.768V165.485L113.838 171.843V169.133L102.899 162.768Z" fill="#F5F5F5"/>
<path d="M102.186 174.822L102.899 174.405L113.838 180.769V181.604L102.186 174.822Z" fill="#47475B"/>
<path d="M102.186 168.587L102.899 168.169L113.838 174.533V175.368L102.186 168.587Z" fill="#47475B"/>
<path d="M107.77 178.072L108.483 178.489V166.018L107.77 165.601V178.072Z" fill="#47475B"/>
<path d="M134.809 181.334L123.157 174.553V187.024L134.809 193.805V181.334Z" fill="#343444"/>
<path d="M123.877 186.606V174.97L134.809 181.334V192.971L123.877 186.606Z" fill="#FCFCFC"/>
<path d="M123.877 174.97V177.686L134.809 184.044V181.334L123.877 174.97Z" fill="#F5F5F5"/>
<path d="M123.157 187.024L123.877 186.606L134.809 192.971V193.805L123.157 187.024Z" fill="#47475B"/>
<path d="M123.157 180.788L123.877 180.371L134.809 186.735V187.57L123.157 180.788Z" fill="#47475B"/>
<path d="M128.741 190.273L129.461 190.691V178.219L128.741 177.802V190.273Z" fill="#47475B"/>
<path d="M151.121 182.689L162.773 175.914V188.379L151.121 195.16V182.689Z" fill="#343444"/>
<path d="M162.059 187.961V176.325L151.121 182.689V194.326L162.059 187.961Z" fill="#EFEFEF"/>
<path d="M162.059 176.325V177.52L151.121 183.877V182.689L162.059 176.325Z" fill="#EBEBEB"/>
<path d="M162.773 188.379L162.059 187.961L151.121 194.326V195.16L162.773 188.379Z" fill="#47475B"/>
<path d="M162.773 182.143L162.059 181.726L151.121 188.09V188.925L162.773 182.143Z" fill="#47475B"/>
<path d="M157.189 191.628L156.475 192.046V179.575L157.189 179.157V191.628Z" fill="#47475B"/>
<path d="M169.555 142.334L181.207 135.559V148.024L169.555 154.805V142.334Z" fill="#343444"/>
<path d="M180.487 147.607V135.97L169.555 142.334V153.971L180.487 147.607Z" fill="#EFEFEF"/>
<path d="M180.487 135.97V137.165L169.555 143.529V142.334L180.487 135.97Z" fill="#EBEBEB"/>
<path d="M181.207 148.024L180.486 147.607L169.555 153.971V154.805L181.207 148.024Z" fill="#47475B"/>
<path d="M181.207 141.788L180.486 141.371L169.555 147.735V148.57L181.207 141.788Z" fill="#47475B"/>
<path d="M175.623 151.273L174.903 151.691V139.22L175.623 138.802V151.273Z" fill="#47475B"/>
<path d="M169.765 190.819V169.133L181.417 162.358V184.044L169.765 190.819Z" fill="#47475B"/>
<path d="M180.997 183.723V162.602L169.765 169.133V190.254L180.997 183.723Z" fill="#575770"/>
<path d="M181.417 162.358L180.997 162.602V183.723L181.417 184.044V162.358Z" fill="#343444"/>
<path d="M236.242 10.7245C236.208 9.02249 235.776 7.35254 234.981 5.85053C234.186 4.34851 233.05 3.05687 231.665 2.08068C230.39 1.2651 229.173 1.14309 228.274 1.60546C222.888 4.32833 185.044 28.7764 182.622 29.9837H182.59C182.336 30.1548 182.132 30.3905 181.998 30.6667C181.863 30.943 181.804 31.2501 181.825 31.557C181.843 32.4145 182.061 33.2556 182.462 34.0122C182.863 34.7687 183.435 35.4193 184.133 35.911C184.374 36.101 184.661 36.2225 184.965 36.2632C185.269 36.3038 185.578 36.2621 185.86 36.1422H185.892C189.716 34.0166 227.076 17.9812 234.712 13.852C235.617 13.3575 236.191 12.285 236.242 10.7245Z" fill="#5E86EA"/>
<path opacity="0.1" d="M234.757 5.45215C234.007 4.09689 232.947 2.94115 231.665 2.08067C230.391 1.2651 229.18 1.1495 228.287 1.60546L228.179 1.66325C223.258 4.232 195.09 22.3031 185.612 28.1855L185.554 28.2241L185.172 28.4617L185.051 28.5323L184.834 28.6672L184.585 28.8213C183.578 29.4635 182.903 29.8424 182.641 29.9708H182.609C182.528 30.0193 182.453 30.0775 182.386 30.1442C182.207 30.3291 182.067 30.5483 181.974 30.7888C181.881 31.0293 181.837 31.2862 181.844 31.5442C181.832 31.7259 181.832 31.9083 181.844 32.09C181.844 32.1607 181.844 32.2313 181.844 32.302C181.844 32.3726 181.883 32.5267 181.908 32.6359C181.934 32.7451 181.953 32.8157 181.978 32.9056C182.004 32.9955 182.048 33.1111 182.087 33.2203C182.125 33.3295 182.138 33.3744 182.169 33.4515C182.172 33.4642 182.172 33.4773 182.169 33.49L234.757 5.45215Z" fill="black"/>
<path d="M184.12 35.9624C183.425 35.472 182.855 34.8232 182.456 34.0688C182.058 33.3144 181.841 32.4758 181.825 31.6212C181.876 30.0543 182.985 29.4571 184.311 30.2855C185.005 30.7756 185.574 31.4235 185.973 32.1766C186.371 32.9297 186.588 33.7669 186.606 34.6202C186.555 36.1551 185.439 36.7587 184.12 35.9624Z" fill="#5E86EA"/>
<path d="M172.812 36.9771C172.824 37.6337 172.99 38.2781 173.297 38.8574C173.604 39.4368 174.043 39.9346 174.578 40.31C174.762 40.4534 174.98 40.5455 175.21 40.5771C175.441 40.6086 175.676 40.5786 175.891 40.4898L185.044 35.5835C185.239 35.454 185.396 35.2744 185.499 35.0633C185.602 34.8522 185.648 34.6173 185.631 34.3827C185.616 33.7266 185.449 33.0831 185.142 32.5041C184.835 31.9252 184.398 31.427 183.865 31.0497C183.68 30.9056 183.46 30.8136 183.229 30.7832C182.997 30.7527 182.761 30.7848 182.546 30.8763L173.379 35.7698C173.187 35.9022 173.033 36.0838 172.933 36.296C172.834 36.5082 172.792 36.7432 172.812 36.9771Z" fill="#47475B"/>
<path d="M173.379 35.7698C173.182 35.8991 173.023 36.0793 172.919 36.2917C172.815 36.5041 172.769 36.7408 172.786 36.9771C172.78 37.4641 172.873 37.9473 173.06 38.3963L184.866 32.0515C184.6 31.6475 184.255 31.3022 183.852 31.0369C183.667 30.8928 183.447 30.8008 183.216 30.7703C182.984 30.7399 182.748 30.772 182.533 30.8635L173.379 35.7698Z" fill="#343444"/>
<path d="M184.553 45.1649C184.553 39.2568 180.678 33.3423 172.927 28.8341C157.418 19.8435 132.278 19.8435 116.776 28.8341C108.999 33.3423 105.175 39.2504 105.175 45.1649V56.0821C105.175 61.9902 109.057 67.9048 116.808 72.4129C132.31 81.4035 157.45 81.4035 172.959 72.4129C180.71 67.9176 184.585 61.9902 184.585 56.0821V45.1649H184.553ZM118.695 32.1864C125.617 28.1534 134.911 25.9379 144.829 25.9379C154.747 25.9379 164.06 28.1534 170.963 32.1864C177.223 35.8275 180.671 40.4384 180.671 45.1649C180.671 49.8914 177.223 54.5023 170.963 58.1435C164.035 62.17 154.747 64.392 144.829 64.392C134.911 64.392 125.598 62.17 118.695 58.1435C112.435 54.5023 108.999 49.8914 108.999 45.1649C108.999 40.4384 112.435 35.8275 118.695 32.1864Z" fill="#5E86EA"/>
<path opacity="0.3" d="M116.77 61.4958C132.278 70.4864 157.418 70.4864 172.92 61.4958C188.423 52.5052 188.429 37.8505 172.92 28.8342C157.412 19.8179 132.278 19.8436 116.77 28.8342C101.261 37.8248 101.267 52.473 116.77 61.4958ZM108.999 45.165C108.999 40.4385 112.448 35.8276 118.714 32.1864C125.636 28.1534 134.923 25.9379 144.848 25.9379C154.773 25.9379 164.079 28.1534 170.983 32.1864C177.261 35.8276 180.71 40.4577 180.71 45.165C180.71 49.8722 177.261 54.5024 171.002 58.1436C164.079 62.1701 154.786 64.392 144.867 64.392C134.949 64.392 125.636 62.1701 118.733 58.1436C112.429 54.5024 108.999 49.8915 108.999 45.165Z" fill="white"/>
<path d="M109 45.165C109.023 47.0871 109.558 48.9676 110.548 50.6107C112.123 47.8621 114.896 45.287 118.714 43.0714C125.63 39.0449 134.924 36.823 144.848 36.823C154.773 36.823 164.079 39.0449 170.983 43.0714C174.807 45.287 177.567 47.8621 179.154 50.6107C180.14 48.966 180.673 47.0861 180.697 45.165C180.697 40.4385 177.249 35.8276 170.983 32.1799C164.06 28.1599 154.767 25.9379 144.848 25.9379C134.93 25.9379 125.611 28.1599 118.714 32.1799C112.429 35.8276 109 40.4577 109 45.165Z" fill="#5E86EA"/>
<path opacity="0.1" d="M109 45.165C109.023 47.0871 109.558 48.9676 110.548 50.6107C112.123 47.8621 114.896 45.287 118.714 43.0714C125.63 39.0449 134.924 36.823 144.848 36.823C154.773 36.823 164.079 39.0449 170.983 43.0714C174.807 45.287 177.567 47.8621 179.154 50.6107C180.14 48.966 180.673 47.0861 180.697 45.165C180.697 40.4385 177.249 35.8276 170.983 32.1799C164.06 28.1599 154.767 25.9379 144.848 25.9379C134.93 25.9379 125.611 28.1599 118.714 32.1799C112.429 35.8276 109 40.4577 109 45.165Z" fill="black"/>
<path opacity="0.45" d="M118.694 37.1119C125.617 33.0854 134.904 30.8699 144.829 30.8699C154.754 30.8699 164.06 33.0854 170.963 37.1119C176.133 40.1174 179.377 43.7842 180.352 47.6309C179.377 51.4841 176.133 55.1381 170.963 58.1435C164.041 62.17 154.747 64.392 144.829 64.392C134.911 64.392 125.598 62.17 118.694 58.1435C113.525 55.1381 110.28 51.4776 109.305 47.6309C110.274 43.7842 113.525 40.1174 118.694 37.1119Z" fill="white"/>
<path opacity="0.1" d="M135.491 67.6158V78.4944C128.632 77.5311 122.105 75.5018 116.776 72.3808C108.999 67.8727 105.175 61.9581 105.175 56.05V45.1328C105.177 43.9266 105.337 42.7259 105.653 41.5623C103.741 48.6263 107.489 56.0372 116.802 61.4701C122.13 64.6168 128.632 66.6461 135.491 67.6158Z" fill="black"/>
</g>
<defs>
<clipPath id="clip0_1109_11726">
<rect width="295" height="227" fill="white"/>
</clipPath>
</defs>
</svg>
