<svg width="24" height="24" viewBox="0 0 24 24" fill="none" xmlns="http://www.w3.org/2000/svg">
<path d="M8.25024 16.8L12.0002 13.05L15.7502 16.8L16.8002 15.75L13.0502 12L16.8002 8.25L15.7502 7.2L12.0002 10.95L8.25024 7.2L7.20024 8.25L10.9502 12L7.20024 15.75L8.25024 16.8ZM12.0002 22C10.6336 22 9.34191 21.7375 8.12524 21.2125C6.90858 20.6875 5.84608 19.9708 4.93774 19.0625C4.02941 18.1542 3.31274 17.0917 2.78774 15.875C2.26274 14.6583 2.00024 13.3667 2.00024 12C2.00024 10.6167 2.26274 9.31667 2.78774 8.1C3.31274 6.88333 4.02941 5.825 4.93774 4.925C5.84608 4.025 6.90858 3.3125 8.12524 2.7875C9.34191 2.2625 10.6336 2 12.0002 2C13.3836 2 14.6836 2.2625 15.9002 2.7875C17.1169 3.3125 18.1752 4.025 19.0752 4.925C19.9752 5.825 20.6877 6.88333 21.2127 8.1C21.7377 9.31667 22.0002 10.6167 22.0002 12C22.0002 13.3667 21.7377 14.6583 21.2127 15.875C20.6877 17.0917 19.9752 18.1542 19.0752 19.0625C18.1752 19.9708 17.1169 20.6875 15.9002 21.2125C14.6836 21.7375 13.3836 22 12.0002 22ZM12.0002 20.5C14.3669 20.5 16.3752 19.6708 18.0252 18.0125C19.6752 16.3542 20.5002 14.35 20.5002 12C20.5002 9.63333 19.6752 7.625 18.0252 5.975C16.3752 4.325 14.3669 3.5 12.0002 3.5C9.65024 3.5 7.64608 4.325 5.98774 5.975C4.32941 7.625 3.50024 9.63333 3.50024 12C3.50024 14.35 4.32941 16.3542 5.98774 18.0125C7.64608 19.6708 9.65024 20.5 12.0002 20.5Z" fill="#3859CF"/>
</svg>
