<svg width="24" height="24" viewBox="0 0 24 24" fill="none" xmlns="http://www.w3.org/2000/svg">
<path d="M20.0781 10.6388C19.8106 10.6388 19.4048 10.6249 18.856 10.5973C18.3072 10.5696 17.717 10.5396 17.0806 10.505C16.4442 10.4705 15.817 10.4428 15.1967 10.4266C14.5765 10.4105 14.0669 10.4082 13.6588 10.4266C13.8893 9.87787 14.1545 9.27375 14.4566 8.58201C14.7586 7.89027 15.0469 7.23082 15.3305 6.56675C15.6141 5.90268 15.8746 5.28242 16.1121 4.69906C16.3496 4.11569 16.541 3.63839 16.684 3.26716C17.5117 3.26451 18.339 3.30375 19.1627 3.38476C19.9305 3.46546 20.6061 3.54847 21.1918 3.63839C21.8344 3.73422 22.4711 3.86663 23.0987 4.03499L24.0002 2.23186C23.878 2.10735 23.5391 1.97592 22.9811 1.83296C22.297 1.67003 21.6042 1.54685 20.9059 1.46403C20.0881 1.35796 19.1796 1.28264 18.1804 1.23806C17.1812 1.19348 16.1821 1.1981 15.1829 1.2519C14.5119 1.26804 13.7994 1.29571 13.0616 1.33029C12.3061 1.36543 11.5537 1.4486 10.8088 1.57932C10.0499 1.71408 9.30108 1.90052 8.56758 2.13732C7.83217 2.3719 7.12886 2.69722 6.47392 3.10576C5.81123 3.51954 5.20907 4.02315 4.68462 4.60221C4.11379 5.2432 3.65259 5.97395 3.31959 6.76505C3.11657 7.17045 3.04639 7.6295 3.11899 8.07704C3.19099 8.45655 3.34872 8.8146 3.58015 9.12387C3.81419 9.42675 4.10275 9.68325 4.43099 9.88017C4.73425 10.072 5.05937 10.2268 5.39942 10.3413C5.66382 10.4327 5.9431 10.4734 6.22259 10.4612C6.45317 10.4428 6.59843 10.3552 6.63302 10.1961C6.82606 9.21407 7.17975 8.27064 7.67985 7.40375C8.12482 6.628 8.65876 5.90679 9.27084 5.25475C9.77752 4.70411 10.3682 4.23717 11.0209 3.87128C11.4883 3.58309 12.0238 3.42396 12.5727 3.41012C12.3791 3.85053 12.1346 4.38086 11.8441 5.00112C11.5536 5.62137 11.2377 6.2693 10.901 6.94951C10.5644 7.62972 10.2347 8.33068 9.91646 9.02011C9.59827 9.70954 9.2939 10.3459 9.02874 10.9293C8.41386 11.123 7.78207 11.3482 7.13337 11.6049C6.47679 11.8684 5.84223 12.1838 5.23571 12.548C5.00513 12.6702 4.73304 12.8247 4.41484 13.0091C4.05765 13.2211 3.71206 13.452 3.37954 13.7009C2.97453 14.0073 2.58945 14.3393 2.22665 14.6947C1.77329 15.1285 1.35824 15.6006 0.986132 16.1058C0.697943 16.4769 0.464951 16.8878 0.294394 17.3256C0.122062 17.7444 0.0230077 18.1898 0.00155868 18.6422C-0.0116542 19.1026 0.0748698 19.5604 0.255196 19.9842C0.472681 20.4789 0.786172 20.9257 1.17751 21.2985L1.86925 21.8288C2.49631 22.2575 3.20135 22.5591 3.94446 22.7165C4.55591 22.8328 5.18534 22.8147 5.7891 22.6635C6.38468 22.5077 6.94036 22.2271 7.41929 21.8403C7.94954 21.4177 8.4265 20.9322 8.83966 20.3946C9.04144 20.1081 9.22252 19.8076 9.38152 19.4953C9.62132 19.0526 9.89571 18.5146 10.2047 17.8813C10.5137 17.2479 10.8449 16.5455 11.1985 15.7738C11.5513 14.9944 11.9156 14.1828 12.2845 13.3342C12.8191 13.2554 13.3583 13.2107 13.8986 13.2005C14.535 13.1821 15.1798 13.1821 15.8331 13.2005C16.488 13.219 17.1013 13.2397 17.6778 13.2674C18.2542 13.2951 18.6969 13.3158 19.0151 13.3342C19.1426 13.3522 19.2725 13.3264 19.3834 13.2611C19.4944 13.1958 19.58 13.0948 19.6262 12.9745C19.7747 12.677 19.8818 12.3604 19.9444 12.0338C20.0207 11.5724 20.0654 11.1063 20.0781 10.6388ZM6.20875 17.2149C5.96203 17.6023 5.70378 17.9827 5.43862 18.354C5.19735 18.6989 4.92738 19.0229 4.63159 19.3224C4.39163 19.5699 4.1194 19.784 3.82226 19.9588C3.59221 20.1012 3.32096 20.1621 3.05212 20.1317C2.91147 20.1133 2.82154 19.998 2.80079 19.7859C2.77909 19.5271 2.80647 19.2666 2.88149 19.018C2.97651 18.6723 3.1007 18.3352 3.25273 18.0104C3.43199 17.619 3.64899 17.246 3.90065 16.8967C4.2697 16.4252 4.67772 15.9855 5.12042 15.5824C5.47641 15.2605 5.85814 14.9682 6.26178 14.7085C6.55931 14.5157 6.87428 14.3513 7.20255 14.2174C7.40846 14.1271 7.62847 14.0733 7.85278 14.0583C7.37341 15.1448 6.82425 16.1992 6.20875 17.2149Z" fill="white"/>
<path d="M21.4154 17.2302C21.2575 17.0264 21.0536 16.8629 20.8205 16.7529C20.5701 16.6577 20.3012 16.6212 20.0346 16.6464C19.7679 16.6716 19.5106 16.7577 19.2825 16.8982C18.7397 17.2039 18.3181 17.6865 18.0881 18.2655C17.9522 18.5628 17.8672 18.8808 17.8368 19.2063C17.8084 19.4986 17.8263 19.7935 17.8898 20.0802C17.9473 20.3446 18.0605 20.5938 18.2218 20.8111C18.3787 21.0215 18.5888 21.1863 18.8306 21.2884C19.0786 21.3924 19.3481 21.4345 19.616 21.4112C19.8839 21.3879 20.1422 21.2999 20.3685 21.1547C20.9136 20.8371 21.3415 20.3518 21.5883 19.7712C21.7096 19.4702 21.7872 19.1534 21.8189 18.8304C21.846 18.5374 21.8281 18.2419 21.7658 17.9542C21.7049 17.6896 21.5851 17.4422 21.4154 17.2302Z" fill="white"/>
</svg>
