<svg width="24" height="24" viewBox="0 0 24 24" fill="none" xmlns="http://www.w3.org/2000/svg">
<path d="M4.66939 9.85815H19.3312C19.7583 9.85815 20.1679 10.0278 20.4699 10.3298C20.7719 10.6318 20.9415 11.0414 20.9415 11.4685V12.185H3.05908V11.4685C3.05908 11.0414 3.22874 10.6318 3.53073 10.3298C3.83272 10.0278 4.24231 9.85815 4.66939 9.85815V9.85815Z" stroke="#3859CF" stroke-width="1.2" stroke-linecap="round" stroke-linejoin="round"/>
<path d="M4.94312 9.6491C5.12051 7.90075 5.94056 6.28049 7.24438 5.10227C8.5482 3.92404 10.243 3.27173 12.0003 3.27173C13.7576 3.27173 15.4524 3.92404 16.7562 5.10227C18.06 6.28049 18.8801 7.90075 19.0574 9.6491" stroke="#3859CF" stroke-width="1.2" stroke-linecap="round" stroke-linejoin="round"/>
<path d="M6.97217 8.11917C7.30285 7.3865 7.7899 6.73511 8.39914 6.21072C9.00837 5.68633 9.72501 5.30167 10.4987 5.08374" stroke="#3859CF" stroke-width="1.2" stroke-linecap="round" stroke-linejoin="round"/>
<path d="M12.8821 22.0001C13.4859 20.9454 15.8289 19.633 16.5214 19.8262C17.2138 20.0195 18.027 21.9035 18.027 21.9035" stroke="#3859CF" stroke-width="1.2" stroke-linecap="round" stroke-linejoin="round"/>
<path d="M12.9975 21.6376L12.3265 20.905C11.9721 20.5518 11.6513 20.1663 11.3684 19.7536C10.7082 18.8679 10.0802 17.4992 9.45215 16.6296C8.82413 15.76 7.25408 14.3108 7.35875 13.9968C7.42553 13.8723 7.51901 13.7642 7.63247 13.6801C7.74594 13.596 7.87659 13.538 8.01508 13.5103C8.15357 13.4826 8.29647 13.4859 8.43356 13.5199C8.57064 13.5538 8.69851 13.6177 8.80802 13.7069C9.58097 14.1417 11.924 16.6296 12.7291 16.9275C12.9738 16.9838 13.228 16.9848 13.4731 16.9306C13.7182 16.8764 13.9482 16.7682 14.1464 16.6141C14.3445 16.4599 14.5058 16.2635 14.6186 16.0392C14.7314 15.8148 14.7928 15.5682 14.7984 15.3172C14.7984 14.1336 15.4988 13.3607 15.99 13.5217C16.4811 13.6827 16.4167 14.3269 16.2637 15.132C16.142 15.776 16.2091 16.4415 16.457 17.0483C16.5404 17.3598 16.5605 17.6849 16.5163 18.0043C16.472 18.3237 16.3643 18.6311 16.1993 18.9082L15.4334 20.0528" stroke="#3859CF" stroke-width="1.2" stroke-linecap="round" stroke-linejoin="round"/>
<path d="M9.22656 13.9003C9.22656 13.9003 9.22656 12.9502 9.9673 13.0951C10.708 13.24 11.3039 15.5911 11.5776 16.0581" stroke="#3859CF" stroke-width="1.2" stroke-linecap="round" stroke-linejoin="round"/>
<path d="M12.0044 3.61031C12.449 3.61031 12.8095 3.24983 12.8095 2.80515C12.8095 2.36048 12.449 2 12.0044 2C11.5597 2 11.1992 2.36048 11.1992 2.80515C11.1992 3.24983 11.5597 3.61031 12.0044 3.61031Z" fill="#3859CF"/>
</svg>
