<svg width="" height="" viewBox="0 0 80 80" fill="none" xmlns="http://www.w3.org/2000/svg">
<rect width="" height="" rx="4" fill="white"/>
<path d="M53.5 17.5H26.5C25 17.5 23.5 19 23.5 20.5V41.5C23.5 43.15 24.85 44.5 26.5 44.5H53.5C55 44.5 56.5 43 56.5 41.5V20.5C56.5 19 55 17.5 53.5 17.5ZM53.5 41.38C53.47 41.425 53.41 41.47 53.38 41.5H26.5V20.62L26.62 20.5H53.365C53.41 20.53 53.455 20.59 53.485 20.62V41.38H53.5ZM38.5 36.265L34.75 31.75L29.5 38.5H50.5L43.75 29.5L38.5 36.265Z" fill="#DDE4E9"/>
<path d="M30.2986 62.5918V64H25.0555V56.0771H26.7576V62.5918H30.2986ZM34.4967 55.9473C35.6952 55.9473 36.6454 56.3141 37.3473 57.0479C38.0491 57.7816 38.4 58.7796 38.4 60.042C38.4 61.3044 38.0491 62.3024 37.3473 63.0361C36.65 63.7699 35.6998 64.1367 34.4967 64.1367C33.289 64.1367 32.3342 63.7699 31.6324 63.0361C30.9306 62.3024 30.5797 61.3044 30.5797 60.042C30.5797 58.7796 30.9306 57.7816 31.6324 57.0479C32.3388 56.3141 33.2936 55.9473 34.4967 55.9473ZM36.0758 58.0938C35.6839 57.6107 35.1575 57.3691 34.4967 57.3691C33.8359 57.3691 33.3072 57.6107 32.9107 58.0938C32.5188 58.5723 32.3229 59.2217 32.3229 60.042C32.3229 60.8577 32.5188 61.5072 32.9107 61.9902C33.3027 62.4733 33.8313 62.7148 34.4967 62.7148C35.1575 62.7148 35.6839 62.4733 36.0758 61.9902C36.4677 61.5072 36.6637 60.8577 36.6637 60.042C36.6637 59.2217 36.4677 58.5723 36.0758 58.0938ZM46.6312 60.6709C46.6312 61.751 46.3122 62.5986 45.6742 63.2139C45.0408 63.8291 44.1612 64.1367 43.0355 64.1367C41.8233 64.1367 40.8686 63.7721 40.1713 63.043C39.474 62.3138 39.1254 61.3044 39.1254 60.0146C39.1254 58.7477 39.4717 57.7542 40.1645 57.0342C40.8572 56.3096 41.8028 55.9473 43.0014 55.9473C43.9447 55.9473 44.7423 56.1979 45.3939 56.6992C46.0502 57.196 46.4376 57.8454 46.5561 58.6475H44.8471C44.724 58.2419 44.4984 57.9251 44.1703 57.6973C43.8467 57.4694 43.4571 57.3555 43.0014 57.3555C42.3314 57.3555 41.8074 57.5879 41.4291 58.0527C41.0554 58.5176 40.8686 59.167 40.8686 60.001C40.8686 60.8441 41.0645 61.5094 41.4564 61.9971C41.8529 62.4847 42.3884 62.7285 43.0629 62.7285C43.6143 62.7285 44.0632 62.5804 44.4096 62.2842C44.7605 61.988 44.9451 61.6006 44.9633 61.1221L44.9701 60.999H43.2133V59.7617H46.6312V60.6709ZM51.2873 55.9473C52.4859 55.9473 53.4361 56.3141 54.1379 57.0479C54.8397 57.7816 55.1906 58.7796 55.1906 60.042C55.1906 61.3044 54.8397 62.3024 54.1379 63.0361C53.4406 63.7699 52.4904 64.1367 51.2873 64.1367C50.0796 64.1367 49.1249 63.7699 48.423 63.0361C47.7212 62.3024 47.3703 61.3044 47.3703 60.042C47.3703 58.7796 47.7212 57.7816 48.423 57.0479C49.1294 56.3141 50.0842 55.9473 51.2873 55.9473ZM52.8664 58.0938C52.4745 57.6107 51.9481 57.3691 51.2873 57.3691C50.6265 57.3691 50.0979 57.6107 49.7014 58.0938C49.3094 58.5723 49.1135 59.2217 49.1135 60.042C49.1135 60.8577 49.3094 61.5072 49.7014 61.9902C50.0933 62.4733 50.6219 62.7148 51.2873 62.7148C51.9481 62.7148 52.4745 62.4733 52.8664 61.9902C53.2583 61.5072 53.4543 60.8577 53.4543 60.042C53.4543 59.2217 53.2583 58.5723 52.8664 58.0938Z" fill="#DDE4E9"/>
</svg>
