<svg width="7" height="10" viewBox="0 0 7 10" fill="none" xmlns="http://www.w3.org/2000/svg">
<path d="M1.10799 9.97754C1.32381 9.97754 1.5009 9.90007 1.64478 9.75619L5.88924 5.61133C6.07739 5.42318 6.17147 5.22949 6.17147 4.99154C6.17147 4.75358 6.08293 4.55436 5.88924 4.37175L1.64478 0.221354C1.49536 0.077474 1.31828 0 1.10799 0C0.681885 0 0.333252 0.343099 0.333252 0.769206C0.333252 0.979492 0.421794 1.17871 0.576742 1.33366L4.33976 4.99154L0.576742 8.64388C0.421794 8.79883 0.333252 8.99805 0.333252 9.20833C0.333252 9.63444 0.681885 9.97754 1.10799 9.97754Z" fill="#9898AF"/>
</svg>
