<svg width="24" height="24" viewBox="0 0 24 24" fill="none" xmlns="http://www.w3.org/2000/svg">
<g clip-path="url(#clip0_2365_29350)">
<path d="M3.45271 9.20755H20.632C21.1324 9.20755 21.6123 9.40634 21.9661 9.76018C22.32 10.114 22.5187 10.5939 22.5187 11.0943V11.934H1.56592V11.0943C1.56592 10.5939 1.7647 10.114 2.11855 9.76018C2.47239 9.40634 2.9523 9.20755 3.45271 9.20755V9.20755Z" stroke="#101010" stroke-width="1.2" stroke-linecap="round" stroke-linejoin="round"/>
<path d="M3.77344 8.96228C3.98128 6.91375 4.94214 5.01529 6.46982 3.63477C7.99751 2.25424 9.98326 1.48993 12.0423 1.48993C14.1014 1.48993 16.0871 2.25424 17.6148 3.63477C19.1425 5.01529 20.1033 6.91375 20.3112 8.96228" stroke="#101010" stroke-width="1.2" stroke-linecap="round" stroke-linejoin="round"/>
<path d="M6.15088 7.16982C6.53833 6.31136 7.10902 5.54812 7.82286 4.9337C8.53669 4.31928 9.37638 3.86857 10.283 3.61322" stroke="#101010" stroke-width="1.2" stroke-linecap="round" stroke-linejoin="round"/>
<path d="M13.0754 23.434C13.783 22.1981 16.5283 20.6604 17.3396 20.8868C18.1509 21.1132 19.1037 23.3207 19.1037 23.3207" stroke="#101010" stroke-width="1.2" stroke-linecap="round" stroke-linejoin="round"/>
<path d="M16.9622 19.8113C17.1555 19.4866 17.2818 19.1265 17.3336 18.7522C17.3854 18.378 17.3618 17.9971 17.2641 17.6321C16.9737 16.9212 16.895 16.1414 17.0377 15.3868C17.217 14.4434 17.2924 13.6887 16.717 13.5C16.1415 13.3113 15.3207 14.217 15.3207 15.6038C15.3142 15.8979 15.2423 16.1869 15.1101 16.4497C14.978 16.7125 14.789 16.9426 14.5568 17.1233C14.3246 17.304 14.0552 17.4307 13.7679 17.4942C13.4807 17.5577 13.1829 17.5565 12.8962 17.4906C11.9528 17.1415 9.20752 14.2264 8.30186 13.717C8.17354 13.6125 8.02372 13.5377 7.8631 13.4978C7.70248 13.458 7.53504 13.4542 7.37277 13.4866C7.2105 13.5191 7.05741 13.587 6.92447 13.6856C6.79152 13.7841 6.682 13.9108 6.60375 14.0566C6.4811 14.4245 8.32073 16.1227 9.05658 17.1415C9.79243 18.1604 10.5283 19.7642 11.3019 20.8019C11.6333 21.2855 12.0092 21.7371 12.4245 22.151" stroke="#101010" stroke-width="1.2" stroke-linecap="round" stroke-linejoin="round"/>
<path d="M8.79224 13.9434C8.79224 13.9434 8.79224 12.8302 9.66016 13C10.5281 13.1698 11.2262 15.9245 11.547 16.4717" stroke="#101010" stroke-width="1.2" stroke-linecap="round" stroke-linejoin="round"/>
<path d="M12.0472 1.88679C12.5682 1.88679 12.9906 1.46442 12.9906 0.943396C12.9906 0.422373 12.5682 0 12.0472 0C11.5261 0 11.1038 0.422373 11.1038 0.943396C11.1038 1.46442 11.5261 1.88679 12.0472 1.88679Z" fill="#101010"/>
</g>
<defs>
<clipPath id="clip0_2365_29350">
<rect width="24" height="24" fill="white"/>
</clipPath>
</defs>
</svg>
