<svg width="32" height="32" viewBox="0 0 32 32" fill="none" xmlns="http://www.w3.org/2000/svg">
<path d="M16 31.5C24.5604 31.5 31.5 24.5604 31.5 16C31.5 7.43959 24.5604 0.5 16 0.5C7.43959 0.5 0.5 7.43959 0.5 16C0.5 24.5604 7.43959 31.5 16 31.5Z" fill="#F84E27" stroke="white"/>
<g clip-path="url(#clip0_2403_29360)">
<path d="M15.1631 4.75C15.7781 4.95157 16.3371 5.29507 16.7947 5.75271C17.2523 6.21036 17.5958 6.7693 17.7974 7.38433C17.9355 7.91051 17.9646 8.45935 17.883 8.99718C17.8013 9.53501 17.6107 10.0505 17.3227 10.512C16.9689 9.95349 15.7216 9.36705 15.5354 8.37104C15.4982 7.66718 15.4982 6.96185 15.5354 6.25799C15.4916 5.73884 15.3659 5.2299 15.1631 4.75V4.75Z" fill="white"/>
<path d="M18.0488 12.895C17.4433 12.9917 16.8239 12.9534 16.2349 12.7828C15.6459 12.6123 15.1019 12.3136 14.6418 11.9083C14.2326 11.5228 13.9079 11.0565 13.6884 10.5389C13.4689 10.0213 13.3593 9.46377 13.3666 8.90161C13.8403 9.26606 14.3522 9.57817 14.8932 9.83247C15.824 10.2514 16.1964 10.242 16.699 10.5492C17.4902 11.024 17.6206 12.141 18.0488 12.895Z" fill="white"/>
<path d="M18.151 12.858C18.731 12.6832 19.2565 12.3627 19.6776 11.9271C20.7481 10.6891 20.8877 8.74358 20.0313 6.87256C19.8521 7.3187 19.6405 7.75115 19.3983 8.16645C18.756 9.26486 18.272 9.51619 18.002 10.1585C17.7321 10.8008 18.1603 11.9271 18.151 12.858Z" fill="white"/>
<path d="M19.1564 16.274C18.6351 15.52 18.6165 14.9149 18.1045 14.4123C17.3412 13.6676 16.6059 13.6583 15.7681 13.1835C15.1258 12.8298 14.6138 12.5319 14.3066 12.3272C14.3208 13.0935 14.5386 13.8423 14.9378 14.4966C15.3369 15.151 15.903 15.6873 16.5779 16.0506C17.3354 16.4163 18.1899 16.5304 19.0168 16.3764C19.5314 17.8195 20.545 19.0312 21.8745 19.7926C22.7957 20.2991 23.8299 20.5648 24.8812 20.5652C24.7965 20.4312 24.7366 20.283 24.7043 20.1277C24.6832 19.9702 24.6832 19.8105 24.7043 19.653C23.573 19.7436 22.4421 19.4735 21.4738 18.8815C20.5055 18.2895 19.7497 17.406 19.3147 16.3578C20.2832 15.9328 21.0525 15.1535 21.4649 14.1796C21.6758 13.6145 21.7641 13.011 21.724 12.4092C21.6839 11.8073 21.5163 11.2209 21.2322 10.6888C21.1019 10.9216 20.8971 11.266 20.6179 11.6662C19.8546 12.7367 19.3705 12.9694 19.0633 13.528C18.8715 13.9632 18.7802 14.4362 18.7963 14.9116C18.8124 15.387 18.9355 15.8527 19.1564 16.274V16.274Z" fill="white"/>
<path d="M7.02148 14.8123C7.65595 14.6845 8.31159 14.7078 8.93537 14.8804C9.55915 15.053 10.1335 15.3699 10.6121 15.8057C10.9916 16.1954 11.2875 16.6586 11.4816 17.1668C11.6757 17.675 11.7639 18.2175 11.7408 18.761C11.1578 18.4494 9.7834 18.554 9.13044 17.7792C8.75106 17.1852 8.40337 16.5715 8.08881 15.9407C7.79473 15.5107 7.43451 15.1298 7.02148 14.8123V14.8123Z" fill="white"/>
<path d="M13.548 20.4764C13.0689 20.859 12.5111 21.131 11.9145 21.273C11.318 21.4149 10.6975 21.4232 10.0974 21.2973C9.55129 21.1637 9.03893 20.918 8.59279 20.5759C8.14665 20.2338 7.77645 19.8027 7.50567 19.31C8.09755 19.3935 8.69674 19.4128 9.29277 19.3674C10.3092 19.273 10.6285 19.0813 11.2173 19.1008C12.1397 19.1238 12.8038 20.0314 13.548 20.4764Z" fill="white"/>
<path d="M13.6183 20.3937C14.0368 19.9557 14.3361 19.4178 14.4877 18.8313C14.8088 17.2264 13.9713 15.4649 12.3038 14.2592C12.3679 14.7357 12.397 15.2162 12.3909 15.697C12.3736 16.9693 12.0763 17.4266 12.1581 18.1185C12.2398 18.8104 13.1676 19.5793 13.6183 20.3937Z" fill="white"/>
<path d="M16.1769 22.8703C15.3517 22.4713 15.0372 21.954 14.344 21.769C13.3127 21.4974 12.6683 21.8518 11.7054 21.8517C10.9722 21.8606 10.3799 21.8538 10.0117 21.827C10.4018 22.4868 10.9604 23.0309 11.6303 23.4035C12.3001 23.776 13.057 23.9636 13.8233 23.947C14.6626 23.8918 15.4624 23.5699 16.1059 23.0282C17.265 24.0302 18.7442 24.5847 20.2763 24.5918C21.3275 24.5784 22.3583 24.2998 23.2731 23.7819C23.1333 23.7071 23.0082 23.6076 22.9036 23.4884C22.8076 23.3618 22.7289 23.2229 22.6696 23.0754C21.7299 23.7119 20.6128 24.0344 19.4785 23.9967C18.3442 23.9589 17.2511 23.5628 16.3559 22.8652C16.9891 22.018 17.2743 20.9607 17.153 19.91C17.0579 19.3144 16.8373 18.7458 16.5057 18.242C16.1741 17.7381 15.7392 17.3106 15.2298 16.9876C15.2311 17.2544 15.2227 17.655 15.177 18.1409C15.0406 19.4485 14.7342 19.8896 14.7422 20.527C14.7899 21.0003 14.9436 21.4568 15.192 21.8625C15.4404 22.2682 15.777 22.6126 16.1769 22.8703V22.8703Z" fill="white"/>
</g>
<defs>
<clipPath id="clip0_2403_29360">
<rect width="22.5" height="22.5" fill="white" transform="translate(4.75 4.75)"/>
</clipPath>
</defs>
</svg>
