<svg width="32" height="32" viewBox="0 0 32 32" fill="none" xmlns="http://www.w3.org/2000/svg">
<path d="M16 31.5C24.5604 31.5 31.5 24.5604 31.5 16C31.5 7.43959 24.5604 0.5 16 0.5C7.43959 0.5 0.5 7.43959 0.5 16C0.5 24.5604 7.43959 31.5 16 31.5Z" fill="#F84E27" stroke="white"/>
<path d="M11.18 15.9318C11.1629 16.7794 10.9815 17.6156 10.6458 18.394C10.2896 19.2845 9.94115 19.7606 9.60046 19.8226H7.86992C7.57956 19.8226 7.2079 19.8226 6.77816 19.8226L6 19.9271L6.4065 18.4637C7.14983 18.394 7.67247 18.3592 7.98606 18.3592H9.39141C9.80952 18.1269 10.0186 17.3952 10.0186 16.1757C10.0186 14.9562 9.56562 14.3638 8.6597 14.3638H7.49826C7.23409 14.3902 6.96742 14.3545 6.71943 14.2598C6.47145 14.165 6.24897 14.0137 6.06969 13.8179C6.19744 13.4695 6.4065 12.9585 6.68525 12.25H6.97561C7.08266 12.4601 7.25111 12.6326 7.45857 12.7446C7.66604 12.8566 7.90268 12.9029 8.13705 12.8772H8.99652C10.4522 12.8927 11.18 13.9109 11.18 15.9318Z" fill="white"/>
<path d="M12.864 16.257C12.8633 16.3991 12.8095 16.5359 12.713 16.6403C12.6645 16.6892 12.6065 16.7278 12.5426 16.7538C12.4788 16.7797 12.4103 16.7925 12.3414 16.7913C12.2723 16.7939 12.2034 16.7818 12.1393 16.7558C12.0752 16.7297 12.0174 16.6904 11.9697 16.6403C11.9172 16.5914 11.8756 16.532 11.8476 16.466C11.8196 16.3999 11.8058 16.3287 11.8071 16.257C11.7944 16.1845 11.7995 16.11 11.8221 16.0399C11.8446 15.9699 11.8839 15.9063 11.9365 15.8549C11.9891 15.8034 12.0535 15.7655 12.124 15.7445C12.1946 15.7235 12.2692 15.72 12.3414 15.7344C12.4127 15.7222 12.486 15.7273 12.5549 15.7493C12.6239 15.7712 12.6866 15.8094 12.7378 15.8606C12.789 15.9118 12.8272 15.9745 12.8491 16.0435C12.8711 16.1124 12.8762 16.1857 12.864 16.257V16.257Z" fill="white"/>
<path d="M20.1465 14.8516C20.1343 16.0468 19.7663 17.2113 19.0896 18.1966C18.7838 18.757 18.3367 19.2277 17.7927 19.5619C17.2487 19.8961 16.6267 20.082 15.9885 20.1013C15.6665 20.1241 15.3433 20.0755 15.0422 19.9591C14.7411 19.8426 14.4693 19.6612 14.2464 19.4277C13.8694 18.9224 13.6366 18.3243 13.5727 17.6972C13.5727 17.3952 13.4682 16.617 13.3753 15.3743C13.371 15.0736 13.2502 14.7863 13.0385 14.5729L12.5042 14.178L12.2255 13.9457C12.1309 13.8463 12.0525 13.7326 11.9932 13.6089L12.7481 12.25H12.9688C13.0579 12.5884 13.2635 12.8845 13.5495 13.0862L14.1302 13.5044C14.2099 13.5745 14.2747 13.6601 14.3206 13.7559C14.3665 13.8517 14.3926 13.9557 14.3973 14.0618C14.3973 14.3406 14.3973 14.7936 14.3973 15.4323C14.3599 16.1774 14.4664 16.9227 14.7109 17.6275C14.8569 17.961 15.1031 18.2408 15.4152 18.4281C15.7274 18.6154 16.0901 18.7009 16.4531 18.6728C16.8264 18.6719 17.1932 18.5754 17.5185 18.3924C17.8438 18.2094 18.1168 17.946 18.3114 17.6275C18.7671 16.9702 19.0029 16.1855 18.985 15.3859C19.0054 15.0994 18.932 14.814 18.776 14.5729C18.6281 14.4442 18.4729 14.324 18.3114 14.2128L18.021 13.9805C17.9302 13.8781 17.8522 13.765 17.7888 13.6437L18.5088 12.25H18.776C18.8591 12.585 19.0562 12.8807 19.3335 13.0862C19.5264 13.2235 19.7088 13.3749 19.8793 13.5392C20.0953 13.941 20.1882 14.3974 20.1465 14.8516V14.8516ZM17.2313 14.2941C17.1712 14.9597 16.9741 15.6056 16.6523 16.1912C16.3305 16.7769 15.8909 17.2896 15.3613 17.6972L15.1291 17.4649L15.6982 16.3034C15.8947 15.8527 15.9975 15.3666 16.0001 14.8749C15.99 14.7238 15.9422 14.5777 15.861 14.4498C15.7799 14.322 15.668 14.2166 15.5356 14.1431L15.2917 13.9457C15.1971 13.8463 15.1187 13.7326 15.0594 13.6089L15.7678 12.25H16.0117C16.0949 12.585 16.292 12.8807 16.5692 13.0862C16.7675 13.2206 16.9309 13.4003 17.046 13.6103C17.1611 13.8203 17.2246 14.0547 17.2313 14.2941Z" fill="white"/>
<path d="M26 19.1374L25.1986 20.0433H24.9431C24.8896 19.569 24.8625 19.092 24.8618 18.6147C24.8618 18.4637 24.8618 18.0108 24.8618 17.2791C24.8618 16.5473 24.8618 16.1176 24.8618 15.9434C24.8831 15.575 24.8237 15.2063 24.6876 14.8633C24.5972 14.6968 24.4597 14.5606 24.2924 14.4718C24.1251 14.383 23.9353 14.3454 23.7468 14.3638H22.5854C22.2604 14.383 21.9347 14.383 21.6097 14.3638C21.4634 14.3524 21.3218 14.3064 21.1967 14.2297C21.0715 14.153 20.9663 14.0477 20.8896 13.9225L21.482 12.3197H21.7491C21.7806 12.4429 21.8447 12.5554 21.9346 12.6453C22.0245 12.7352 22.1369 12.7993 22.2601 12.8307C22.5468 12.8881 22.8391 12.9115 23.1312 12.9004H24.2927C24.489 12.877 24.688 12.896 24.8764 12.9562C25.0647 13.0163 25.238 13.1161 25.3844 13.2489C25.7223 13.8103 25.8652 14.4677 25.7909 15.1188C25.7909 15.2117 25.7909 15.4788 25.7909 15.9434C25.7741 16.2761 25.7741 16.6095 25.7909 16.9422C25.849 17.2791 25.8955 18.0572 26 19.1374Z" fill="white"/>
</svg>
