<svg width="16" height="22" viewBox="0 0 16 22" fill="none" xmlns="http://www.w3.org/2000/svg">
<path d="M8 16.005C10.0543 14.465 11.6049 12.9846 12.6519 11.5638C13.6988 10.1429 14.2222 8.81833 14.2222 7.59C14.2222 6.50833 14.0099 5.59167 13.5852 4.84C13.1605 4.08833 12.637 3.47417 12.0148 2.9975C11.3926 2.52083 10.7161 2.17708 9.98519 1.96625C9.25432 1.75542 8.59259 1.65 8 1.65C7.40741 1.65 6.74568 1.75542 6.01481 1.96625C5.28395 2.17708 4.60741 2.52083 3.98519 2.9975C3.36296 3.47417 2.83951 4.08833 2.41481 4.84C1.99012 5.59167 1.77778 6.50833 1.77778 7.59C1.77778 8.81833 2.30123 10.1429 3.34815 11.5638C4.39506 12.9846 5.94568 14.465 8 16.005ZM8 18.095C5.29383 16.2067 3.28395 14.4008 1.97037 12.6775C0.65679 10.9542 0 9.25833 0 7.59C0 6.34333 0.241976 5.24792 0.725926 4.30375C1.20988 3.35958 1.83704 2.56667 2.60741 1.925C3.37778 1.28333 4.23704 0.802083 5.18519 0.48125C6.13333 0.160417 7.0716 0 8 0C8.9284 0 9.86667 0.160417 10.8148 0.48125C11.763 0.802083 12.6222 1.28333 13.3926 1.925C14.163 2.56667 14.7901 3.35958 15.2741 4.30375C15.758 5.24792 16 6.34333 16 7.59C16 9.25833 15.3432 10.9542 14.0296 12.6775C12.716 14.4008 10.7062 16.2067 8 18.095ZM8 9.35C8.57284 9.35 9.06173 9.16208 9.46667 8.78625C9.8716 8.41042 10.0741 7.95667 10.0741 7.425C10.0741 6.89333 9.8716 6.43958 9.46667 6.06375C9.06173 5.68792 8.57284 5.5 8 5.5C7.42716 5.5 6.93827 5.68792 6.53333 6.06375C6.1284 6.43958 5.92593 6.89333 5.92593 7.425C5.92593 7.95667 6.1284 8.41042 6.53333 8.78625C6.93827 9.16208 7.42716 9.35 8 9.35ZM0 22V20.35H16V22H0Z" fill="#F84E27"/>
</svg>
