<svg width="32" height="32" viewBox="0 0 32 32" fill="none" xmlns="http://www.w3.org/2000/svg">
<path d="M16 31.5C24.5604 31.5 31.5 24.5604 31.5 16C31.5 7.43959 24.5604 0.5 16 0.5C7.43959 0.5 0.5 7.43959 0.5 16C0.5 24.5604 7.43959 31.5 16 31.5Z" fill="#F84E27" stroke="white"/>
<path d="M18.7937 10.0977L17.6523 12.7838L20.4537 11.677L18.7937 10.0977Z" fill="white"/>
<path d="M13.1328 9.18701L11.2998 11.4927L16.6029 13.049L17.8479 10.1323L13.1328 9.18701Z" fill="white"/>
<path d="M16.4414 13.9018L11 12.2993V23.0899L16.4183 24.75L16.4414 13.9018Z" fill="white"/>
<path d="M17.2715 13.8673V24.6463L20.7876 22.7903V12.4608L17.2715 13.8673Z" fill="white"/>
<path d="M18.4593 9.34817V7.99935L13.2139 7.25V8.40284L18.4593 9.34817Z" fill="white"/>
</svg>
