<svg width="22" height="22" viewBox="0 0 22 22" fill="none" xmlns="http://www.w3.org/2000/svg">
<path d="M15.6571 21C14.8789 20.9942 14.1042 20.8965 13.3489 20.709C10.7407 20.0797 8.05487 18.4833 5.78742 16.2139C3.51997 13.9445 1.92161 11.2582 1.29232 8.65248C0.629695 5.91146 1.10229 3.56642 2.62155 2.04717L3.05534 1.61338C3.44891 1.2206 3.98224 1 4.53828 1C5.09432 1 5.62765 1.2206 6.02123 1.61338L8.51403 4.10567C8.90706 4.49911 9.12782 5.03249 9.12782 5.58861C9.12782 6.14473 8.90706 6.6781 8.51403 7.07154L7.04153 8.54354C7.74743 9.78222 8.70754 11.0219 9.84226 12.1566C10.977 13.2913 12.2177 14.2519 13.4558 14.9578L14.9278 13.4853C15.1226 13.2905 15.3538 13.136 15.6082 13.0306C15.8626 12.9252 16.1354 12.8709 16.4108 12.8709C16.6862 12.8709 16.9589 12.9252 17.2134 13.0306C17.4678 13.136 17.699 13.2905 17.8937 13.4853L20.386 15.9776C20.7792 16.3709 21 16.9042 21 17.4603C21 18.0164 20.7792 18.5497 20.386 18.943L19.9518 19.3768C18.8807 20.4498 17.3983 21 15.6571 21ZM4.53828 2.4914C4.45885 2.49101 4.38015 2.50647 4.30677 2.53688C4.23339 2.56729 4.16682 2.61204 4.11096 2.6685L3.67667 3.10229C2.53897 4.23999 2.20666 6.08706 2.74094 8.30028C3.30656 10.6448 4.76264 13.0809 6.84055 15.1583C8.91847 17.2357 11.3541 18.6903 13.6991 19.2579C15.9128 19.7922 17.7589 19.4599 18.8966 18.3222L19.3304 17.8884C19.4438 17.7749 19.5074 17.6212 19.5074 17.4608C19.5074 17.3005 19.4438 17.1467 19.3304 17.0332L16.8386 14.5409C16.7252 14.4276 16.5714 14.3639 16.411 14.3639C16.2507 14.3639 16.0969 14.4276 15.9835 14.5409L14.1175 16.4069C14.0055 16.519 13.8608 16.5924 13.7043 16.6168C13.5478 16.6411 13.3876 16.615 13.2469 16.5422C11.7172 15.7513 10.1751 14.5996 8.78714 13.2117C7.39921 11.8238 6.25006 10.2827 5.4571 8.75297C5.38428 8.61233 5.35809 8.45217 5.38233 8.29567C5.40657 8.13916 5.47997 7.99443 5.59191 7.88241L7.4584 6.01642C7.57174 5.90299 7.63541 5.74921 7.63541 5.58886C7.63541 5.42851 7.57174 5.27472 7.4584 5.16129L4.9661 2.6685C4.91006 2.61213 4.84339 2.56746 4.76995 2.53706C4.69651 2.50665 4.61776 2.49114 4.53828 2.4914Z" fill="#F84E27" stroke="#F84E27" stroke-width="0.1"/>
</svg>
