<svg width="18" height="22" viewBox="0 0 18 22" fill="none" xmlns="http://www.w3.org/2000/svg">
<path d="M9 14.025C9.95625 14.025 10.8234 13.805 11.6016 13.365C12.3797 12.925 13.0031 12.3383 13.4719 11.605C12.8344 11.1283 12.1406 10.7708 11.3906 10.5325C10.6406 10.2942 9.84375 10.175 9 10.175C8.15625 10.175 7.35938 10.2942 6.60938 10.5325C5.85938 10.7708 5.16562 11.1283 4.52812 11.605C4.99687 12.3383 5.62031 12.925 6.39844 13.365C7.17656 13.805 8.04375 14.025 9 14.025ZM9 8.525C9.54375 8.525 10.0078 8.33708 10.3922 7.96125C10.7766 7.58542 10.9688 7.13167 10.9688 6.6C10.9688 6.06833 10.7766 5.61458 10.3922 5.23875C10.0078 4.86292 9.54375 4.675 9 4.675C8.45625 4.675 7.99219 4.86292 7.60781 5.23875C7.22344 5.61458 7.03125 6.06833 7.03125 6.6C7.03125 7.13167 7.22344 7.58542 7.60781 7.96125C7.99219 8.33708 8.45625 8.525 9 8.525ZM9 22C5.98125 19.4883 3.72656 17.1554 2.23594 15.0013C0.745313 12.8471 0 10.8533 0 9.02C0 6.27 0.904687 4.07917 2.71406 2.4475C4.52344 0.815833 6.61875 0 9 0C11.3812 0 13.4766 0.815833 15.2859 2.4475C17.0953 4.07917 18 6.27 18 9.02C18 10.8533 17.2547 12.8471 15.7641 15.0013C14.2734 17.1554 12.0188 19.4883 9 22Z" fill="#3859CF"/>
</svg>
