<svg width="20" height="25" viewBox="0 0 20 25" fill="none" xmlns="http://www.w3.org/2000/svg">
<path d="M19.3327 23.6665C19.3327 24.2188 18.885 24.6665 18.3327 24.6665H1.66601C1.11373 24.6665 0.666016 24.2188 0.666016 23.6665V22.3332C0.666016 20.7861 1.2806 19.3023 2.37456 18.2084C3.46852 17.1144 4.95225 16.4998 6.49935 16.4998H13.4993C15.0464 16.4998 16.5302 17.1144 17.6241 18.2084C18.7181 19.3023 19.3327 20.7861 19.3327 22.3332V23.6665ZM9.99935 14.1665C9.08009 14.1665 8.16984 13.9854 7.32056 13.6337C6.47128 13.2819 5.69961 12.7663 5.0496 12.1163C4.39959 11.4662 3.88397 10.6946 3.53219 9.84529C3.18041 8.99601 2.99935 8.08576 2.99935 7.1665C2.99935 6.24725 3.18041 5.337 3.53219 4.48772C3.88397 3.63844 4.39959 2.86677 5.0496 2.21676C5.69961 1.56675 6.47128 1.05113 7.32056 0.699347C8.16984 0.347564 9.08009 0.166504 9.99935 0.166504C11.8559 0.166504 13.6363 0.904002 14.9491 2.21676C16.2618 3.52951 16.9993 5.30999 16.9993 7.1665C16.9993 9.02302 16.2618 10.8035 14.9491 12.1163C13.6363 13.429 11.8559 14.1665 9.99935 14.1665Z" fill="#D5D5DC"/>
</svg>
