<svg width="7" height="10" viewBox="0 0 7 10" fill="none" xmlns="http://www.w3.org/2000/svg">
<path d="M5.89176 9.97754C5.67594 9.97754 5.49886 9.90007 5.35498 9.75619L1.11051 5.61133C0.922363 5.42318 0.828288 5.22949 0.828288 4.99154C0.828288 4.75358 0.916829 4.55436 1.11051 4.37174L5.35498 0.221354C5.50439 0.077474 5.68148 0 5.89176 0C6.31787 0 6.6665 0.343099 6.6665 0.769206C6.6665 0.979492 6.57796 1.17871 6.42301 1.33366L2.65999 4.99154L6.42301 8.64388C6.57796 8.79883 6.6665 8.99805 6.6665 9.20833C6.6665 9.63444 6.31787 9.97754 5.89176 9.97754Z" fill="#9898AF"/>
</svg>
