<svg width="32" height="32" viewBox="0 0 32 32" fill="none" xmlns="http://www.w3.org/2000/svg">
<path d="M16 31.5C24.5604 31.5 31.5 24.5604 31.5 16C31.5 7.43959 24.5604 0.5 16 0.5C7.43959 0.5 0.5 7.43959 0.5 16C0.5 24.5604 7.43959 31.5 16 31.5Z" fill="#F84E27" stroke="white"/>
<path d="M15.9246 6.3625C16.2497 6.30317 16.5599 6.17996 16.8371 6C17.0447 7.98474 16.7121 9.98869 15.8746 11.8C15.9996 10.075 15.9996 8.35 15.9246 6.3625Z" fill="white"/>
<path d="M13.6496 14.1125C12.9246 14.8875 10.1496 16 9.02461 18.0875C7.73711 21 9.22461 22.25 9.22461 22.25C9.16271 20.9948 9.42987 19.7452 9.99961 18.625C10.9996 16.8 12.9621 15.1125 13.6496 14.1125Z" fill="white"/>
<path d="M15.2996 12.25C15.2996 13.325 13.3496 17.7 12.9996 20.5875C12.8871 23.3625 13.2621 23.8125 13.6496 24.575C12.9496 24.85 9.6871 25.2375 9.6871 22.075C9.6871 18.0625 12.6871 16.3625 13.4371 15.375C14.2105 14.4322 14.8383 13.3788 15.2996 12.25Z" fill="white"/>
<path d="M16.9746 10.4125C16.8677 11.521 16.9055 12.6387 17.0871 13.7375C17.3371 16.6 19.7496 17.7 19.7496 20.8875C19.6121 23.25 18.6871 25.8875 16.5496 25.8875C13.6496 25.7 13.4996 22.5125 13.4996 20.625C13.7246 17.5 16.9746 10.4125 16.9746 10.4125Z" fill="white"/>
<path d="M17.5496 12.125C17.8894 13.2825 18.4686 14.3556 19.2496 15.275C20.5746 16.875 23.3496 18.9125 23.0621 22.25C23.0426 22.6961 22.9171 23.1312 22.6961 23.5192C22.4751 23.9072 22.1648 24.237 21.791 24.4814C21.4172 24.7257 20.9906 24.8775 20.5465 24.9242C20.1024 24.9709 19.6536 24.9112 19.2371 24.75C20.0358 23.3799 20.3691 21.7879 20.1871 20.2125C19.9246 17.6 18.4121 16.3125 17.8621 14.75C17.5416 13.9145 17.4342 13.0124 17.5496 12.125Z" fill="white"/>
<path d="M18.7621 13.625C19.1003 14.2758 19.5204 14.8808 20.0121 15.425C21.2636 16.552 22.2975 17.8994 23.0621 19.4C23.488 20.3528 23.6685 21.397 23.5871 22.4375C24.0115 21.8593 24.2677 21.1749 24.3272 20.4601C24.3868 19.7453 24.2475 19.028 23.9246 18.3875C23.1247 16.8656 21.8466 15.6489 20.2871 14.925C19.714 14.5739 19.1995 14.1353 18.7621 13.625Z" fill="white"/>
</svg>
