<svg width="32" height="32" viewBox="0 0 32 32" fill="none" xmlns="http://www.w3.org/2000/svg">
<path d="M16 31.5C24.5604 31.5 31.5 24.5604 31.5 16C31.5 7.43959 24.5604 0.5 16 0.5C7.43959 0.5 0.5 7.43959 0.5 16C0.5 24.5604 7.43959 31.5 16 31.5Z" fill="#F84E27" stroke="white"/>
<g clip-path="url(#clip0_4_130)">
<path d="M15.1631 4.75C15.7782 4.95157 16.3371 5.29507 16.7948 5.75271C17.2524 6.21036 17.5959 6.7693 17.7975 7.38433C17.9355 7.91051 17.9647 8.45935 17.883 8.99718C17.8014 9.53501 17.6107 10.0505 17.3227 10.512C16.969 9.95349 15.7217 9.36705 15.5355 8.37104C15.4982 7.66718 15.4982 6.96185 15.5355 6.25799C15.4916 5.73884 15.366 5.2299 15.1631 4.75Z" fill="white"/>
<path d="M18.0489 12.895C17.4434 12.9917 16.824 12.9534 16.235 12.7828C15.646 12.6123 15.102 12.3136 14.6419 11.9083C14.2327 11.5228 13.9081 11.0565 13.6885 10.5389C13.469 10.0213 13.3594 9.46377 13.3667 8.90161C13.8405 9.26606 14.3523 9.57817 14.8933 9.83247C15.8241 10.2514 16.1965 10.242 16.6991 10.5492C17.4904 11.024 17.6207 12.141 18.0489 12.895Z" fill="white"/>
<path d="M18.1512 12.8579C18.7312 12.6831 19.2568 12.3626 19.6778 11.9271C20.7483 10.689 20.8879 8.74352 20.0315 6.8725C19.8523 7.31864 19.6408 7.75109 19.3986 8.16639C18.7563 9.2648 18.2722 9.51613 18.0023 10.1584C17.7323 10.8007 18.1605 11.9271 18.1512 12.8579Z" fill="white"/>
<path d="M19.1567 16.274C18.6354 15.52 18.6168 14.9149 18.1048 14.4123C17.3415 13.6676 16.6061 13.6583 15.7684 13.1835C15.1261 12.8298 14.6141 12.5319 14.3069 12.3271C14.3211 13.0935 14.5389 13.8423 14.9381 14.4966C15.3372 15.1509 15.9033 15.6873 16.5782 16.0506C17.3357 16.4163 18.1902 16.5304 19.0171 16.3764C19.5317 17.8195 20.5452 19.0312 21.8748 19.7926C22.796 20.2991 23.8302 20.5648 24.8815 20.5652C24.7967 20.4312 24.7368 20.283 24.7046 20.1277C24.6835 19.9702 24.6835 19.8105 24.7046 19.653C23.5733 19.7436 22.4424 19.4735 21.4741 18.8815C20.5058 18.2895 19.7499 17.406 19.3149 16.3577C20.2835 15.9328 21.0528 15.1535 21.4652 14.1795C21.6761 13.6145 21.7644 13.011 21.7243 12.4092C21.6842 11.8073 21.5165 11.2209 21.2325 10.6888C21.1022 10.9215 20.8974 11.266 20.6181 11.6662C19.8548 12.7367 19.3708 12.9694 19.0636 13.5279C18.8718 13.9632 18.7805 14.4362 18.7966 14.9116C18.8127 15.387 18.9358 15.8527 19.1567 16.274Z" fill="white"/>
<path d="M7.02184 14.8122C7.6563 14.6844 8.31194 14.7078 8.93572 14.8804C9.5595 15.0529 10.1339 15.3699 10.6124 15.8057C10.992 16.1954 11.2878 16.6586 11.4819 17.1668C11.676 17.675 11.7643 18.2174 11.7412 18.7609C11.1581 18.4494 9.78375 18.554 9.13079 17.7792C8.75142 17.1852 8.40372 16.5715 8.08916 15.9407C7.79508 15.5107 7.43486 15.1298 7.02184 14.8122Z" fill="white"/>
<path d="M13.5484 20.4764C13.0692 20.8591 12.5114 21.1311 11.9149 21.273C11.3184 21.4149 10.6979 21.4233 10.0977 21.2974C9.55165 21.1637 9.0393 20.918 8.59316 20.5759C8.14702 20.2338 7.77682 19.8028 7.50603 19.3101C8.09792 19.3936 8.69711 19.4128 9.29313 19.3674C10.3095 19.273 10.6289 19.0814 11.2177 19.1009C12.1401 19.1239 12.8041 20.0315 13.5484 20.4764Z" fill="white"/>
<path d="M13.6184 20.3937C14.0369 19.9557 14.3362 19.4178 14.4878 18.8313C14.8089 17.2264 13.9714 15.4649 12.3039 14.2592C12.3679 14.7357 12.3971 15.2162 12.391 15.697C12.3736 16.9693 12.0764 17.4265 12.1581 18.1184C12.2399 18.8103 13.1677 19.5792 13.6184 20.3937Z" fill="white"/>
<path d="M16.1771 22.8703C15.3519 22.4713 15.0375 21.954 14.3442 21.769C13.313 21.4974 12.6686 21.8518 11.7057 21.8517C10.9725 21.8606 10.3802 21.8538 10.012 21.827C10.4021 22.4868 10.9607 23.0309 11.6305 23.4035C12.3004 23.776 13.0573 23.9636 13.8236 23.947C14.6629 23.8918 15.4626 23.5699 16.1061 23.0282C17.2653 24.0302 18.7444 24.5848 20.2766 24.5919C21.3278 24.5784 22.3585 24.2998 23.2734 23.7819C23.1336 23.7071 23.0084 23.6077 22.9039 23.4885C22.8078 23.3618 22.7291 23.2229 22.6698 23.0754C21.7302 23.7119 20.6131 24.0344 19.4788 23.9967C18.3445 23.9589 17.2513 23.5628 16.3561 22.8652C16.9894 22.0181 17.2746 20.9608 17.1532 19.9101C17.0582 19.3144 16.8375 18.7459 16.506 18.242C16.1744 17.7382 15.7394 17.3106 15.23 16.9877C15.2314 17.2544 15.223 17.655 15.1773 18.1409C15.0409 19.4486 14.7344 19.8896 14.7425 20.527C14.7902 21.0003 14.9439 21.4568 15.1923 21.8625C15.4406 22.2682 15.7773 22.6127 16.1771 22.8703Z" fill="white"/>
</g>
<defs>
<clipPath id="clip0_4_130">
<rect width="22.5" height="22.5" fill="white" transform="translate(4.75 4.75)"/>
</clipPath>
</defs>
</svg>
