<svg width="32" height="32" viewBox="0 0 32 32" fill="none" xmlns="http://www.w3.org/2000/svg">
<path d="M16 31.5C24.5604 31.5 31.5 24.5604 31.5 16C31.5 7.43959 24.5604 0.5 16 0.5C7.43959 0.5 0.5 7.43959 0.5 16C0.5 24.5604 7.43959 31.5 16 31.5Z" fill="#F84E27" stroke="white"/>
<path d="M11.18 15.9317C11.1629 16.7793 10.9815 17.6155 10.6458 18.394C10.2896 19.2844 9.94115 19.7606 9.60046 19.8226H7.86992C7.57956 19.8226 7.2079 19.8226 6.77816 19.8226L6 19.9271L6.4065 18.4637C7.14983 18.394 7.67247 18.3592 7.98606 18.3592H9.39141C9.80952 18.1269 10.0186 17.3952 10.0186 16.1756C10.0186 14.9561 9.56562 14.3638 8.6597 14.3638H7.49826C7.23409 14.3901 6.96742 14.3545 6.71943 14.2598C6.47145 14.165 6.24897 14.0137 6.06969 13.8179C6.19744 13.4695 6.4065 12.9585 6.68525 12.25H6.97561C7.08266 12.46 7.25111 12.6326 7.45857 12.7446C7.66604 12.8566 7.90268 12.9029 8.13705 12.8772H8.99652C10.4522 12.8926 11.18 13.9108 11.18 15.9317Z" fill="white"/>
<path d="M12.8638 16.257C12.8631 16.3991 12.8093 16.5358 12.7128 16.6402C12.6643 16.6892 12.6063 16.7278 12.5424 16.7537C12.4786 16.7797 12.4101 16.7924 12.3412 16.7912C12.2721 16.7938 12.2032 16.7817 12.1391 16.7557C12.075 16.7297 12.0172 16.6903 11.9695 16.6402C11.917 16.5913 11.8754 16.5319 11.8474 16.4659C11.8194 16.3999 11.8056 16.3287 11.8069 16.257C11.7942 16.1845 11.7993 16.1099 11.8219 16.0399C11.8444 15.9698 11.8837 15.9063 11.9363 15.8548C11.9889 15.8033 12.0533 15.7655 12.1238 15.7445C12.1944 15.7235 12.269 15.72 12.3412 15.7343C12.4125 15.7221 12.4858 15.7272 12.5547 15.7492C12.6237 15.7712 12.6864 15.8093 12.7376 15.8605C12.7888 15.9117 12.827 15.9744 12.8489 16.0434C12.8709 16.1124 12.876 16.1856 12.8638 16.257Z" fill="white"/>
<path d="M20.1464 14.8516C20.1342 16.0468 19.7662 17.2113 19.0894 18.1966C18.7837 18.757 18.3366 19.2277 17.7926 19.5619C17.2485 19.896 16.6266 20.082 15.9884 20.1013C15.6663 20.1241 15.3432 20.0755 15.0421 19.959C14.741 19.8426 14.4692 19.6612 14.2462 19.4277C13.8693 18.9224 13.6365 18.3243 13.5726 17.6971C13.5726 17.3952 13.4681 16.617 13.3752 15.3743C13.3709 15.0736 13.2501 14.7863 13.0383 14.5729L12.5041 14.178L12.2253 13.9457C12.1308 13.8462 12.0524 13.7326 11.993 13.6089L12.748 12.25H12.9687C13.0578 12.5884 13.2634 12.8845 13.5494 13.0862L14.1301 13.5043C14.2098 13.5745 14.2746 13.6601 14.3205 13.7559C14.3664 13.8516 14.3925 13.9557 14.3972 14.0618C14.3972 14.3406 14.3972 14.7935 14.3972 15.4323C14.3598 16.1774 14.4663 16.9227 14.7108 17.6274C14.8568 17.9609 15.1029 18.2408 15.4151 18.4281C15.7273 18.6154 16.09 18.7009 16.453 18.6727C16.8262 18.6719 17.1931 18.5753 17.5184 18.3923C17.8437 18.2093 18.1167 17.946 18.3113 17.6274C18.7669 16.9702 19.0028 16.1855 18.9849 15.3859C19.0053 15.0994 18.9319 14.814 18.7759 14.5729C18.6279 14.4441 18.4728 14.3239 18.3113 14.2128L18.0209 13.9805C17.9301 13.8781 17.8521 13.765 17.7886 13.6437L18.5087 12.25H18.7759C18.859 12.585 19.0561 12.8806 19.3333 13.0862C19.5263 13.2235 19.7087 13.3749 19.8792 13.5392C20.0952 13.9409 20.1881 14.3974 20.1464 14.8516ZM17.2311 14.2941C17.1711 14.9597 16.974 15.6056 16.6521 16.1912C16.3303 16.7769 15.8908 17.2896 15.3612 17.6971L15.1289 17.4648L15.698 16.3034C15.8946 15.8526 15.9973 15.3666 16 14.8748C15.9899 14.7238 15.9421 14.5776 15.8609 14.4498C15.7797 14.322 15.6679 14.2165 15.5354 14.1431L15.2915 13.9457C15.197 13.8462 15.1186 13.7326 15.0592 13.6089L15.7677 12.25H16.0116C16.0947 12.585 16.2918 12.8806 16.5691 13.0862C16.7674 13.2206 16.9308 13.4002 17.0459 13.6103C17.161 13.8203 17.2245 14.0547 17.2311 14.2941Z" fill="white"/>
<path d="M25.9999 19.1374L25.1985 20.0433H24.943C24.8895 19.569 24.8624 19.092 24.8617 18.6147C24.8617 18.4637 24.8617 18.0108 24.8617 17.2791C24.8617 16.5474 24.8617 16.1176 24.8617 15.9434C24.883 15.575 24.8235 15.2063 24.6874 14.8633C24.597 14.6968 24.4596 14.5606 24.2923 14.4718C24.125 14.383 23.9352 14.3454 23.7467 14.3638H22.5852C22.2603 14.383 21.9345 14.383 21.6096 14.3638C21.4633 14.3524 21.3217 14.3064 21.1965 14.2297C21.0714 14.153 20.9662 14.0477 20.8895 13.9225L21.4819 12.3197H21.749C21.7805 12.4429 21.8445 12.5554 21.9344 12.6453C22.0244 12.7352 22.1368 12.7993 22.26 12.8307C22.5466 12.8881 22.839 12.9115 23.1311 12.9004H24.2925C24.4889 12.877 24.6879 12.8961 24.8762 12.9562C25.0646 13.0163 25.2378 13.1161 25.3843 13.2489C25.7222 13.8103 25.8651 14.4677 25.7908 15.1188C25.7908 15.2117 25.7908 15.4788 25.7908 15.9434C25.7739 16.2761 25.7739 16.6095 25.7908 16.9422C25.8489 17.2791 25.8953 18.0572 25.9999 19.1374Z" fill="white"/>
</svg>
