<svg width="32" height="32" viewBox="0 0 32 32" fill="none" xmlns="http://www.w3.org/2000/svg">
<path d="M16 31.5C24.5604 31.5 31.5 24.5604 31.5 16C31.5 7.43959 24.5604 0.5 16 0.5C7.43959 0.5 0.5 7.43959 0.5 16C0.5 24.5604 7.43959 31.5 16 31.5Z" fill="#F84E27" stroke="white"/>
<path d="M7.42119 25.9771C7.97956 26.1397 7.86076 25.4082 9.59527 24.6768C11.5555 23.5158 18.0421 23.9221 21.5943 21.7742C25.1465 19.6264 25.1584 17.1302 24.6475 16.2478C25.1108 15.7021 24.6475 14.6688 24.6475 14.6688C25.1502 14.1225 25.5703 13.5087 25.8949 12.846C26.2989 11.9636 25.4079 11 25.4079 11L24.6356 11.5805C24.6356 11.5805 25.2772 12.3119 25.1227 12.8112C24.8161 13.3056 24.4123 13.7357 23.9347 14.0767C23.6409 13.9614 23.3197 13.9292 23.008 13.9838C22.7496 14.0204 22.5091 14.134 22.319 14.3089C21.8033 14.1649 21.2508 14.2189 20.7746 14.4598C18.7193 15.4699 17.852 18.6859 15.8561 20.0559C13.6227 21.6001 9.91604 22.1341 8.8587 23.121C7.80136 24.1079 6.85094 25.7565 7.42119 25.9771Z" fill="white"/>
<path d="M9.90789 18.2266L11.1205 19.75L12.6105 19.4712L11.2746 18.2266C10.5063 17.398 10.0373 16.3495 9.93871 15.2397C10.2661 15.5662 10.7124 15.7556 11.1821 15.7674C11.8912 15.7674 12.4975 14.7717 12.7133 14.2639C12.8861 13.5904 12.9588 12.8964 12.9291 12.2029C12.9291 11.8943 13.3915 11.735 13.7512 11.7051C14.1108 11.6752 14.4911 11.7648 14.4808 11.9241C14.2464 12.7549 14.0916 13.6048 14.0184 14.4631C14.0313 14.8146 14.1819 15.1482 14.4396 15.3961C14.6973 15.6439 15.0427 15.7873 15.4056 15.7972C16.6902 15.8968 17.0498 14.0947 17.0498 14.0947C17.17 14.2116 17.2705 14.346 17.3478 14.4929C17.4728 14.8889 17.5757 15.291 17.6561 15.6977L18.4885 14.702C18.4885 14.702 18.5604 14.702 18.3446 13.8657C18.1961 13.3822 17.9472 12.9333 17.6132 12.5464C17.2793 12.1594 16.8672 11.8427 16.4024 11.6155C16.2688 13.2782 16.0119 14.3934 15.4673 14.2839C15.3988 14.2836 15.3314 14.2672 15.2709 14.236C15.2105 14.2048 15.1587 14.1598 15.1203 14.1049C15.0818 14.0499 15.0578 13.9867 15.0502 13.9208C15.0426 13.8548 15.0517 13.7881 15.0768 13.7263C15.4241 13.1072 15.6538 12.4327 15.755 11.735C16.0736 10.1618 13.6998 8.40949 13.6998 8.40949C13.6998 8.40949 14.3677 10.2116 13.2785 10.1519C12.1892 10.0921 12.107 8.59866 12.0967 8.28005C12.0864 7.96144 12.2097 6 12.2097 6C11.5938 6.60128 11.1327 7.33462 10.8636 8.14066C10.7403 9.04671 11.5829 10.2714 11.9939 11.9739C12.2611 13.328 11.4904 14.4432 11.0999 14.473C10.2367 14.5726 9.8565 13.0692 9.8565 13.0692L9.52767 11.6454C8.85183 12.6747 8.49517 13.8704 8.50005 15.0903C8.65346 16.2438 9.14166 17.3314 9.90789 18.2266Z" fill="white"/>
</svg>
