<svg width="32" height="32" viewBox="0 0 32 32" fill="none" xmlns="http://www.w3.org/2000/svg">
<path d="M16 31.5C24.5604 31.5 31.5 24.5604 31.5 16C31.5 7.43959 24.5604 0.5 16 0.5C7.43959 0.5 0.5 7.43959 0.5 16C0.5 24.5604 7.43959 31.5 16 31.5Z" fill="#F84E27" stroke="white"/>
<path d="M8.5 8.10556C9.30504 8.37843 10.0579 8.78608 10.7264 9.31111C14.5569 12.7236 15.0722 17.4486 15.9278 19.8889C16.4988 17.0993 17.5095 14.4181 18.9222 11.9458C19.5666 10.887 20.4201 9.97067 21.4306 9.25278C20.6446 9.43703 19.9102 9.79591 19.2819 10.3028C18.4954 10.9449 17.9029 11.7932 17.5708 12.7528C17.382 11.3949 17.7309 10.017 18.5431 8.9125C19.8069 7.25 22.4028 8.22222 24.425 7.25C23.0056 9.46667 23.9389 11.3819 21.5083 13.0833C20.6631 13.6412 19.6814 13.9572 18.6694 13.9972C18.0958 16.3306 17.9208 16.8556 17.5611 18.3431C17.2014 19.8306 17.1917 21.2597 16.5889 23.3014C16.4811 23.6156 16.3122 23.9053 16.0919 24.1539C15.8717 24.4025 15.6044 24.6051 15.3056 24.75C14.8539 24.3523 14.5749 23.7944 14.5278 23.1944C14.0944 20.4924 13.4441 17.8296 12.5833 15.2319C11.7914 12.5728 10.3937 10.1334 8.5 8.10556H8.5Z" fill="white"/>
</svg>
