<svg width="16" height="20" viewBox="0 0 16 20" fill="none" xmlns="http://www.w3.org/2000/svg">
<path d="M8 9.75C8.48333 9.75 8.89583 9.57917 9.2375 9.2375C9.57917 8.89583 9.75 8.48333 9.75 8C9.75 7.51667 9.57917 7.10417 9.2375 6.7625C8.89583 6.42083 8.48333 6.25 8 6.25C7.51667 6.25 7.10417 6.42083 6.7625 6.7625C6.42083 7.10417 6.25 7.51667 6.25 8C6.25 8.48333 6.42083 8.89583 6.7625 9.2375C7.10417 9.57917 7.51667 9.75 8 9.75ZM8 20C5.31667 17.7167 3.3125 15.5958 1.9875 13.6375C0.6625 11.6792 0 9.86667 0 8.2C0 5.7 0.804167 3.70833 2.4125 2.225C4.02083 0.741667 5.88333 0 8 0C10.1167 0 11.9792 0.741667 13.5875 2.225C15.1958 3.70833 16 5.7 16 8.2C16 9.86667 15.3375 11.6792 14.0125 13.6375C12.6875 15.5958 10.6833 17.7167 8 20Z" fill="#3859CF"/>
</svg>
