<svg width="262" height="231" viewBox="0 0 262 231" fill="none" xmlns="http://www.w3.org/2000/svg">
<g clip-path="url(#clip0_4347_89571)">
<path d="M117.528 15.6816H83.1992V124.477H117.528V15.6816Z" fill="#F9F9FF"/>
<path d="M117.528 15.6816H100.366V124.175H117.528V15.6816Z" fill="#E7E9EF"/>
<path d="M99.241 5.00195H87.1172V15.6817H99.241V5.00195Z" fill="#F9F9FF"/>
<path d="M99.2408 5.00195H96.3525V15.6817H99.2408V5.00195Z" fill="#E7E9EF"/>
<path d="M80.3389 15.6816V15.0547H118.529V15.6816" fill="#D8E0EA"/>
<path d="M92.8826 20.3389H89.9775V26.4679H92.8826V20.3389Z" fill="#F9F9F9"/>
<path d="M100.367 28.869C100.367 28.9362 96.5211 28.9866 91.7858 28.9866C87.0504 28.9866 83.2051 28.9362 83.2051 28.869C83.2051 28.8018 87.0448 28.7515 91.7858 28.7515C96.5267 28.7515 100.367 28.8018 100.367 28.869Z" fill="#D8E0EA"/>
<path d="M110.195 20.3389H107.29V26.4679H110.195V20.3389Z" fill="#D8E0EA"/>
<path d="M117.679 28.869C117.679 28.9362 113.839 28.9866 109.098 28.9866C104.357 28.9866 100.518 28.9362 100.518 28.869C100.518 28.8018 104.357 28.7515 109.098 28.7515C113.839 28.7515 117.679 28.8018 117.679 28.869Z" fill="#D8E0EA"/>
<path d="M110.195 32.5015H107.29V38.6305H110.195V32.5015Z" fill="#D8E0EA"/>
<path d="M117.679 41.0316C117.679 41.0988 113.839 41.1492 109.098 41.1492C104.357 41.1492 100.518 41.0988 100.518 41.0316C100.518 40.9644 104.357 40.9141 109.098 40.9141C113.839 40.9141 117.679 40.9644 117.679 41.0316Z" fill="#D8E0EA"/>
<path d="M110.195 45.0342H107.29V51.1633H110.195V45.0342Z" fill="#D8E0EA"/>
<path d="M117.679 53.5643C117.679 53.6315 113.839 53.6819 109.098 53.6819C104.357 53.6819 100.518 53.6315 100.518 53.5643C100.518 53.4972 104.357 53.4468 109.098 53.4468C113.839 53.4468 117.679 53.4972 117.679 53.5643Z" fill="#D8E0EA"/>
<path d="M110.195 57.5664H107.29V63.6955H110.195V57.5664Z" fill="#D8E0EA"/>
<path d="M117.679 66.0966C117.679 66.1637 113.839 66.2141 109.098 66.2141C104.357 66.2141 100.518 66.1637 100.518 66.0966C100.518 66.0294 104.357 65.979 109.098 65.979C113.839 65.979 117.679 66.0294 117.679 66.0966Z" fill="#D8E0EA"/>
<path d="M110.195 69.7407H107.29V75.8698H110.195V69.7407Z" fill="#D8E0EA"/>
<path d="M117.679 78.2709C117.679 78.338 113.839 78.3884 109.098 78.3884C104.357 78.3884 100.518 78.338 100.518 78.2709C100.518 78.2037 104.357 78.1533 109.098 78.1533C113.839 78.1533 117.679 78.2037 117.679 78.2709Z" fill="#D8E0EA"/>
<path d="M110.195 81.9595H107.29V88.0886H110.195V81.9595Z" fill="#D8E0EA"/>
<path d="M110.195 94.3408H107.29V100.47H110.195V94.3408Z" fill="#D8E0EA"/>
<path d="M117.679 90.4955C117.679 90.5626 113.839 90.613 109.098 90.613C104.357 90.613 100.518 90.5626 100.518 90.4955C100.518 90.4283 104.357 90.3779 109.098 90.3779C113.839 90.3779 117.679 90.4283 117.679 90.4955Z" fill="#D8E0EA"/>
<path d="M92.8826 32.6865H89.9775V38.8156H92.8826V32.6865Z" fill="#F9F9F9"/>
<path d="M100.367 41.2225C100.367 41.2897 96.5211 41.3401 91.7858 41.3401C87.0504 41.3401 83.2051 41.2897 83.2051 41.2225C83.2051 41.1554 87.0448 41.105 91.7858 41.105C96.5267 41.105 100.367 41.1554 100.367 41.2225Z" fill="#D8E0EA"/>
<path d="M92.8826 45.0396H89.9775V51.1686H92.8826V45.0396Z" fill="#F9F9F9"/>
<path d="M100.367 53.5702C100.367 53.6373 96.5211 53.6877 91.7858 53.6877C87.0504 53.6877 83.2051 53.6373 83.2051 53.5702C83.2051 53.503 87.0448 53.4526 91.7858 53.4526C96.5267 53.4526 100.367 53.503 100.367 53.5702Z" fill="#D8E0EA"/>
<path d="M92.8826 57.3872H89.9775V63.5163H92.8826V57.3872Z" fill="#F9F9F9"/>
<path d="M100.367 65.9232C100.367 65.9904 96.5211 66.0408 91.7858 66.0408C87.0504 66.0408 83.2051 65.9904 83.2051 65.9232C83.2051 65.856 87.0448 65.8057 91.7858 65.8057C96.5267 65.8057 100.367 65.856 100.367 65.9232Z" fill="#D8E0EA"/>
<path d="M92.8826 69.7407H89.9775V75.8698H92.8826V69.7407Z" fill="#F9F9F9"/>
<path d="M100.367 78.2709C100.367 78.338 96.5211 78.3884 91.7858 78.3884C87.0504 78.3884 83.2051 78.338 83.2051 78.2709C83.2051 78.2037 87.0448 78.1533 91.7858 78.1533C96.5267 78.1533 100.367 78.2037 100.367 78.2709Z" fill="#D8E0EA"/>
<path d="M92.8826 82.0884H89.9775V88.2175H92.8826V82.0884Z" fill="#F9F9F9"/>
<path d="M100.367 90.6185C100.367 90.6857 96.5211 90.7361 91.7858 90.7361C87.0504 90.7361 83.2051 90.6857 83.2051 90.6185C83.2051 90.5514 87.0448 90.501 91.7858 90.501C96.5267 90.501 100.367 90.5514 100.367 90.6185Z" fill="#D8E0EA"/>
<path d="M92.8826 94.4419H89.9775V100.571H92.8826V94.4419Z" fill="#F9F9F9"/>
<path d="M170.203 31.0464H135.959V139.579H170.203V31.0464Z" fill="#F9F9FF"/>
<path d="M170.203 31.0464H153.081V139.276H170.203V31.0464Z" fill="#E7E9EF"/>
<path d="M151.962 20.3945H139.872V31.0519H151.962V20.3945Z" fill="#F9F9FF"/>
<path d="M151.968 20.3945H149.085V31.0519H151.968V20.3945Z" fill="#E7E9EF"/>
<path d="M133.104 31.0461V30.4248H171.211V31.0461" fill="#D8E0EA"/>
<path d="M145.62 35.6978H142.721V41.81H145.62V35.6978Z" fill="#F9F9F9"/>
<path d="M153.081 44.2054C153.081 44.2726 149.247 44.323 144.523 44.323C139.799 44.323 135.959 44.2726 135.959 44.2054C135.959 44.1383 139.793 44.0879 144.523 44.0879C149.253 44.0879 153.081 44.1383 153.081 44.2054Z" fill="#D8E0EA"/>
<path d="M162.894 35.6978H159.994V41.81H162.894V35.6978Z" fill="#D8E0EA"/>
<path d="M170.355 44.2059C170.355 44.2731 166.52 44.3235 161.796 44.3235C157.072 44.3235 153.232 44.2731 153.232 44.2059C153.232 44.1388 157.067 44.0884 161.796 44.0884C166.526 44.0884 170.355 44.1388 170.355 44.2059Z" fill="#D8E0EA"/>
<path d="M162.894 47.8325H159.994V53.9448H162.894V47.8325Z" fill="#D8E0EA"/>
<path d="M170.355 56.3407C170.355 56.4079 166.52 56.4582 161.796 56.4582C157.072 56.4582 153.232 56.4079 153.232 56.3407C153.232 56.2735 157.067 56.2231 161.796 56.2231C166.526 56.2231 170.355 56.2735 170.355 56.3407Z" fill="#D8E0EA"/>
<path d="M162.894 60.3315H159.994V66.4438H162.894V60.3315Z" fill="#D8E0EA"/>
<path d="M170.355 68.8451C170.355 68.9123 166.52 68.9626 161.796 68.9626C157.072 68.9626 153.232 68.9123 153.232 68.8451C153.232 68.7779 157.067 68.7275 161.796 68.7275C166.526 68.7275 170.355 68.7779 170.355 68.8451Z" fill="#D8E0EA"/>
<path d="M162.894 72.8359H159.994V78.9482H162.894V72.8359Z" fill="#D8E0EA"/>
<path d="M170.355 81.3441C170.355 81.4113 166.52 81.4616 161.796 81.4616C157.072 81.4616 153.232 81.4113 153.232 81.3441C153.232 81.2769 157.067 81.2266 161.796 81.2266C166.526 81.2266 170.355 81.2769 170.355 81.3441Z" fill="#D8E0EA"/>
<path d="M162.894 84.9766H159.994V91.0888H162.894V84.9766Z" fill="#D8E0EA"/>
<path d="M170.355 93.4901C170.355 93.5573 166.52 93.6076 161.796 93.6076C157.072 93.6076 153.232 93.5573 153.232 93.4901C153.232 93.4229 157.067 93.3726 161.796 93.3726C166.526 93.3726 170.355 93.4229 170.355 93.4901Z" fill="#D8E0EA"/>
<path d="M162.894 97.1675H159.994V103.28H162.894V97.1675Z" fill="#D8E0EA"/>
<path d="M162.894 109.521H159.994V115.633H162.894V109.521Z" fill="#D8E0EA"/>
<path d="M170.355 105.681C170.355 105.748 166.52 105.799 161.796 105.799C157.072 105.799 153.232 105.748 153.232 105.681C153.232 105.614 157.067 105.563 161.796 105.563C166.526 105.563 170.355 105.614 170.355 105.681Z" fill="#D8E0EA"/>
<path d="M145.62 48.0176H142.721V54.1299H145.62V48.0176Z" fill="#F9F9F9"/>
<path d="M153.081 56.5253C153.081 56.5924 149.247 56.6428 144.523 56.6428C139.799 56.6428 135.959 56.5924 135.959 56.5253C135.959 56.4581 139.793 56.4077 144.523 56.4077C149.253 56.4077 153.081 56.4581 153.081 56.5253Z" fill="#D8E0EA"/>
<path d="M145.62 60.3369H142.721V66.4492H145.62V60.3369Z" fill="#F9F9F9"/>
<path d="M153.081 68.8451C153.081 68.9123 149.247 68.9626 144.523 68.9626C139.799 68.9626 135.959 68.9123 135.959 68.8451C135.959 68.7779 139.793 68.7275 144.523 68.7275C149.253 68.7275 153.081 68.7779 153.081 68.8451Z" fill="#D8E0EA"/>
<path d="M145.62 72.6567H142.721V78.769H145.62V72.6567Z" fill="#F9F9F9"/>
<path d="M153.081 81.1649C153.081 81.2321 149.247 81.2825 144.523 81.2825C139.799 81.2825 135.959 81.2321 135.959 81.1649C135.959 81.0977 139.793 81.0474 144.523 81.0474C149.253 81.0474 153.081 81.0977 153.081 81.1649Z" fill="#D8E0EA"/>
<path d="M145.62 84.9766H142.721V91.0888H145.62V84.9766Z" fill="#F9F9F9"/>
<path d="M153.081 93.4901C153.081 93.5573 149.247 93.6076 144.523 93.6076C139.799 93.6076 135.959 93.5573 135.959 93.4901C135.959 93.4229 139.793 93.3726 144.523 93.3726C149.253 93.3726 153.081 93.4229 153.081 93.4901Z" fill="#D8E0EA"/>
<path d="M145.62 97.2964H142.721V103.409H145.62V97.2964Z" fill="#F9F9F9"/>
<path d="M153.081 105.81C153.081 105.877 149.247 105.927 144.523 105.927C139.799 105.927 135.959 105.877 135.959 105.81C135.959 105.743 139.793 105.692 144.523 105.692C149.253 105.692 153.081 105.743 153.081 105.81Z" fill="#D8E0EA"/>
<path d="M145.62 109.616H142.721V115.728H145.62V109.616Z" fill="#F9F9F9"/>
<path d="M212.962 73.1548H157.515V146.29H212.962V73.1548Z" fill="#E7E9EF"/>
<path d="M212.962 73.1548H186.962V146.29H212.962V73.1548Z" fill="#D8E0EA"/>
<path d="M174.127 83.0566H169.14V95.1693H174.127V83.0566Z" fill="#F9F9FF"/>
<path d="M174.127 130.466H169.14V142.578H174.127V130.466Z" fill="#F9F9FF"/>
<path d="M186.962 99.9269C186.962 100.061 180.368 100.173 172.235 100.173C164.102 100.173 157.509 100.061 157.509 99.9269C157.509 99.7926 164.102 99.6807 172.235 99.6807C180.368 99.6807 186.962 99.7926 186.962 99.9269Z" fill="#F9F9FF"/>
<path d="M174.127 106.94H169.14V119.053H174.127V106.94Z" fill="#F9F9FF"/>
<path d="M186.962 123.811C186.962 123.945 180.368 124.057 172.235 124.057C164.102 124.057 157.509 123.945 157.509 123.811C157.509 123.676 164.102 123.564 172.235 123.564C180.368 123.564 186.962 123.676 186.962 123.811Z" fill="#F9F9FF"/>
<path d="M197.469 83.0566H192.481V95.1693H197.469V83.0566Z" fill="#F9F9FF"/>
<path d="M208.288 83.0566H203.301V95.1693H208.288V83.0566Z" fill="#F9F9FF"/>
<path d="M197.469 106.045H192.481V118.158H197.469V106.045Z" fill="#F9F9FF"/>
<path d="M208.288 106.045H203.301V118.158H208.288V106.045Z" fill="#F9F9FF"/>
<path d="M197.469 129.027H192.481V141.14H197.469V129.027Z" fill="#F9F9FF"/>
<path d="M208.288 129.027H203.301V141.14H208.288V129.027Z" fill="#F9F9FF"/>
<path d="M217.132 70.6138H153.345V73.2501H217.132V70.6138Z" fill="#D8E0EA"/>
<path d="M213.348 73.4963C213.348 73.6306 200.955 73.7426 185.669 73.7426C170.383 73.7426 157.99 73.6306 157.99 73.4963C157.99 73.3619 170.383 73.25 185.669 73.25C200.955 73.25 213.348 73.3619 213.348 73.4963Z" fill="#E7E9EF"/>
<path d="M95.1102 146.01H44.5943L44.376 66.1753H94.8919L95.1102 146.01Z" fill="#E7E9EF"/>
<path d="M94.887 66.1753H69.6318V146.01H94.887V66.1753Z" fill="#D8E0EA"/>
<path d="M67.9803 50.458H50.1416V66.1753H67.9803V50.458Z" fill="#E7E9EF"/>
<path d="M67.9854 50.458H63.7314V66.1753H67.9854V50.458Z" fill="#D8E0EA"/>
<path d="M96.3698 65.2573H40.167V66.1753H96.3698V65.2573Z" fill="#D8E0EA"/>
<path d="M58.6211 73.0322H54.3447V82.0495H58.6211V73.0322Z" fill="white"/>
<path d="M69.6311 85.5871C69.6311 85.6822 63.9778 85.7606 57.0036 85.7606C50.0293 85.7606 44.376 85.6822 44.376 85.5871C44.376 85.4919 50.0293 85.4136 57.0036 85.4136C63.9778 85.4136 69.6311 85.4919 69.6311 85.5871Z" fill="#D8E0EA"/>
<path d="M84.1006 73.0322H79.8242V82.0495H84.1006V73.0322Z" fill="#F9F9FF"/>
<path d="M95.1106 85.5871C95.1106 85.6822 89.4573 85.7606 82.483 85.7606C75.5088 85.7606 69.8555 85.6822 69.8555 85.5871C69.8555 85.4919 75.5088 85.4136 82.483 85.4136C89.4573 85.4136 95.1106 85.4919 95.1106 85.5871Z" fill="#E7E9EF"/>
<path d="M84.1006 90.9321H79.8242V99.9494H84.1006V90.9321Z" fill="#F9F9FF"/>
<path d="M95.1106 103.487C95.1106 103.582 89.4573 103.661 82.483 103.661C75.5088 103.661 69.8555 103.582 69.8555 103.487C69.8555 103.392 75.5088 103.313 82.483 103.313C89.4573 103.313 95.1106 103.392 95.1106 103.487Z" fill="#E7E9EF"/>
<path d="M84.1006 109.37H79.8242V118.387H84.1006V109.37Z" fill="#F9F9FF"/>
<path d="M95.1106 121.925C95.1106 122.02 89.4573 122.099 82.483 122.099C75.5088 122.099 69.8555 122.02 69.8555 121.925C69.8555 121.83 75.5088 121.751 82.483 121.751C89.4573 121.751 95.1106 121.83 95.1106 121.925Z" fill="#E7E9EF"/>
<path d="M84.1006 127.813H79.8242V136.83H84.1006V127.813Z" fill="#F9F9FF"/>
<path d="M95.1106 140.368C95.1106 140.463 89.4573 140.541 82.483 140.541C75.5088 140.541 69.8555 140.463 69.8555 140.368C69.8555 140.273 75.5088 140.194 82.483 140.194C89.4573 140.194 95.1106 140.273 95.1106 140.368Z" fill="#E7E9EF"/>
<path d="M58.6211 91.2065H54.3447V100.224H58.6211V91.2065Z" fill="white"/>
<path d="M69.6311 103.761C69.6311 103.857 63.9778 103.935 57.0036 103.935C50.0293 103.935 44.376 103.857 44.376 103.761C44.376 103.666 50.0293 103.588 57.0036 103.588C63.9778 103.588 69.6311 103.666 69.6311 103.761Z" fill="#D8E0EA"/>
<path d="M58.6211 109.381H54.3447V118.399H58.6211V109.381Z" fill="white"/>
<path d="M69.6311 121.93C69.6311 122.026 63.9778 122.104 57.0036 122.104C50.0293 122.104 44.376 122.026 44.376 121.93C44.376 121.835 50.0293 121.757 57.0036 121.757C63.9778 121.757 69.6311 121.835 69.6311 121.93Z" fill="#D8E0EA"/>
<path d="M58.6211 127.55H54.3447V136.568H58.6211V127.55Z" fill="white"/>
<path d="M69.6311 140.105C69.6311 140.2 63.9778 140.278 57.0036 140.278C50.0293 140.278 44.376 140.2 44.376 140.105C44.376 140.01 50.0293 139.931 57.0036 139.931C63.9778 139.931 69.6311 140.01 69.6311 140.105Z" fill="#D8E0EA"/>
<path d="M128.565 125.58H162.379L162.53 72.1362H128.711L128.565 125.58Z" fill="#E7E9EF"/>
<path d="M128.712 125.585H145.621V72.1416H128.712V125.585Z" fill="#D8E0EA"/>
<path d="M146.729 72.1362H158.668V61.6132H146.729V72.1362Z" fill="#E7E9EF"/>
<path d="M146.729 72.1362H149.572V61.6132H146.729V72.1362Z" fill="#D8E0EA"/>
<path d="M127.72 72.1362H165.346V71.5205H127.72V72.1362Z" fill="#D8E0EA"/>
<path d="M152.992 82.7656H155.853V76.7317H152.992V82.7656Z" fill="white"/>
<path d="M145.621 85.1332C145.621 85.1947 149.405 85.2507 154.073 85.2507C158.741 85.2507 162.525 85.2003 162.525 85.1332C162.525 85.0716 158.741 85.0156 154.073 85.0156C149.405 85.0156 145.621 85.066 145.621 85.1332Z" fill="#D8E0EA"/>
<path d="M135.937 82.7651H138.797V76.7312H135.937V82.7651Z" fill="#F9F9FF"/>
<path d="M128.565 85.1332C128.565 85.1947 132.349 85.2507 137.017 85.2507C141.686 85.2507 145.469 85.2003 145.469 85.1332C145.469 85.066 141.686 85.0156 137.017 85.0156C132.349 85.0156 128.565 85.066 128.565 85.1332Z" fill="#E7E9EF"/>
<path d="M135.937 94.7437H138.797V88.7097H135.937V94.7437Z" fill="#F9F9FF"/>
<path d="M128.565 97.1117C128.565 97.1733 132.349 97.2292 137.017 97.2292C141.686 97.2292 145.469 97.1789 145.469 97.1117C145.469 97.0501 141.686 96.9941 137.017 96.9941C132.349 96.9941 128.565 97.0445 128.565 97.1117Z" fill="#E7E9EF"/>
<path d="M135.937 107.091H138.797V101.057H135.937V107.091Z" fill="#F9F9FF"/>
<path d="M128.565 109.459C128.565 109.521 132.349 109.577 137.017 109.577C141.686 109.577 145.469 109.527 145.469 109.459C145.469 109.392 141.686 109.342 137.017 109.342C132.349 109.342 128.565 109.392 128.565 109.459Z" fill="#E7E9EF"/>
<path d="M135.937 119.434H138.797V113.4H135.937V119.434Z" fill="#F9F9FF"/>
<path d="M128.565 121.802C128.565 121.863 132.349 121.919 137.017 121.919C141.686 121.919 145.469 121.869 145.469 121.802C145.469 121.734 141.686 121.684 137.017 121.684C132.349 121.684 128.565 121.734 128.565 121.802Z" fill="#E7E9EF"/>
<path d="M152.992 94.9287H155.853V88.8948H152.992V94.9287Z" fill="white"/>
<path d="M145.621 97.2963C145.621 97.3578 149.405 97.4138 154.073 97.4138C158.741 97.4138 162.525 97.3634 162.525 97.2963C162.525 97.2291 158.741 97.1787 154.073 97.1787C149.405 97.1787 145.621 97.2291 145.621 97.2963Z" fill="#D8E0EA"/>
<path d="M152.992 107.097H155.853V101.063H152.992V107.097Z" fill="white"/>
<path d="M145.621 109.465C145.621 109.526 149.405 109.582 154.073 109.582C158.741 109.582 162.525 109.532 162.525 109.465C162.525 109.403 158.741 109.347 154.073 109.347C149.405 109.347 145.621 109.398 145.621 109.465Z" fill="#D8E0EA"/>
<path d="M152.992 119.26H155.853V113.226H152.992V119.26Z" fill="white"/>
<path d="M145.621 121.628C145.621 121.689 149.405 121.745 154.073 121.745C158.741 121.745 162.525 121.695 162.525 121.628C162.525 121.561 158.741 121.51 154.073 121.51C149.405 121.51 145.621 121.561 145.621 121.628Z" fill="#D8E0EA"/>
<path d="M235.855 54.9078C236.068 53.3797 233.907 52.1203 232.284 51.9916C231.511 51.93 230.705 52.0476 229.972 51.7901C228.383 51.2359 227.75 49.1873 226.2 48.5324C225.041 48.0455 223.709 48.4765 222.584 49.0418C221.459 49.6071 220.35 50.318 219.097 50.3963C218.005 50.4635 216.818 50.0605 215.867 50.5922C215.156 50.9897 214.781 51.8069 214.126 52.2938C213.482 52.7696 212.648 52.8648 211.854 52.9095C211.059 52.9543 210.236 52.9599 209.508 53.2902C208.786 53.6204 208.182 54.3872 208.333 55.1709L235.849 54.8966L235.855 54.9078Z" fill="#F9F9FF"/>
<path d="M168.491 11.3101C168.822 8.91444 165.441 6.94418 162.905 6.74267C161.696 6.64752 160.437 6.83223 159.289 6.42922C156.804 5.56163 155.814 2.35436 153.384 1.33005C151.571 0.563216 149.483 1.24609 147.725 2.13047C145.968 3.01485 144.233 4.12872 142.268 4.25186C140.561 4.36381 138.702 3.72571 137.208 4.55971C136.094 5.18102 135.512 6.4628 134.482 7.22404C133.48 7.96289 132.17 8.11962 130.922 8.18678C129.674 8.25395 128.387 8.26515 127.25 8.7857C126.114 9.30625 125.179 10.5041 125.414 11.7299L168.486 11.3045L168.491 11.3101Z" fill="#E7E9EF"/>
<path d="M53.4041 44.4239C53.6672 42.5153 50.9749 40.9424 48.9486 40.7801C47.9859 40.7017 46.9784 40.8473 46.066 40.5338C44.0845 39.8453 43.2953 37.2818 41.3586 36.4701C39.9145 35.86 38.2521 36.403 36.8472 37.1082C35.4479 37.8135 34.0597 38.7035 32.4981 38.7986C31.1379 38.8882 29.6602 38.3788 28.468 39.0449C27.578 39.5431 27.1134 40.5618 26.2962 41.1663C25.4958 41.754 24.4491 41.8828 23.4584 41.9331C22.4677 41.9891 21.4377 41.9947 20.531 42.4089C19.6242 42.8231 18.8798 43.7803 19.0645 44.7542L53.4041 44.4128V44.4239Z" fill="#F9F9FF"/>
<path d="M39.2767 94.9511C32.9349 95.0966 27.7574 100.269 27.6063 106.61C27.5391 109.325 28.3843 111.844 29.8564 113.881L29.9739 114.038C29.9739 114.044 29.9851 114.055 29.9907 114.06L38.4539 125.574C39.1983 126.587 40.7264 126.554 41.4261 125.513L49.0776 114.139C50.5273 111.928 51.5181 109.622 51.5181 106.901C51.5181 100.201 46.0103 94.7944 39.2767 94.9511ZM39.5622 115.6C34.5973 115.6 30.5728 111.575 30.5728 106.61C30.5728 101.645 34.5973 97.621 39.5622 97.621C44.527 97.621 48.5515 101.645 48.5515 106.61C48.5515 111.575 44.527 115.6 39.5622 115.6Z" fill="#F84E27"/>
<g opacity="0.3">
<path d="M39.2767 94.9511C32.9349 95.0966 27.7574 100.269 27.6063 106.61C27.5391 109.325 28.3843 111.844 29.8564 113.881L29.9739 114.038C29.9739 114.044 29.9851 114.055 29.9907 114.06L38.4539 125.574C39.1983 126.587 40.7264 126.554 41.4261 125.513L49.0776 114.139C50.5273 111.928 51.5181 109.622 51.5181 106.901C51.5181 100.201 46.0103 94.7944 39.2767 94.9511ZM39.5622 115.6C34.5973 115.6 30.5728 111.575 30.5728 106.61C30.5728 101.645 34.5973 97.621 39.5622 97.621C44.527 97.621 48.5515 101.645 48.5515 106.61C48.5515 111.575 44.527 115.6 39.5622 115.6Z" fill="#141414"/>
</g>
<path d="M38.5658 94.9511C32.224 95.0966 27.0465 100.269 26.8953 106.61C26.8282 109.325 27.6734 111.844 29.1455 113.881L29.263 114.038C29.263 114.044 29.2742 114.055 29.2798 114.06L37.743 125.574C38.4874 126.587 40.0155 126.554 40.7151 125.513L48.3667 114.139C49.8164 111.928 50.8071 109.622 50.8071 106.901C50.8071 100.201 45.2994 94.7944 38.5658 94.9511ZM38.8512 113.976C35.0898 113.976 32.0449 110.931 32.0449 107.17C32.0449 103.409 35.0954 100.364 38.8512 100.364C42.607 100.364 45.6576 103.409 45.6576 107.17C45.6576 110.931 42.6126 113.976 38.8512 113.976Z" fill="#F84E27"/>
<path d="M220.866 86.2246C216.03 86.3366 212.089 90.2771 211.972 95.1132C211.921 97.1842 212.565 99.0985 213.684 100.655L213.774 100.778C213.774 100.783 213.779 100.789 213.785 100.794L220.239 109.571C220.804 110.344 221.968 110.321 222.506 109.526L228.338 100.856C229.441 99.1712 230.196 97.4137 230.196 95.3427C230.196 90.2379 225.998 86.1127 220.871 86.2358L220.866 86.2246ZM221.084 101.959C217.3 101.959 214.233 98.8914 214.233 95.1076C214.233 91.3238 217.3 88.2564 221.084 88.2564C224.868 88.2564 227.935 91.3238 227.935 95.1076C227.935 98.8914 224.868 101.959 221.084 101.959Z" fill="#F84E27"/>
<g opacity="0.3">
<path d="M220.866 86.2246C216.03 86.3366 212.089 90.2771 211.972 95.1132C211.921 97.1842 212.565 99.0985 213.684 100.655L213.774 100.778C213.774 100.783 213.779 100.789 213.785 100.794L220.239 109.571C220.804 110.344 221.968 110.321 222.506 109.526L228.338 100.856C229.441 99.1712 230.196 97.4137 230.196 95.3427C230.196 90.2379 225.998 86.1127 220.871 86.2358L220.866 86.2246ZM221.084 101.959C217.3 101.959 214.233 98.8914 214.233 95.1076C214.233 91.3238 217.3 88.2564 221.084 88.2564C224.868 88.2564 227.935 91.3238 227.935 95.1076C227.935 98.8914 224.868 101.959 221.084 101.959Z" fill="#141414"/>
</g>
<path d="M220.329 86.2246C215.492 86.3366 211.552 90.2771 211.434 95.1132C211.384 97.1842 212.028 99.0985 213.147 100.655L213.237 100.778C213.237 100.783 213.242 100.789 213.248 100.794L219.702 109.571C220.267 110.344 221.431 110.321 221.969 109.526L227.801 100.856C228.904 99.1712 229.659 97.4137 229.659 95.3427C229.659 90.2379 225.461 86.1127 220.334 86.2358L220.329 86.2246ZM220.547 100.722C217.681 100.722 215.358 98.3988 215.358 95.533C215.358 92.6671 217.681 90.3442 220.547 90.3442C223.413 90.3442 225.736 92.6671 225.736 95.533C225.736 98.3988 223.413 100.722 220.547 100.722Z" fill="#F84E27"/>
<path d="M40.1441 129.498L0.167969 228.772L75.1275 216.447L130.093 228.772L186.391 216.447L261.681 230.81L221.375 129.498L176.4 118.169L130.927 126.834L84.4526 118.169L40.1441 129.498Z" fill="white"/>
<path d="M40.1443 129.498C40.1443 129.498 40.3906 129.431 40.8776 129.302C41.3701 129.173 42.1034 128.983 43.0661 128.731C45.0028 128.233 47.8798 127.488 51.6413 126.52C59.1753 124.583 70.2524 121.74 84.436 118.096H84.4528H84.4696C97.2763 120.475 112.999 123.397 130.95 126.733H130.911C144.523 124.136 159.871 121.203 176.378 118.051H176.406H176.434C190.399 121.566 205.534 125.373 221.408 129.363L221.476 129.38L221.498 129.442C233.818 160.39 247.436 194.612 261.821 230.748L261.916 230.994L261.659 230.944C249.277 228.582 236.197 226.085 222.931 223.555C210.572 221.199 198.37 218.87 186.369 216.581H186.425C167.081 220.813 148.257 224.932 130.121 228.901H130.093H130.065C110.911 224.602 92.5354 220.477 75.0997 216.564H75.15C47.6112 221.087 22.3952 225.223 0.190571 228.867L0.00585938 228.901L0.0786247 228.727C12.4431 198.076 22.4568 173.263 29.3807 156.102C32.8454 147.532 35.5321 140.877 37.3625 136.36C38.2748 134.11 38.9745 132.386 39.4447 131.233C39.9148 130.08 40.1611 129.492 40.1611 129.492C40.1611 129.492 39.9316 130.091 39.4671 131.255C39.0025 132.42 38.314 134.144 37.4072 136.405C35.5937 140.928 32.9182 147.594 29.4758 156.18C22.5799 173.336 12.6055 198.155 0.285726 228.806L0.168182 228.66C22.3728 225 47.5832 220.846 75.1221 216.312H75.1445H75.1668C92.6025 220.219 110.979 224.339 130.138 228.627H130.077C148.212 224.652 167.03 220.533 186.375 216.296H186.403H186.431C198.431 218.585 210.628 220.913 222.992 223.27C236.258 225.8 249.339 228.296 261.72 230.658L261.558 230.854C247.184 194.712 233.571 160.49 221.263 129.537L221.352 129.615C205.478 125.613 190.349 121.796 176.383 118.275H176.434C159.922 121.415 144.574 124.331 130.955 126.923H130.939H130.922C112.977 123.57 97.2595 120.632 84.4528 118.236H84.4864C70.3084 121.841 59.2368 124.662 51.7028 126.576C47.9358 127.533 45.0532 128.261 43.1109 128.753C42.1426 129 41.4037 129.184 40.9112 129.308C40.4186 129.431 40.1667 129.487 40.1667 129.487L40.1443 129.498Z" fill="#3859CF"/>
<path d="M42.4786 132.162L7.16504 223.774L74.792 212.78L130.928 225.772L186.392 212.45L255.356 225.772L219.041 132.162L177.066 121.835L130.928 130.494L83.7869 121.835L42.4786 132.162Z" fill="white"/>
<path d="M11.0889 213.592L64.8401 201.143L62.8586 189.568L67.3253 186.753L60.379 159.712L38.8796 141.493L11.0889 213.592Z" fill="#C6CBDE"/>
<path d="M7.16504 223.774L9.78459 216.973L99.9128 196.033L104.811 209.512L103.221 212.232L86.2945 215.445L74.792 212.78L7.16504 223.774Z" fill="#E7E9EF"/>
<path d="M104.811 194.729L108.387 208.062L118.765 212.573L133.53 206.013L164.512 196.985L154.845 182.426L104.811 194.729Z" fill="#E7E9EF"/>
<path d="M68.8087 199.666L85.5559 196.033L82.2143 185.152L70.0121 188.102L66.7656 190.397L68.8087 199.666Z" fill="#D8E0EA"/>
<path d="M65.3887 163.608L71.4674 183.562L80.9716 181.469L79.2589 173.806L100.165 169.121L65.3887 163.608Z" fill="#C6CBDE"/>
<path d="M40.4639 137.39L66.7657 158.509L101.682 165.13L138.932 155.867L121.927 128.843L83.7872 121.835L42.4789 132.162L40.4639 137.39Z" fill="#E7E9EF"/>
<path d="M127.015 129.778L181.617 213.592L186.391 212.45L133.541 130.002L130.927 130.494L127.015 129.778Z" fill="#E7E9EF"/>
<path d="M82.7734 175.917L89.6973 196.033L151.117 180.344L139.749 160.994L82.7734 175.917Z" fill="#D8E0EA"/>
<path d="M116.945 222.537L117.544 221.647L121.58 215.652L131.258 212.573L137.919 207.558L166.784 199.666L175.751 215.003L130.927 225.772" fill="#D8E0EA"/>
<path d="M168.083 123.52L182.552 139.612L219.041 132.162L177.067 121.835L168.083 123.52Z" fill="#D8E0EA"/>
<path d="M226.72 151.96L199.92 159.41L186.392 141.493L219.959 134.519L226.72 151.96Z" fill="#D8E0EA"/>
<path d="M136.413 129.464L164.512 169.832L196.943 160.524L164.512 124.191L136.413 129.464Z" fill="#E7E9EF"/>
<path d="M214.972 217.969L247.397 205.269L255.356 225.772L214.972 217.969Z" fill="#D8E0EA"/>
<path d="M181.062 167.414L198.677 162.824L217.288 185.152L199.175 191.169L181.062 167.414Z" fill="#C6CBDE"/>
<path d="M202.651 160.994L222.253 183.467L237.019 178.514L227.313 153.482L202.651 160.994Z" fill="#D8E0EA"/>
<path d="M217.288 212.719L202.651 192.412L238.038 181.127L245.225 199.666L240.618 204.312L217.288 212.719Z" fill="#C6CBDE"/>
<path d="M166.235 172.799L193.136 213.592L209.699 216.95L212.822 215.523L178.74 169.032L166.235 172.799Z" fill="#D8E0EA"/>
<path d="M55.9851 203.198L49.2851 171.685L25.6531 175.816L11.0889 213.592L55.9851 203.198Z" fill="#D8E0EA"/>
<path d="M77.7197 123.352V137.776L82.7741 138.42L96.9018 154.876L109.048 153.483L114.83 161.862L101.682 165.131L66.7657 158.509L40.4639 137.39L42.4789 132.162L77.7197 123.352Z" fill="#C6CBDE"/>
<path d="M151.576 126.744L171.419 155.699L188.513 151.081L164.512 124.191L151.576 126.744Z" fill="#D8E0EA"/>
<path d="M209.827 156.656L202.651 145.433L222.063 139.942L226.72 151.96L209.827 156.656Z" fill="#E7E9EF"/>
<path d="M181.062 195.283L190.455 192.037L208.68 216.743L193.136 213.592L181.062 195.283Z" fill="#E7E9EF"/>
<path d="M94.3828 217.314L103.12 216.251L106.031 211.991L116.946 215.422L114.091 221.876L94.3828 217.314Z" fill="#C6CBDE"/>
<path d="M42.4784 132.162C42.4784 132.162 43.3963 131.921 45.2043 131.462C47.0122 131.009 49.6933 130.332 53.1973 129.447C60.2219 127.684 70.549 125.087 83.7699 121.768H83.7867H83.8035C96.6717 124.124 112.624 127.046 130.95 130.399H130.911C144.708 127.802 160.274 124.874 177.049 121.717H177.077H177.105C190.226 124.941 204.325 128.406 219.085 132.033L219.153 132.05L219.175 132.112C230.291 160.759 242.566 192.395 255.502 225.716L255.597 225.962L255.339 225.912C244.29 223.779 232.592 221.518 220.742 219.228C209.128 216.984 197.659 214.767 186.38 212.59H186.442C167.349 217.174 148.8 221.63 130.972 225.912H130.939H130.905C111.236 221.355 92.4681 217.006 74.775 212.909H74.8254C49.9844 216.939 27.2648 220.628 7.19279 223.88L7.01367 223.908L7.08084 223.734C18.0124 195.434 26.8562 172.535 32.9741 156.701C36.0358 148.797 38.4091 142.657 40.0211 138.492C40.8272 136.416 41.4429 134.832 41.8571 133.763C42.2713 132.699 42.4896 132.156 42.4896 132.156C42.4896 132.156 42.2881 132.71 41.8795 133.785C41.4709 134.86 40.8607 136.449 40.0603 138.537C38.4595 142.713 36.0974 148.859 33.0581 156.779C26.9682 172.608 18.158 195.513 7.27675 223.807L7.1592 223.667C27.2312 220.398 49.9396 216.698 74.7806 212.652H74.803H74.8254C92.5185 216.743 111.292 221.087 130.961 225.632H130.899C148.727 221.35 167.277 216.889 186.363 212.299H186.391H186.425C197.704 214.476 209.173 216.693 220.787 218.937C232.637 221.227 244.335 223.488 255.384 225.626L255.222 225.822C242.298 192.49 230.028 160.854 218.923 132.207L219.013 132.285C204.258 128.652 190.158 125.176 177.038 121.947H177.089C160.313 125.092 144.742 128.009 130.944 130.589H130.927H130.911C112.591 127.214 96.6438 124.27 83.7755 121.896H83.8035C70.5826 125.182 60.2611 127.751 53.2364 129.498C49.7213 130.365 47.0346 131.031 45.2267 131.479C43.4187 131.927 42.4784 132.151 42.4784 132.151V132.162Z" fill="#3859CF"/>
<g opacity="0.2">
<path d="M130.094 228.772L130.928 126.834L84.4531 118.169L75.1279 216.447L130.094 228.772Z" fill="#141414"/>
</g>
<g opacity="0.2">
<path d="M176.4 118.169L186.392 216.447L261.681 230.81L221.375 129.498L176.4 118.169Z" fill="#141414"/>
</g>
<path d="M131.285 30.3692C98.8153 31.1248 72.3399 57.5834 71.5675 90.0536C71.2372 103.957 75.5584 116.831 83.07 127.259H83.0532L83.6521 128.076C83.6801 128.115 83.7081 128.155 83.7361 128.188L127.065 187.117C130.877 192.306 138.685 192.143 142.279 186.798L181.438 128.58C188.848 117.279 193.931 105.463 193.931 91.5369C193.931 57.2588 165.748 29.5632 131.285 30.3636V30.3692ZM132.741 136.041C107.334 136.041 86.7362 115.443 86.7362 90.0368C86.7362 64.6305 107.334 44.0323 132.741 44.0323C158.147 44.0323 178.745 64.6305 178.745 90.0368C178.745 115.443 158.147 136.041 132.741 136.041Z" fill="#3859CF"/>
<g opacity="0.3">
<path d="M131.285 30.3692C98.8153 31.1248 72.3399 57.5834 71.5675 90.0536C71.2372 103.957 75.5584 116.831 83.07 127.259H83.0532L83.6521 128.076C83.6801 128.115 83.7081 128.155 83.7361 128.188L127.065 187.117C130.877 192.306 138.685 192.143 142.279 186.798L181.438 128.58C188.848 117.279 193.931 105.463 193.931 91.5369C193.931 57.2588 165.748 29.5632 131.285 30.3636V30.3692ZM132.164 121.511C114.784 121.511 100.69 107.422 100.69 90.0368C100.69 72.6515 114.779 58.563 132.164 58.563C149.549 58.563 163.638 72.6515 163.638 90.0368C163.638 107.422 149.549 121.511 132.164 121.511Z" fill="#141414"/>
</g>
<path d="M127.658 30.3692C95.1883 31.1248 68.7129 57.5834 67.9405 90.0536C67.6103 103.957 71.9314 116.831 79.443 127.259H79.4262L80.0251 128.076C80.0531 128.115 80.0811 128.155 80.1091 128.188L123.438 187.117C127.25 192.306 135.058 192.143 138.652 186.798L177.811 128.58C185.221 117.279 190.304 105.463 190.304 91.5369C190.304 57.2588 162.121 29.5632 127.658 30.3636V30.3692ZM129.685 121.511C112.305 121.511 98.2109 107.422 98.2109 90.0368C98.2109 72.6515 112.299 58.563 129.685 58.563C147.07 58.563 161.158 72.6515 161.158 90.0368C161.158 107.422 147.07 121.511 129.685 121.511Z" fill="#3859CF"/>
</g>
<defs>
<clipPath id="clip0_4347_89571">
<rect width="262" height="231" fill="white"/>
</clipPath>
</defs>
</svg>
