<svg width="24" height="24" viewBox="0 0 24 24" fill="none" xmlns="http://www.w3.org/2000/svg">
<g clip-path="url(#clip0_758_9257)">
<path d="M1.13661 16.9543H22.9071C23.197 16.9543 23.4749 17.0694 23.6799 17.2744C23.8849 17.4793 24 17.7573 24 18.0472C24 18.7254 23.7306 19.3759 23.251 19.8555C22.7714 20.3351 22.1209 20.6046 21.4426 20.6046H2.55738C1.88663 20.6047 1.24268 20.3412 0.76432 19.871C0.285956 19.4009 0.0114658 18.7616 0 18.0909C0 17.801 0.115144 17.5231 0.320102 17.3181C0.52506 17.1131 0.803042 16.998 1.0929 16.998L1.13661 16.9543Z" stroke="white" stroke-width="1.5" stroke-miterlimit="10"/>
<path d="M1.81421 16.9542C1.81421 16.7247 1.81421 16.4952 1.81421 16.2657C1.81421 10.9651 6.39344 6.68097 12.0437 6.68097C17.694 6.68097 22.2514 10.9214 22.2514 16.2657C22.2514 16.4952 22.2514 16.7247 22.2514 16.9542"/>
<path d="M1.81421 16.9542C1.81421 16.7247 1.81421 16.4952 1.81421 16.2657C1.81421 10.9651 6.39344 6.68097 12.0437 6.68097C17.694 6.68097 22.2514 10.9214 22.2514 16.2657C22.2514 16.4952 22.2514 16.7247 22.2514 16.9542" stroke="white" stroke-width="1.5" stroke-miterlimit="10"/>
<path d="M4.92678 13.2566C5.67883 11.9052 6.80501 10.7996 8.17009 10.0726L4.92678 13.2566Z"/>
<path d="M4.92678 13.2566C5.67883 11.9052 6.80501 10.7996 8.17009 10.0726" stroke="white" stroke-width="1.5" stroke-miterlimit="10" stroke-linecap="round"/>
<path d="M11.9999 7.36364C13.2049 7.36364 14.1818 6.3868 14.1818 5.18182C14.1818 3.97683 13.2049 3 11.9999 3C10.7949 3 9.81812 3.97683 9.81812 5.18182C9.81812 6.3868 10.7949 7.36364 11.9999 7.36364Z"/>
</g>
<defs>
<clipPath id="clip0_758_9257">
<rect width="24" height="24" fill="white"/>
</clipPath>
</defs>
</svg>
