<svg width="24" height="19" viewBox="0 0 24 19" fill="none" xmlns="http://www.w3.org/2000/svg">
<path d="M1.13661 13.9541H22.9071C23.197 13.9541 23.4749 14.0692 23.6799 14.2742C23.8849 14.4792 24 14.7571 24 15.047C24 15.7253 23.7306 16.3757 23.251 16.8553C22.7714 17.3349 22.1209 17.6044 21.4426 17.6044H2.55738C1.88663 17.6045 1.24268 17.341 0.76432 16.8709C0.285956 16.4007 0.0114658 15.7614 0 15.0907C0 14.8009 0.115144 14.5229 0.320102 14.3179C0.52506 14.113 0.803042 13.9978 1.0929 13.9978L1.13661 13.9541Z" fill="#F84E27" stroke="white" stroke-width="1.5" stroke-miterlimit="10"/>
<path d="M1.81445 13.9539C1.81445 13.7244 1.81445 13.4949 1.81445 13.2654C1.81445 7.96482 6.39369 3.68066 12.044 3.68066C17.6942 3.68066 22.2516 7.9211 22.2516 13.2654C22.2516 13.4949 22.2516 13.7244 22.2516 13.9539" fill="#F84E27"/>
<path d="M1.81445 13.9539C1.81445 13.7244 1.81445 13.4949 1.81445 13.2654C1.81445 7.96482 6.39369 3.68066 12.044 3.68066C17.6942 3.68066 22.2516 7.9211 22.2516 13.2654C22.2516 13.4949 22.2516 13.7244 22.2516 13.9539" stroke="white" stroke-width="1.5" stroke-miterlimit="10"/>
<path d="M4.9258 10.2567C5.67785 8.9053 6.80404 7.79971 8.16911 7.07273L4.9258 10.2567Z" fill="#F84E27"/>
<path d="M4.9258 10.2567C5.67785 8.9053 6.80404 7.79971 8.16911 7.07273" stroke="white" stroke-width="1.5" stroke-miterlimit="10" stroke-linecap="round"/>
<path d="M12.0002 4.36364C13.2052 4.36364 14.182 3.3868 14.182 2.18182C14.182 0.976833 13.2052 0 12.0002 0C10.7952 0 9.81836 0.976833 9.81836 2.18182C9.81836 3.3868 10.7952 4.36364 12.0002 4.36364Z" fill="#F84E27"/>
</svg>
