<svg width="24" height="17" viewBox="0 0 24 17" fill="none" xmlns="http://www.w3.org/2000/svg">
<path d="M2.04189 12.7915H21.9982C22.2639 12.7915 22.5187 12.8971 22.7066 13.0849C22.8945 13.2728 23 13.5276 23 13.7933C23 14.4151 22.753 15.0113 22.3134 15.451C21.8737 15.8906 21.2775 16.1376 20.6557 16.1376H3.34426C2.72941 16.1377 2.13913 15.8962 1.70063 15.4652C1.26213 15.0342 1.01051 14.4482 1 13.8334V13.8334C1 13.5677 1.10555 13.3129 1.29343 13.125C1.4813 12.9371 1.73612 12.8316 2.00182 12.8316L2.04189 12.7915Z" stroke="#101323" stroke-width="1.5" stroke-miterlimit="10"/>
<path d="M13.25 2C13.25 2.69036 12.6904 3.25 12 3.25C11.3096 3.25 10.75 2.69036 10.75 2C10.75 1.30964 11.3096 0.75 12 0.75C12.6904 0.75 13.25 1.30964 13.25 2Z" stroke="#101323" stroke-width="1.5" stroke-miterlimit="10"/>
<path fill-rule="evenodd" clip-rule="evenodd" d="M13.8455 2.77441C13.5429 3.49444 12.831 4.00004 12.001 4.00004C11.1764 4.00004 10.4683 3.50101 10.1624 2.78848C5.49702 3.61381 1.91406 7.45634 1.91406 12.1603V12.1615V12.1628V12.164V12.1652V12.1665V12.1677V12.1689V12.1701V12.1714V12.1726V12.1738V12.1751V12.1763V12.1775V12.1788V12.18V12.1812V12.1825V12.1837V12.1849V12.1862V12.1874V12.1886V12.1899V12.1911V12.1923V12.1936V12.1948V12.196V12.1973V12.1985V12.1997V12.201V12.2022V12.2034V12.2047V12.2059V12.2071V12.2084V12.2096V12.2108V12.2121V12.2133V12.2145V12.2158V12.217V12.2182V12.2195V12.2207V12.2219V12.2232V12.2244V12.2256V12.2269V12.2281V12.2293V12.2306V12.2318V12.233V12.2342V12.2355V12.2367V12.2379V12.2392V12.2404V12.2416V12.2429V12.2441V12.2453V12.2466V12.2478V12.249V12.2503V12.2515V12.2527V12.254V12.2552V12.2564V12.2577V12.2589V12.2601V12.2614V12.2626V12.2638V12.2651V12.2663V12.2675V12.2688V12.27V12.2712V12.2725V12.2737V12.2749V12.2762V12.2774V12.2786V12.2799V12.2811V12.2823V12.2836V12.2848V12.286V12.2873V12.2885V12.2897V12.291V12.2922V12.2934V12.2947V12.2959V12.2971V12.2984V12.2996V12.3008V12.302V12.3033V12.3045V12.3057V12.307V12.3082V12.3094V12.3107V12.3119V12.3131V12.3144V12.3156V12.3168V12.3181V12.3193V12.3205V12.3218V12.323V12.3242V12.3255V12.3267V12.3279V12.3292V12.3304V12.3316V12.3329V12.3341V12.3353V12.3366V12.3378V12.339V12.3403V12.3415V12.3427V12.344V12.3452V12.3464V12.3477V12.3489V12.3501V12.3514V12.3526V12.3538V12.3551V12.3563V12.3575V12.3588V12.36V12.3612V12.3625V12.3637V12.3649V12.3661V12.3674V12.3686V12.3698V12.3711V12.3723V12.3735V12.3748V12.376V12.3772V12.3785V12.3797V12.3809V12.3822V12.3834V12.3846V12.3859V12.3871V12.3883V12.3896V12.3908V12.392V12.3933V12.3945V12.3957V12.397V12.3982V12.3994V12.4007V12.4019V12.4031V12.4044V12.4056V12.4068V12.4081V12.4093V12.4105V12.4118V12.413V12.4142V12.4155V12.4167V12.4179V12.4192V12.4204V12.4216V12.4229V12.4241V12.4253V12.4266V12.4278V12.429V12.4303V12.4315V12.4327V12.4339V12.4352V12.4364V12.4376V12.4389V12.4401V12.4413V12.4426V12.4438V12.445V12.4463V12.4475V12.4487V12.45V12.4512V12.4524V12.4537V12.4549V12.4561V12.4574V12.4586V12.4598V12.4611V12.4623V12.4635V12.4648V12.466V12.4672V12.4685V12.4697V12.4709V12.4722V12.4734V12.4746V12.4759V12.4771V12.4783V12.4796V12.4808V12.482V12.4833V12.4845V12.4857V12.487V12.4882V12.4894V12.4907V12.4919V12.4931V12.4944V12.4956V12.4968V12.498V12.4993V12.5005V12.5017V12.503V12.5042V12.5054V12.5067V12.5079V12.5091V12.5104V12.5116V12.5128V12.5141V12.5153V12.5165V12.5178V12.519V12.5202V12.5215V12.5227V12.5239V12.5252V12.5264V12.5276V12.5289V12.5301V12.5313V12.5326V12.5338V12.535V12.5363V12.5375V12.5387V12.54V12.5412V12.5424V12.5437V12.5449V12.5461V12.5474V12.5486V12.5498V12.5511V12.5523V12.5535V12.5548V12.556V12.5572V12.5585V12.5597V12.5609V12.5622V12.5634V12.5646V12.5658V12.5671V12.5683V12.5695V12.5708V12.572V12.5732V12.5745V12.5757V12.5769V12.5782V12.5794V12.5806V12.5819V12.5831V12.5843V12.5856V12.5868V12.588V12.5893V12.5905V12.5917V12.593V12.5942V12.5954V12.5967V12.5979V12.5991V12.6004V12.6016V12.6028V12.6041V12.6053V12.6065V12.6078V12.609V12.6102V12.6115V12.6127V12.6139V12.6152V12.6164V12.6176V12.6189V12.6201V12.6213V12.6226V12.6238V12.625V12.6263V12.6275V12.6287V12.6299V12.6312V12.6324V12.6336V12.6349V12.6361V12.6373V12.6386V12.6398V12.641V12.6423V12.6435V12.6447V12.646V12.6472V12.6484V12.6497V12.6509V12.6521V12.6534V12.6546V12.6558V12.6571V12.6583V12.6595V12.6608V12.662V12.6632V12.6645V12.6657V12.6669V12.6682V12.6694V12.6706V12.6719V12.6731V12.6743V12.6756V12.6768V12.678V12.6793V12.6805V12.6817V12.683V12.6842V12.6854V12.6867V12.6879V12.6891V12.6904V12.6916V12.6928V12.694V12.6953V12.6965V12.6977V12.699V12.7002V12.7014V12.7027V12.7039V12.7051V12.7064V12.7076V12.7088V12.7101V12.7113V12.7125V12.7138V12.715V12.7162V12.7175V12.7187V12.7199V12.7212V12.7224V12.7236V12.7249V12.7261V12.7273V12.7286V12.7298V12.731V12.7323V12.7335V12.7347V12.736V12.7372V12.7384V12.7397V12.7409V12.7421V12.7434V12.7446V12.7458V12.7471V12.7483V12.7495V12.7508V12.752V12.7532V12.7545V12.7557V12.7569V12.7582V12.7594V12.7606V12.7618V12.7631V12.7643V12.7655V12.7668V12.768V12.7692V12.7705V12.7717V12.7729V12.7742V12.7754V12.7766V12.7779V12.7791V12.7803V12.7816V12.7828V12.784V12.7853V12.7865V12.7877V12.789V12.7902V12.7914H3.41406V12.7902V12.789V12.7877V12.7865V12.7853V12.784V12.7828V12.7816V12.7803V12.7791V12.7779V12.7766V12.7754V12.7742V12.7729V12.7717V12.7705V12.7692V12.768V12.7668V12.7655V12.7643V12.7631V12.7618V12.7606V12.7594V12.7582V12.7569V12.7557V12.7545V12.7532V12.752V12.7508V12.7495V12.7483V12.7471V12.7458V12.7446V12.7434V12.7421V12.7409V12.7397V12.7384V12.7372V12.736V12.7347V12.7335V12.7323V12.731V12.7298V12.7286V12.7273V12.7261V12.7249V12.7236V12.7224V12.7212V12.7199V12.7187V12.7175V12.7162V12.715V12.7138V12.7125V12.7113V12.7101V12.7088V12.7076V12.7064V12.7051V12.7039V12.7027V12.7014V12.7002V12.699V12.6977V12.6965V12.6953V12.694V12.6928V12.6916V12.6904V12.6891V12.6879V12.6867V12.6854V12.6842V12.683V12.6817V12.6805V12.6793V12.678V12.6768V12.6756V12.6743V12.6731V12.6719V12.6706V12.6694V12.6682V12.6669V12.6657V12.6645V12.6632V12.662V12.6608V12.6595V12.6583V12.6571V12.6558V12.6546V12.6534V12.6521V12.6509V12.6497V12.6484V12.6472V12.646V12.6447V12.6435V12.6423V12.641V12.6398V12.6386V12.6373V12.6361V12.6349V12.6336V12.6324V12.6312V12.6299V12.6287V12.6275V12.6263V12.625V12.6238V12.6226V12.6213V12.6201V12.6189V12.6176V12.6164V12.6152V12.6139V12.6127V12.6115V12.6102V12.609V12.6078V12.6065V12.6053V12.6041V12.6028V12.6016V12.6004V12.5991V12.5979V12.5967V12.5954V12.5942V12.593V12.5917V12.5905V12.5893V12.588V12.5868V12.5856V12.5843V12.5831V12.5819V12.5806V12.5794V12.5782V12.5769V12.5757V12.5745V12.5732V12.572V12.5708V12.5695V12.5683V12.5671V12.5658V12.5646V12.5634V12.5622V12.5609V12.5597V12.5585V12.5572V12.556V12.5548V12.5535V12.5523V12.5511V12.5498V12.5486V12.5474V12.5461V12.5449V12.5437V12.5424V12.5412V12.54V12.5387V12.5375V12.5363V12.535V12.5338V12.5326V12.5313V12.5301V12.5289V12.5276V12.5264V12.5252V12.5239V12.5227V12.5215V12.5202V12.519V12.5178V12.5165V12.5153V12.5141V12.5128V12.5116V12.5104V12.5091V12.5079V12.5067V12.5054V12.5042V12.503V12.5017V12.5005V12.4993V12.498V12.4968V12.4956V12.4944V12.4931V12.4919V12.4907V12.4894V12.4882V12.487V12.4857V12.4845V12.4833V12.482V12.4808V12.4796V12.4783V12.4771V12.4759V12.4746V12.4734V12.4722V12.4709V12.4697V12.4685V12.4672V12.466V12.4648V12.4635V12.4623V12.4611V12.4598V12.4586V12.4574V12.4561V12.4549V12.4537V12.4524V12.4512V12.45V12.4487V12.4475V12.4463V12.445V12.4438V12.4426V12.4413V12.4401V12.4389V12.4376V12.4364V12.4352V12.4339V12.4327V12.4315V12.4303V12.429V12.4278V12.4266V12.4253V12.4241V12.4229V12.4216V12.4204V12.4192V12.4179V12.4167V12.4155V12.4142V12.413V12.4118V12.4105V12.4093V12.4081V12.4068V12.4056V12.4044V12.4031V12.4019V12.4007V12.3994V12.3982V12.397V12.3957V12.3945V12.3933V12.392V12.3908V12.3896V12.3883V12.3871V12.3859V12.3846V12.3834V12.3822V12.3809V12.3797V12.3785V12.3772V12.376V12.3748V12.3735V12.3723V12.3711V12.3698V12.3686V12.3674V12.3661V12.3649V12.3637V12.3625V12.3612V12.36V12.3588V12.3575V12.3563V12.3551V12.3538V12.3526V12.3514V12.3501V12.3489V12.3477V12.3464V12.3452V12.344V12.3427V12.3415V12.3403V12.339V12.3378V12.3366V12.3353V12.3341V12.3329V12.3316V12.3304V12.3292V12.3279V12.3267V12.3255V12.3242V12.323V12.3218V12.3205V12.3193V12.3181V12.3168V12.3156V12.3144V12.3131V12.3119V12.3107V12.3094V12.3082V12.307V12.3057V12.3045V12.3033V12.302V12.3008V12.2996V12.2984V12.2971V12.2959V12.2947V12.2934V12.2922V12.291V12.2897V12.2885V12.2873V12.286V12.2848V12.2836V12.2823V12.2811V12.2799V12.2786V12.2774V12.2762V12.2749V12.2737V12.2725V12.2712V12.27V12.2688V12.2675V12.2663V12.2651V12.2638V12.2626V12.2614V12.2601V12.2589V12.2577V12.2564V12.2552V12.254V12.2527V12.2515V12.2503V12.249V12.2478V12.2466V12.2453V12.2441V12.2429V12.2416V12.2404V12.2392V12.2379V12.2367V12.2355V12.2342V12.233V12.2318V12.2306V12.2293V12.2281V12.2269V12.2256V12.2244V12.2232V12.2219V12.2207V12.2195V12.2182V12.217V12.2158V12.2145V12.2133V12.2121V12.2108V12.2096V12.2084V12.2071V12.2059V12.2047V12.2034V12.2022V12.201V12.1997V12.1985V12.1973V12.196V12.1948V12.1936V12.1923V12.1911V12.1899V12.1886V12.1874V12.1862V12.1849V12.1837V12.1825V12.1812V12.18V12.1788V12.1775V12.1763V12.1751V12.1738V12.1726V12.1714V12.1701V12.1689V12.1677V12.1665V12.1652V12.164V12.1628V12.1615V12.1603C3.41406 7.76123 7.22882 4.12431 12.0411 4.12431C16.8535 4.12431 20.6481 7.7213 20.6481 12.1603V12.1615V12.1628V12.164V12.1652V12.1665V12.1677V12.1689V12.1701V12.1714V12.1726V12.1738V12.1751V12.1763V12.1775V12.1788V12.18V12.1812V12.1825V12.1837V12.1849V12.1862V12.1874V12.1886V12.1899V12.1911V12.1923V12.1936V12.1948V12.196V12.1973V12.1985V12.1997V12.201V12.2022V12.2034V12.2047V12.2059V12.2071V12.2084V12.2096V12.2108V12.2121V12.2133V12.2145V12.2158V12.217V12.2182V12.2195V12.2207V12.2219V12.2232V12.2244V12.2256V12.2269V12.2281V12.2293V12.2306V12.2318V12.233V12.2342V12.2355V12.2367V12.2379V12.2392V12.2404V12.2416V12.2429V12.2441V12.2453V12.2466V12.2478V12.249V12.2503V12.2515V12.2527V12.254V12.2552V12.2564V12.2577V12.2589V12.2601V12.2614V12.2626V12.2638V12.2651V12.2663V12.2675V12.2688V12.27V12.2712V12.2725V12.2737V12.2749V12.2762V12.2774V12.2786V12.2799V12.2811V12.2823V12.2836V12.2848V12.286V12.2873V12.2885V12.2897V12.291V12.2922V12.2934V12.2947V12.2959V12.2971V12.2984V12.2996V12.3008V12.302V12.3033V12.3045V12.3057V12.307V12.3082V12.3094V12.3107V12.3119V12.3131V12.3144V12.3156V12.3168V12.3181V12.3193V12.3205V12.3218V12.323V12.3242V12.3255V12.3267V12.3279V12.3292V12.3304V12.3316V12.3329V12.3341V12.3353V12.3366V12.3378V12.339V12.3403V12.3415V12.3427V12.344V12.3452V12.3464V12.3477V12.3489V12.3501V12.3514V12.3526V12.3538V12.3551V12.3563V12.3575V12.3588V12.36V12.3612V12.3625V12.3637V12.3649V12.3661V12.3674V12.3686V12.3698V12.3711V12.3723V12.3735V12.3748V12.376V12.3772V12.3785V12.3797V12.3809V12.3822V12.3834V12.3846V12.3859V12.3871V12.3883V12.3896V12.3908V12.392V12.3933V12.3945V12.3957V12.397V12.3982V12.3994V12.4007V12.4019V12.4031V12.4044V12.4056V12.4068V12.4081V12.4093V12.4105V12.4118V12.413V12.4142V12.4155V12.4167V12.4179V12.4192V12.4204V12.4216V12.4229V12.4241V12.4253V12.4266V12.4278V12.429V12.4303V12.4315V12.4327V12.4339V12.4352V12.4364V12.4376V12.4389V12.4401V12.4413V12.4426V12.4438V12.445V12.4463V12.4475V12.4487V12.45V12.4512V12.4524V12.4537V12.4549V12.4561V12.4574V12.4586V12.4598V12.4611V12.4623V12.4635V12.4648V12.466V12.4672V12.4685V12.4697V12.4709V12.4722V12.4734V12.4746V12.4759V12.4771V12.4783V12.4796V12.4808V12.482V12.4833V12.4845V12.4857V12.487V12.4882V12.4894V12.4907V12.4919V12.4931V12.4944V12.4956V12.4968V12.498V12.4993V12.5005V12.5017V12.503V12.5042V12.5054V12.5067V12.5079V12.5091V12.5104V12.5116V12.5128V12.5141V12.5153V12.5165V12.5178V12.519V12.5202V12.5215V12.5227V12.5239V12.5252V12.5264V12.5276V12.5289V12.5301V12.5313V12.5326V12.5338V12.535V12.5363V12.5375V12.5387V12.54V12.5412V12.5424V12.5437V12.5449V12.5461V12.5474V12.5486V12.5498V12.5511V12.5523V12.5535V12.5548V12.556V12.5572V12.5585V12.5597V12.5609V12.5622V12.5634V12.5646V12.5658V12.5671V12.5683V12.5695V12.5708V12.572V12.5732V12.5745V12.5757V12.5769V12.5782V12.5794V12.5806V12.5819V12.5831V12.5843V12.5856V12.5868V12.588V12.5893V12.5905V12.5917V12.593V12.5942V12.5954V12.5967V12.5979V12.5991V12.6004V12.6016V12.6028V12.6041V12.6053V12.6065V12.6078V12.609V12.6102V12.6115V12.6127V12.6139V12.6152V12.6164V12.6176V12.6189V12.6201V12.6213V12.6226V12.6238V12.625V12.6263V12.6275V12.6287V12.6299V12.6312V12.6324V12.6336V12.6349V12.6361V12.6373V12.6386V12.6398V12.641V12.6423V12.6435V12.6447V12.646V12.6472V12.6484V12.6497V12.6509V12.6521V12.6534V12.6546V12.6558V12.6571V12.6583V12.6595V12.6608V12.662V12.6632V12.6645V12.6657V12.6669V12.6682V12.6694V12.6706V12.6719V12.6731V12.6743V12.6756V12.6768V12.678V12.6793V12.6805V12.6817V12.683V12.6842V12.6854V12.6867V12.6879V12.6891V12.6904V12.6916V12.6928V12.694V12.6953V12.6965V12.6977V12.699V12.7002V12.7014V12.7027V12.7039V12.7051V12.7064V12.7076V12.7088V12.7101V12.7113V12.7125V12.7138V12.715V12.7162V12.7175V12.7187V12.7199V12.7212V12.7224V12.7236V12.7249V12.7261V12.7273V12.7286V12.7298V12.731V12.7323V12.7335V12.7347V12.736V12.7372V12.7384V12.7397V12.7409V12.7421V12.7434V12.7446V12.7458V12.7471V12.7483V12.7495V12.7508V12.752V12.7532V12.7545V12.7557V12.7569V12.7582V12.7594V12.7606V12.7618V12.7631V12.7643V12.7655V12.7668V12.768V12.7692V12.7705V12.7717V12.7729V12.7742V12.7754V12.7766V12.7779V12.7791V12.7803V12.7816V12.7828V12.784V12.7853V12.7865V12.7877V12.789V12.7902V12.7914H22.1481V12.7902V12.789V12.7877V12.7865V12.7853V12.784V12.7828V12.7816V12.7803V12.7791V12.7779V12.7766V12.7754V12.7742V12.7729V12.7717V12.7705V12.7692V12.768V12.7668V12.7655V12.7643V12.7631V12.7618V12.7606V12.7594V12.7582V12.7569V12.7557V12.7545V12.7532V12.752V12.7508V12.7495V12.7483V12.7471V12.7458V12.7446V12.7434V12.7421V12.7409V12.7397V12.7384V12.7372V12.736V12.7347V12.7335V12.7323V12.731V12.7298V12.7286V12.7273V12.7261V12.7249V12.7236V12.7224V12.7212V12.7199V12.7187V12.7175V12.7162V12.715V12.7138V12.7125V12.7113V12.7101V12.7088V12.7076V12.7064V12.7051V12.7039V12.7027V12.7014V12.7002V12.699V12.6977V12.6965V12.6953V12.694V12.6928V12.6916V12.6904V12.6891V12.6879V12.6867V12.6854V12.6842V12.683V12.6817V12.6805V12.6793V12.678V12.6768V12.6756V12.6743V12.6731V12.6719V12.6706V12.6694V12.6682V12.6669V12.6657V12.6645V12.6632V12.662V12.6608V12.6595V12.6583V12.6571V12.6558V12.6546V12.6534V12.6521V12.6509V12.6497V12.6484V12.6472V12.646V12.6447V12.6435V12.6423V12.641V12.6398V12.6386V12.6373V12.6361V12.6349V12.6336V12.6324V12.6312V12.6299V12.6287V12.6275V12.6263V12.625V12.6238V12.6226V12.6213V12.6201V12.6189V12.6176V12.6164V12.6152V12.6139V12.6127V12.6115V12.6102V12.609V12.6078V12.6065V12.6053V12.6041V12.6028V12.6016V12.6004V12.5991V12.5979V12.5967V12.5954V12.5942V12.593V12.5917V12.5905V12.5893V12.588V12.5868V12.5856V12.5843V12.5831V12.5819V12.5806V12.5794V12.5782V12.5769V12.5757V12.5745V12.5732V12.572V12.5708V12.5695V12.5683V12.5671V12.5658V12.5646V12.5634V12.5622V12.5609V12.5597V12.5585V12.5572V12.556V12.5548V12.5535V12.5523V12.5511V12.5498V12.5486V12.5474V12.5461V12.5449V12.5437V12.5424V12.5412V12.54V12.5387V12.5375V12.5363V12.535V12.5338V12.5326V12.5313V12.5301V12.5289V12.5276V12.5264V12.5252V12.5239V12.5227V12.5215V12.5202V12.519V12.5178V12.5165V12.5153V12.5141V12.5128V12.5116V12.5104V12.5091V12.5079V12.5067V12.5054V12.5042V12.503V12.5017V12.5005V12.4993V12.498V12.4968V12.4956V12.4944V12.4931V12.4919V12.4907V12.4894V12.4882V12.487V12.4857V12.4845V12.4833V12.482V12.4808V12.4796V12.4783V12.4771V12.4759V12.4746V12.4734V12.4722V12.4709V12.4697V12.4685V12.4672V12.466V12.4648V12.4635V12.4623V12.4611V12.4598V12.4586V12.4574V12.4561V12.4549V12.4537V12.4524V12.4512V12.45V12.4487V12.4475V12.4463V12.445V12.4438V12.4426V12.4413V12.4401V12.4389V12.4376V12.4364V12.4352V12.4339V12.4327V12.4315V12.4303V12.429V12.4278V12.4266V12.4253V12.4241V12.4229V12.4216V12.4204V12.4192V12.4179V12.4167V12.4155V12.4142V12.413V12.4118V12.4105V12.4093V12.4081V12.4068V12.4056V12.4044V12.4031V12.4019V12.4007V12.3994V12.3982V12.397V12.3957V12.3945V12.3933V12.392V12.3908V12.3896V12.3883V12.3871V12.3859V12.3846V12.3834V12.3822V12.3809V12.3797V12.3785V12.3772V12.376V12.3748V12.3735V12.3723V12.3711V12.3698V12.3686V12.3674V12.3661V12.3649V12.3637V12.3625V12.3612V12.36V12.3588V12.3575V12.3563V12.3551V12.3538V12.3526V12.3514V12.3501V12.3489V12.3477V12.3464V12.3452V12.344V12.3427V12.3415V12.3403V12.339V12.3378V12.3366V12.3353V12.3341V12.3329V12.3316V12.3304V12.3292V12.3279V12.3267V12.3255V12.3242V12.323V12.3218V12.3205V12.3193V12.3181V12.3168V12.3156V12.3144V12.3131V12.3119V12.3107V12.3094V12.3082V12.307V12.3057V12.3045V12.3033V12.302V12.3008V12.2996V12.2984V12.2971V12.2959V12.2947V12.2934V12.2922V12.291V12.2897V12.2885V12.2873V12.286V12.2848V12.2836V12.2823V12.2811V12.2799V12.2786V12.2774V12.2762V12.2749V12.2737V12.2725V12.2712V12.27V12.2688V12.2675V12.2663V12.2651V12.2638V12.2626V12.2614V12.2601V12.2589V12.2577V12.2564V12.2552V12.254V12.2527V12.2515V12.2503V12.249V12.2478V12.2466V12.2453V12.2441V12.2429V12.2416V12.2404V12.2392V12.2379V12.2367V12.2355V12.2342V12.233V12.2318V12.2306V12.2293V12.2281V12.2269V12.2256V12.2244V12.2232V12.2219V12.2207V12.2195V12.2182V12.217V12.2158V12.2145V12.2133V12.2121V12.2108V12.2096V12.2084V12.2071V12.2059V12.2047V12.2034V12.2022V12.201V12.1997V12.1985V12.1973V12.196V12.1948V12.1936V12.1923V12.1911V12.1899V12.1886V12.1874V12.1862V12.1849V12.1837V12.1825V12.1812V12.18V12.1788V12.1775V12.1763V12.1751V12.1738V12.1726V12.1714V12.1701V12.1689V12.1677V12.1665V12.1652V12.164V12.1628V12.1615V12.1603C22.1481 7.39589 18.5432 3.56555 13.8455 2.77441Z" fill="#101323"/>
<path d="M5.5166 9.40216C6.20599 8.16336 7.23833 7.14991 8.48965 6.48352" stroke="#101323" stroke-width="1.5" stroke-miterlimit="10" stroke-linecap="round"/>
</svg>
