<svg width="22" height="22" viewBox="0 0 22 22" fill="none" xmlns="http://www.w3.org/2000/svg">
<path d="M15.4473 12.6557H18.2031C18.5684 12.6612 18.9312 12.5939 19.2703 12.4579C19.6094 12.3218 19.9181 12.1197 20.1784 11.8633C20.4386 11.6068 20.6453 11.3012 20.7864 10.9641C20.9274 10.6271 21 10.2653 21 9.89993V3.73023C21 3.36484 20.9274 3.0031 20.7864 2.66604C20.6453 2.32898 20.4386 2.02334 20.1784 1.7669C19.9181 1.51045 19.6094 1.30832 19.2703 1.17228C18.9312 1.03623 18.5684 0.968975 18.2031 0.974428C17.4757 0.974408 16.7779 1.26193 16.2617 1.7743C15.7454 2.28667 15.4527 2.98235 15.4473 3.70966V12.6557Z" fill="#F84E27" stroke="white" stroke-width="1.5" stroke-linecap="round" stroke-linejoin="round"/>
<path d="M18.2032 0.974141C17.4758 0.97412 16.778 1.26164 16.2618 1.77401C15.7455 2.28638 15.4528 2.98206 15.4474 3.70937V18.928C15.4479 19.1067 15.4018 19.2825 15.3136 19.438C15.2254 19.5935 15.0983 19.7233 14.9446 19.8146C14.791 19.906 14.6162 19.9557 14.4375 19.9589C14.2588 19.9621 14.0823 19.9187 13.9255 19.8329L11.6324 18.5784C11.4535 18.4803 11.2494 18.4377 11.0461 18.456C10.8428 18.4743 10.6496 18.5527 10.4911 18.6812L8.66071 20.1516C8.47833 20.2976 8.25167 20.3772 8.01803 20.3772C7.7844 20.3772 7.55774 20.2976 7.37536 20.1516L5.57586 18.7429C5.41322 18.6133 5.2151 18.536 5.00765 18.5213C4.80021 18.5067 4.59318 18.5552 4.4139 18.6606L2.54242 19.7506C2.38656 19.8406 2.20981 19.8881 2.02983 19.8884C1.84985 19.8886 1.67295 19.8417 1.51681 19.7522C1.36068 19.6626 1.23077 19.5337 1.14008 19.3782C1.04939 19.2228 1.00108 19.0462 1 18.8663V3.70937C1.00544 2.98028 1.29959 2.28305 1.81804 1.77038C2.33648 1.25771 3.03697 0.9714 3.76608 0.974141H18.1621H18.2032Z" fill="#F84E27" stroke="white" stroke-width="1.5" stroke-linecap="round" stroke-linejoin="round"/>
<path d="M5.13281 5.61182H10.8706" stroke="white" stroke-width="1.5" stroke-linecap="round" stroke-linejoin="round"/>
<path d="M5.13281 9.04639H10.8706" stroke="white" stroke-width="1.5" stroke-linecap="round" stroke-linejoin="round"/>
<path d="M5.13281 12.481H10.8706" stroke="white" stroke-width="1.5" stroke-linecap="round" stroke-linejoin="round"/>
</svg>
