<svg width="22" height="22" viewBox="0 0 22 22" fill="none" xmlns="http://www.w3.org/2000/svg">
<path d="M15.4746 12.706H18.2375C18.9702 12.706 19.673 12.4149 20.1911 11.8968C20.7093 11.3786 21.0003 10.6759 21.0003 9.94314V3.75761C21.0031 3.39305 20.9336 3.03156 20.796 2.69397C20.6584 2.35638 20.4553 2.04937 20.1984 1.79062C19.9416 1.53188 19.6361 1.32652 19.2996 1.18639C18.963 1.04625 18.602 0.974111 18.2375 0.974121V0.974121C17.5047 0.974121 16.802 1.26521 16.2838 1.78335C15.7657 2.30149 15.4746 3.00423 15.4746 3.73699V12.706V12.706Z" stroke="#101010" stroke-width="1.5" stroke-linecap="round" stroke-linejoin="round"/>
<path d="M5.13477 5.64404H10.8873" stroke="#101010" stroke-width="1.5" stroke-linecap="round" stroke-linejoin="round"/>
<path d="M5.13477 9.0874H10.8873" stroke="#101010" stroke-width="1.5" stroke-linecap="round" stroke-linejoin="round"/>
<path d="M5.13477 12.5308H10.8873" stroke="#101010" stroke-width="1.5" stroke-linecap="round" stroke-linejoin="round"/>
<path d="M18.237 0.974121C17.5043 0.974121 16.8015 1.26521 16.2834 1.78335C15.7652 2.30149 15.4741 3.00423 15.4741 3.73699V18.9946C15.4746 19.1738 15.4284 19.3501 15.34 19.5059C15.2516 19.6618 15.1241 19.792 14.9701 19.8836C14.8161 19.9752 14.6408 20.025 14.4617 20.0282C14.2825 20.0314 14.1056 19.9879 13.9484 19.9018L11.6494 18.6544C11.4736 18.5627 11.275 18.5236 11.0775 18.5419C10.88 18.5602 10.692 18.6351 10.536 18.7575L8.68037 20.2317C8.49836 20.3756 8.27317 20.4538 8.0412 20.4538C7.80922 20.4538 7.58403 20.3756 7.40202 20.2317L5.5876 18.8091C5.42132 18.6839 5.22105 18.612 5.01312 18.6028C4.80519 18.5936 4.59935 18.6475 4.42266 18.7575L2.55669 19.7884C2.40017 19.8812 2.22188 19.931 2.03992 19.9326C1.85797 19.9341 1.67884 19.8875 1.52072 19.7975C1.3626 19.7074 1.23114 19.5771 1.13968 19.4198C1.04822 19.2625 1.00003 19.0838 1 18.9019V3.73699C1 3.00423 1.29109 2.30149 1.80923 1.78335C2.32736 1.26521 3.03011 0.974121 3.76287 0.974121H18.1958H18.237Z" stroke="#101010" stroke-width="1.5" stroke-linecap="round" stroke-linejoin="round"/>
</svg>
