<svg width="20" height="20" viewBox="0 0 20 20" fill="none" xmlns="http://www.w3.org/2000/svg">
<circle cx="10" cy="7.5" r="3.75" stroke="#101010" stroke-width="1.5"/>
<path fill-rule="evenodd" clip-rule="evenodd" d="M15.4402 16.5313C13.9661 17.7605 12.0694 18.5 10 18.5C7.94227 18.5 6.05531 17.7688 4.58479 16.5521C6.03071 15.4355 7.93116 14.75 10.026 14.75C12.1079 14.75 13.9977 15.427 15.4402 16.5313ZM16.511 15.4645C14.7811 14.0813 12.5052 13.25 10.026 13.25C7.53198 13.25 5.24374 14.0913 3.51003 15.4894C2.25612 14.0084 1.5 12.0925 1.5 10C1.5 5.30558 5.30558 1.5 10 1.5C14.6944 1.5 18.5 5.30558 18.5 10C18.5 12.0808 17.7523 13.9869 16.511 15.4645ZM17.6052 16.4934C19.0984 14.7463 20 12.4784 20 10C20 4.47715 15.5228 0 10 0C4.47715 0 0 4.47715 0 10C0 15.5228 4.47715 20 10 20C13.0282 20 15.7419 18.654 17.5757 16.5278L17.609 16.4977C17.6078 16.4963 17.6065 16.4949 17.6052 16.4934Z" fill="#101010"/>
</svg>
