<svg viewBox="0 0 28 22" fill="none" xmlns="http://www.w3.org/2000/svg">
<g clip-path="url(#clip0_4087_85794)">
<path d="M5.05683 21.1656V19.7579C5.05683 19.2194 4.72176 18.8668 4.14656 18.8668C3.85896 18.8668 3.54623 18.9597 3.33123 19.2658C3.16369 19.0089 2.92356 18.8668 2.56336 18.8668C2.32323 18.8668 2.0831 18.9378 1.89323 19.1948V18.9132H1.39062V21.1656H1.89323V19.9219C1.89323 19.5228 2.10823 19.3342 2.4433 19.3342C2.77837 19.3342 2.9459 19.5447 2.9459 19.9219V21.1656H3.4485V19.9219C3.4485 19.5228 3.68863 19.3342 3.99857 19.3342C4.33364 19.3342 4.50117 19.5447 4.50117 19.9219V21.1656H5.05683ZM12.5121 18.9132H11.6968V18.2326H11.1942V18.9132H10.739V19.3588H11.1942V20.3921C11.1942 20.9087 11.4092 21.2121 11.9844 21.2121C12.1994 21.2121 12.4395 21.141 12.607 21.0481L12.4618 20.6244C12.3166 20.7173 12.1491 20.7419 12.029 20.7419C11.7889 20.7419 11.694 20.5998 11.694 20.3675V19.3588H12.5093V18.9132H12.5121ZM16.7786 18.864C16.491 18.864 16.2984 19.0062 16.1783 19.192V18.9105H15.6757V21.1629H16.1783V19.8946C16.1783 19.5201 16.3458 19.3068 16.6586 19.3068C16.7535 19.3068 16.8736 19.3315 16.9713 19.3533L17.1165 18.8832C17.016 18.864 16.8736 18.864 16.7786 18.864ZM10.3314 19.0991C10.0912 18.9351 9.75616 18.864 9.39596 18.864C8.82076 18.864 8.43822 19.1456 8.43822 19.5911C8.43822 19.9656 8.72582 20.1788 9.22843 20.2472L9.46856 20.2718C9.73103 20.3183 9.87623 20.3893 9.87623 20.5069C9.87623 20.6709 9.68356 20.7884 9.34849 20.7884C9.01342 20.7884 8.74816 20.6709 8.58063 20.5533L8.3405 20.9278C8.60297 21.1164 8.96316 21.2094 9.32336 21.2094C9.9935 21.2094 10.3788 20.9032 10.3788 20.4823C10.3788 20.0832 10.0661 19.8727 9.58862 19.8016L9.34849 19.777C9.13349 19.7524 8.96596 19.7059 8.96596 19.5665C8.96596 19.4025 9.13349 19.3096 9.39875 19.3096C9.68635 19.3096 9.97395 19.4271 10.1192 19.4982L10.3314 19.0991ZM23.7034 18.864C23.4158 18.864 23.2231 19.0062 23.103 19.192V18.9105H22.6004V21.1629H23.103V19.8946C23.103 19.5201 23.2706 19.3068 23.5833 19.3068C23.6782 19.3068 23.7983 19.3315 23.896 19.3533L24.0412 18.8886C23.9435 18.864 23.8011 18.864 23.7034 18.864ZM17.2812 20.0394C17.2812 20.7201 17.7615 21.2121 18.5042 21.2121C18.8393 21.2121 19.0794 21.141 19.3196 20.9552L19.0794 20.5561C18.8868 20.6982 18.6969 20.7665 18.4791 20.7665C18.0714 20.7665 17.7838 20.485 17.7838 20.0394C17.7838 19.6157 18.0714 19.3342 18.4791 19.3123C18.6941 19.3123 18.8868 19.3834 19.0794 19.5228L19.3196 19.1237C19.0794 18.9351 18.8393 18.8668 18.5042 18.8668C17.7615 18.864 17.2812 19.3588 17.2812 20.0394ZM21.9303 20.0394V18.9132H21.4277V19.1948C21.2602 18.9843 21.02 18.8668 20.7073 18.8668C20.0595 18.8668 19.5569 19.3588 19.5569 20.0394C19.5569 20.7201 20.0595 21.2121 20.7073 21.2121C21.0424 21.2121 21.2825 21.0946 21.4277 20.8841V21.1656H21.9303V20.0394ZM20.0846 20.0394C20.0846 19.6403 20.3471 19.3123 20.7799 19.3123C21.1876 19.3123 21.4752 19.6185 21.4752 20.0394C21.4752 20.4385 21.1876 20.7665 20.7799 20.7665C20.3499 20.7419 20.0846 20.4358 20.0846 20.0394ZM14.0702 18.864C13.4 18.864 12.9198 19.3342 12.9198 20.0367C12.9198 20.7419 13.4 21.2094 14.0953 21.2094C14.4304 21.2094 14.7654 21.1164 15.0307 20.9032L14.7906 20.5506C14.5979 20.6927 14.3578 20.7857 14.1204 20.7857C13.8077 20.7857 13.4978 20.6435 13.4252 20.2472H15.1256C15.1256 20.1761 15.1256 20.1296 15.1256 20.0586C15.148 19.3342 14.7152 18.864 14.0702 18.864ZM14.0702 19.2877C14.3829 19.2877 14.5979 19.4763 14.6454 19.8262H13.4475C13.495 19.5228 13.71 19.2877 14.0702 19.2877ZM26.557 20.0394V18.0221H26.0544V19.1948C25.8869 18.9843 25.6468 18.8668 25.334 18.8668C24.6862 18.8668 24.1836 19.3588 24.1836 20.0394C24.1836 20.7201 24.6862 21.2121 25.334 21.2121C25.6691 21.2121 25.9092 21.0946 26.0544 20.8841V21.1656H26.557V20.0394ZM24.7114 20.0394C24.7114 19.6403 24.9738 19.3123 25.4066 19.3123C25.8143 19.3123 26.1019 19.6185 26.1019 20.0394C26.1019 20.4385 25.8143 20.7665 25.4066 20.7665C24.9738 20.7419 24.7114 20.4358 24.7114 20.0394ZM7.88536 20.0394V18.9132H7.38276V19.1948C7.21523 18.9843 6.97509 18.8668 6.66236 18.8668C6.01456 18.8668 5.51196 19.3588 5.51196 20.0394C5.51196 20.7201 6.01456 21.2121 6.66236 21.2121C6.99743 21.2121 7.23756 21.0946 7.38276 20.8841V21.1656H7.88536V20.0394ZM6.01736 20.0394C6.01736 19.6403 6.27983 19.3123 6.71262 19.3123C7.12029 19.3123 7.40789 19.6185 7.40789 20.0394C7.40789 20.4385 7.12029 20.7665 6.71262 20.7665C6.27983 20.7419 6.01736 20.4358 6.01736 20.0394Z" fill="black"/>
<path d="M17.7138 1.80688H10.1636V15.0863H17.7138V1.80688Z" fill="#FF5A00"/>
<path d="M10.6663 8.44658C10.6663 5.74859 11.9619 3.35403 13.95 1.80686C12.4869 0.680647 10.6412 0 8.628 0C3.85887 0 0 3.77773 0 8.44658C0 13.1154 3.85887 16.8932 8.628 16.8932C10.6412 16.8932 12.4869 16.2125 13.95 15.0863C11.9591 13.561 10.6663 11.1446 10.6663 8.44658Z" fill="#EB001B"/>
<path d="M27.9002 8.44658C27.9002 13.1154 24.0413 16.8932 19.2722 16.8932C17.259 16.8932 15.4133 16.2125 13.9502 15.0863C15.9634 13.5364 17.2339 11.1446 17.2339 8.44658C17.2339 5.74859 15.9383 3.35403 13.9502 1.80686C15.4105 0.680647 17.2562 0 19.2694 0C24.0413 0 27.9002 3.80233 27.9002 8.44658Z" fill="#F79E1B"/>
</g>
<defs>
<clipPath id="clip0_4087_85794">
<rect width="28" height="21.2121" fill="white"/>
</clipPath>
</defs>
</svg>
