<svg viewBox="0 0 40 14" fill="none" xmlns="http://www.w3.org/2000/svg">
<g clip-path="url(#clip0_4087_86341)">
<path d="M17.3335 12.8553H14.0933L16.12 0.228882H19.3601L17.3335 12.8553Z" fill="#00579F"/>
<path d="M29.0798 0.537558C28.4407 0.28208 27.427 0 26.1736 0C22.9737 0 20.7203 1.71926 20.7065 4.17727C20.6799 5.99079 22.3198 6.99806 23.5463 7.60275C24.8 8.22065 25.2261 8.62395 25.2261 9.17472C25.2134 10.0206 24.2131 10.4105 23.2802 10.4105C21.9865 10.4105 21.2934 10.2095 20.24 9.73888L19.8133 9.53714L19.3599 12.3715C20.1198 12.7203 21.52 13.0299 22.9737 13.0435C26.3736 13.0435 28.5871 11.3508 28.6133 8.73143C28.6262 7.29407 27.7603 6.19271 25.8934 5.29274C24.7601 4.71501 24.066 4.32545 24.066 3.73434C24.0793 3.19696 24.6531 2.64655 25.9324 2.64655C26.9858 2.61959 27.7598 2.87471 28.3461 3.13001L28.6392 3.26409L29.0798 0.537558Z" fill="#00579F"/>
<path d="M33.3858 8.38222C33.6526 7.65684 34.6795 4.84944 34.6795 4.84944C34.666 4.8764 34.9458 4.11068 35.1058 3.64061L35.3322 4.72858C35.3322 4.72858 35.9458 7.75093 36.0791 8.38222C35.5727 8.38222 34.0258 8.38222 33.3858 8.38222ZM37.3855 0.228882H34.8792C34.1062 0.228882 33.519 0.457044 33.1856 1.2765L28.3726 12.8551H31.7725C31.7725 12.8551 32.3322 11.2967 32.4525 10.9611C32.8255 10.9611 36.1329 10.9611 36.6128 10.9611C36.7058 11.4044 36.9994 12.8551 36.9994 12.8551H39.9996L37.3855 0.228882Z" fill="#00579F"/>
<path d="M11.3867 0.228882L8.21339 8.83891L7.86662 7.09269C7.27995 5.07779 5.44 2.88864 3.38672 1.80014L6.29335 12.8419H9.71986L14.813 0.228882H11.3867Z" fill="#00579F"/>
<path d="M5.26663 0.228882H0.0533341L0 0.484003C4.0667 1.5318 6.75999 4.05748 7.86654 7.09323L6.73323 1.29025C6.54665 0.483824 5.97326 0.255483 5.26663 0.228882Z" fill="#FAA61A"/>
</g>
<defs>
<clipPath id="clip0_4087_86341">
<rect width="40" height="13.3333" fill="white"/>
</clipPath>
</defs>
</svg>
